<svg width="188" height="48" viewBox="0 0 188 48" fill="none" xmlns="http://www.w3.org/2000/svg">
<path fill-rule="evenodd" clip-rule="evenodd" d="M83.087 30.7112H79.5101V12.3316H83.087V30.7112Z" fill="#11100E"/>
<path fill-rule="evenodd" clip-rule="evenodd" d="M101.99 12.3316V24.2285L91.409 13.8582L89.8577 12.3316H87.823V30.7112H91.409V18.7039L101.99 29.066L103.674 30.7112H105.587V12.3316H101.99Z" fill="#11100E"/>
<path fill-rule="evenodd" clip-rule="evenodd" d="M150.518 12.3316L143.469 27.195L136.44 12.3316H132.855V30.7112H136.44V19.9041L141.555 30.7112H141.818H145.142H145.392L150.518 19.9041V30.7112H154.09V12.3316H150.518Z" fill="#11100E"/>
<path fill-rule="evenodd" clip-rule="evenodd" d="M71.2011 12.3316L66.0654 25.9649L60.9379 12.3316H57.3387L64.271 30.7112H67.8533L74.7743 12.3316H71.2011Z" fill="#11100E"/>
<path fill-rule="evenodd" clip-rule="evenodd" d="M162.422 15.9841H173.046V19.6397H162.422V15.9841ZM173.066 12.3316H173.046H162.422H162.388C159.812 12.3542 158.826 14.3606 158.826 15.5629V30.7112H162.422V23.29H173.046V30.7112H176.62V15.5629C176.62 14.3606 175.632 12.3542 173.066 12.3316Z" fill="#11100E"/>
<path fill-rule="evenodd" clip-rule="evenodd" d="M113.907 15.9841H124.523V19.6397H113.907V15.9841ZM124.546 12.3316H124.533H124.523H113.907H113.887C111.296 12.3542 110.323 14.3606 110.323 15.5629V30.7112H113.907V23.29H124.523V30.7112H128.12V15.5629C128.12 14.3606 127.137 12.3542 124.546 12.3316Z" fill="#11100E"/>
<path fill-rule="evenodd" clip-rule="evenodd" d="M62.7519 38.219H63.5654L61.1268 44.8889H59.8037L57.338 38.219H58.7838L60.0364 41.8236C60.1295 42.0868 60.2179 42.3479 60.2969 42.6251C60.3896 42.8685 60.4506 43.1159 60.5296 43.3352C60.6065 43.5816 60.6806 43.8284 60.7416 44.0413C60.838 43.7656 60.9277 43.5048 61.0109 43.2376C61.0854 42.9954 61.1625 42.7453 61.2559 42.4739C61.3294 42.2091 61.4352 41.9505 61.5157 41.7321L62.7519 38.219Z" fill="#231F20"/>
<path fill-rule="evenodd" clip-rule="evenodd" d="M65.629 44.8889H64.3184V40.4367H65.629V44.8889ZM64.9558 37.914L65.7842 38.7436L64.9558 39.5732L64.1207 38.7436L64.9558 37.914Z" fill="#231F20"/>
<path fill-rule="evenodd" clip-rule="evenodd" d="M68.4558 41.084C68.4222 41.1185 68.3774 41.1737 68.342 41.2411C68.3292 41.3308 68.2856 41.4211 68.2663 41.5187C68.2358 41.6379 68.2172 41.749 68.2056 41.8825C68.1925 41.9966 68.1733 42.1205 68.1733 42.2251L69.6395 42.1607C69.6267 42.0244 69.5931 41.8825 69.5629 41.749C69.5367 41.612 69.4998 41.4879 69.4263 41.3646C69.3778 41.2411 69.3043 41.1463 69.2238 41.084C69.132 40.9941 69.0212 40.9648 68.9154 40.9648C68.8367 40.9648 68.747 40.9648 68.6677 40.9941C68.5887 41.0081 68.5329 41.0392 68.4558 41.084ZM69.0841 40.3438C69.3043 40.3438 69.5367 40.3776 69.7316 40.4368C69.935 40.4813 70.1327 40.5933 70.2995 40.729C70.4746 40.8739 70.6259 41.0712 70.7509 41.2988C70.8909 41.5495 70.9824 41.8426 71.0438 42.1979V42.2537C71.0151 42.3196 70.9339 42.348 70.8729 42.4078C70.8122 42.4416 70.7171 42.4737 70.6259 42.5133C70.5036 42.5481 70.3657 42.5633 70.208 42.595C70.0442 42.6249 69.853 42.6548 69.6267 42.6548L68.1733 42.7799V42.9647C68.1733 43.1157 68.2056 43.2877 68.2358 43.4299C68.2856 43.5811 68.3597 43.7208 68.4558 43.8288C68.5473 43.9197 68.6677 44.0133 68.8205 44.0734C68.9584 44.1347 69.132 44.1671 69.315 44.1671C69.4696 44.1671 69.6267 44.1347 69.8103 44.1155C69.9607 44.0734 70.1327 44.0414 70.2919 44.0133C70.4426 43.9517 70.5777 43.9197 70.7171 43.8733C70.8251 43.8288 70.9211 43.7797 70.998 43.7516L71.1206 44.0734C70.9648 44.1671 70.8122 44.2888 70.6259 44.3836C70.4554 44.4864 70.276 44.5938 70.086 44.6773C69.8725 44.7655 69.6715 44.8411 69.4406 44.9052C69.2238 44.9387 68.9947 44.9644 68.747 44.9644C68.4637 44.9644 68.2172 44.9387 67.976 44.8713C67.7301 44.7847 67.5261 44.6593 67.3394 44.4702C67.1897 44.3226 67.0359 44.0734 66.9304 43.8011C66.8322 43.5183 66.7837 43.1831 66.7837 42.7799C66.7837 42.3196 66.8453 41.9503 66.9572 41.6379C67.0811 41.3308 67.2485 41.084 67.455 40.8739C67.6527 40.6842 67.9022 40.5637 68.1733 40.4685C68.4558 40.3776 68.7608 40.3438 69.0841 40.3438Z" fill="#231F20"/>
<path fill-rule="evenodd" clip-rule="evenodd" d="M72.2478 41.0548L71.7498 40.8827V40.6262L73.1839 39.652H73.5389L73.5551 40.4368H74.9594L74.9121 40.9294C74.8044 40.9294 74.6653 40.9651 74.511 40.9651C74.3564 40.9941 74.2203 40.9941 74.0803 41.0227C73.9086 41.0227 73.725 41.0392 73.5551 41.0548V43.5491C73.5551 43.7324 73.6033 43.8556 73.6609 43.9697C73.725 44.0734 73.8327 44.1155 74.0163 44.1155C74.0803 44.1155 74.1392 44.1155 74.2362 44.1039C74.3277 44.1039 74.4146 44.1039 74.4979 44.0899C74.6059 44.0734 74.6846 44.0734 74.7724 44.0603C74.8654 44.0414 74.9444 44.0414 75.0039 44.0258V44.4144C74.8965 44.4702 74.7578 44.5349 74.6229 44.5941C74.4625 44.677 74.3277 44.735 74.1392 44.7847C74.0016 44.8411 73.8199 44.8716 73.6609 44.9387C73.4938 44.9644 73.3425 44.9644 73.1839 44.9644C73.0637 44.9644 72.9539 44.9644 72.8307 44.9387C72.7249 44.9195 72.6303 44.8716 72.5352 44.8134C72.4613 44.7542 72.386 44.659 72.3232 44.5553C72.275 44.4443 72.2478 44.2888 72.2478 44.1039V41.0548Z" fill="#231F20"/>
<path fill-rule="evenodd" clip-rule="evenodd" d="M78.8592 44.8889V41.9023C78.8592 41.6381 78.8268 41.4417 78.7201 41.3203C78.6304 41.1739 78.4895 41.1187 78.2742 41.1187C78.2132 41.1187 78.1183 41.1333 78.0265 41.1462C77.9368 41.1739 77.8407 41.209 77.7471 41.2413C77.6544 41.2688 77.5671 41.3203 77.4711 41.3648C77.3747 41.4085 77.2871 41.4548 77.2231 41.5189V44.8889H75.9003V40.437H77.0886L77.2106 40.965H77.2231C77.3201 40.8979 77.4101 40.8366 77.5501 40.7624C77.6736 40.6841 77.8145 40.6264 77.9643 40.5639C78.1183 40.5008 78.2742 40.437 78.4297 40.4047C78.595 40.3586 78.7491 40.3437 78.907 40.3437C79.0897 40.3437 79.2267 40.3586 79.4027 40.4239C79.5543 40.4687 79.6888 40.5639 79.8157 40.652C79.9188 40.7753 80.0167 40.9186 80.0923 41.0842C80.1402 41.2413 80.1838 41.4213 80.1838 41.6381V44.8889H78.8592Z" fill="#231F20"/>
<path fill-rule="evenodd" clip-rule="evenodd" d="M83.8564 44.0133C83.8564 44.0133 83.8409 43.9517 83.8409 43.8877C83.8409 43.8011 83.8409 43.7068 83.8214 43.5814V43.1492V42.6548C83.4871 42.6548 83.2403 42.671 83.0665 42.7189C82.9124 42.7451 82.8069 42.793 82.7608 42.8427C82.7459 42.8683 82.7291 42.9016 82.7163 42.9647C82.7163 43.0092 82.6971 43.0754 82.6971 43.116C82.6669 43.1959 82.6669 43.2728 82.6669 43.335C82.6669 43.3969 82.6541 43.4594 82.6541 43.5183C82.6541 43.7324 82.6971 43.8877 82.7459 44.0133C82.8197 44.1347 82.8999 44.2003 83.0186 44.2003C83.1921 44.2003 83.3141 44.2003 83.4575 44.1671C83.5969 44.1155 83.7167 44.0734 83.8564 44.0133ZM85.4882 44.2259C85.5962 44.2259 85.7487 44.2003 85.9207 44.1671V44.4605C85.8582 44.5178 85.7838 44.584 85.6914 44.6438C85.6142 44.7078 85.5029 44.7542 85.3973 44.8134C85.2891 44.8411 85.1774 44.8713 85.0579 44.9052C84.9331 44.9387 84.8239 44.9555 84.7211 44.9555C84.5946 44.9555 84.4994 44.9387 84.4128 44.9052C84.3161 44.8713 84.2411 44.8134 84.1816 44.7847C84.1169 44.7176 84.0687 44.659 84.0239 44.5938C83.9955 44.5349 83.9452 44.4605 83.9147 44.3967C83.8086 44.4702 83.7042 44.5349 83.5969 44.6118C83.4871 44.677 83.362 44.735 83.2531 44.8027C83.1293 44.8411 83.0186 44.9052 82.8807 44.9387C82.7459 44.9644 82.6068 44.9644 82.4372 44.9644C82.084 44.9644 81.8031 44.8713 81.5863 44.659C81.3767 44.4443 81.2825 44.1039 81.2825 43.676C81.2825 43.4302 81.3078 43.2374 81.3767 43.0593C81.417 42.8879 81.5295 42.7451 81.6643 42.6246C81.8156 42.5133 81.9901 42.4273 82.2054 42.3788C82.4211 42.3035 82.6971 42.2836 83.0186 42.2696L83.7927 42.2455V41.594C83.7927 41.4211 83.7479 41.2988 83.6545 41.2091C83.545 41.1185 83.3901 41.084 83.1604 41.084C82.9924 41.084 82.7907 41.1185 82.572 41.1463C82.3634 41.1737 82.1301 41.2567 81.8894 41.3311L81.7284 40.8739C81.8653 40.808 82.0328 40.7479 82.2054 40.6839C82.3872 40.6265 82.5592 40.5637 82.7459 40.5006C82.9124 40.4536 83.1153 40.4045 83.2836 40.3776C83.4697 40.3438 83.642 40.3438 83.8214 40.3438C84.0239 40.3438 84.2249 40.3438 84.3777 40.3932C84.5348 40.4365 84.6723 40.5006 84.78 40.593C84.8977 40.6518 84.9831 40.7751 85.028 40.9294C85.0905 41.0548 85.1189 41.2411 85.1189 41.4543V43.5183C85.1189 43.9944 85.2418 44.2259 85.4882 44.2259Z" fill="#231F20"/>
<path fill-rule="evenodd" clip-rule="evenodd" d="M89.5118 44.8889V41.9023C89.5118 41.6381 89.4651 41.4417 89.3919 41.3203C89.3132 41.1739 89.1778 41.1187 88.9737 41.1187C88.913 41.1187 88.8148 41.1333 88.7431 41.1462C88.6657 41.1739 88.5708 41.209 88.4973 41.2413C88.4055 41.2688 88.3094 41.3203 88.221 41.3648C88.1386 41.4085 88.0746 41.4548 88.0007 41.5189V44.8889H86.6776V40.437H87.8452L87.9721 40.965H87.9858C88.0746 40.8979 88.1868 40.8366 88.3094 40.7624C88.4363 40.6841 88.5549 40.6264 88.7087 40.5639C88.8517 40.5008 88.9905 40.437 89.1445 40.4047C89.2937 40.3586 89.4514 40.3437 89.6216 40.3437C89.8525 40.3437 90.0678 40.3934 90.2688 40.5008C90.4515 40.6264 90.611 40.7753 90.7153 41.0226C90.8096 40.965 90.9142 40.8738 91.0569 40.8079C91.1917 40.7164 91.3336 40.652 91.4876 40.5935C91.6419 40.5187 91.81 40.4687 91.9646 40.4047C92.1187 40.3586 92.2904 40.3437 92.4292 40.3437C92.6171 40.3437 92.7482 40.3586 92.9202 40.4239C93.0535 40.4687 93.1978 40.5639 93.3055 40.652C93.4168 40.7753 93.5071 40.9186 93.5534 41.0842C93.6269 41.2413 93.6443 41.4213 93.6443 41.6381V44.8889H92.3361V41.9023C92.3361 41.6381 92.3035 41.4417 92.2117 41.3203C92.1382 41.1739 91.9967 41.1187 91.81 41.1187C91.7158 41.1187 91.6529 41.1333 91.5657 41.1462C91.4876 41.1739 91.3955 41.209 91.3189 41.2413C91.2222 41.2688 91.149 41.3203 91.0569 41.3648C90.9752 41.4085 90.9066 41.4548 90.8224 41.5189V44.8889H89.5118Z" fill="#231F20"/>
<path fill-rule="evenodd" clip-rule="evenodd" d="M103.947 44.8889L103.405 39.791L101.028 44.8889H100.614L98.1325 39.791L97.6982 44.8889H96.9131L97.5908 38.1705H98.8404L101.155 42.9018L103.355 38.1705H104.579L105.302 44.8889H103.947Z" fill="#231F20"/>
<path fill-rule="evenodd" clip-rule="evenodd" d="M121.306 44.0133V43.8877C121.288 43.8011 121.288 43.7068 121.288 43.5814C121.288 43.4594 121.271 43.3051 121.271 43.1492C121.271 42.9955 121.262 42.8427 121.262 42.6548C120.955 42.6548 120.702 42.671 120.534 42.7189C120.369 42.7451 120.275 42.793 120.213 42.8427C120.19 42.8683 120.19 42.9016 120.182 42.9647C120.166 43.0092 120.152 43.0754 120.152 43.116C120.137 43.1959 120.137 43.2728 120.116 43.335V43.5183C120.116 43.7324 120.152 43.8877 120.19 44.0133C120.275 44.1347 120.369 44.2003 120.49 44.2003C120.645 44.2003 120.781 44.2003 120.919 44.1671C121.041 44.1155 121.197 44.0734 121.306 44.0133ZM122.938 44.2259C123.064 44.2259 123.203 44.2003 123.384 44.1671V44.4605C123.327 44.5178 123.247 44.584 123.155 44.6438C123.064 44.7078 122.953 44.7542 122.846 44.8134C122.74 44.8411 122.639 44.8713 122.505 44.9052C122.402 44.9387 122.292 44.9555 122.187 44.9555C122.061 44.9555 121.952 44.9387 121.876 44.9052C121.784 44.8713 121.69 44.8134 121.648 44.7847C121.586 44.7176 121.518 44.659 121.492 44.5938C121.444 44.5349 121.399 44.4605 121.384 44.3967C121.262 44.4702 121.154 44.5349 121.041 44.6118C120.932 44.677 120.825 44.735 120.702 44.8027C120.593 44.8411 120.46 44.9052 120.333 44.9387C120.19 44.9644 120.057 44.9644 119.892 44.9644C119.535 44.9644 119.254 44.8713 119.053 44.659C118.837 44.4443 118.73 44.1039 118.73 43.676C118.73 43.4302 118.761 43.2374 118.822 43.0593C118.887 42.8879 118.992 42.7451 119.114 42.6246C119.274 42.5133 119.44 42.4273 119.657 42.3788C119.892 42.3035 120.152 42.2836 120.473 42.2696L121.262 42.2455V41.594C121.262 41.4211 121.214 41.2988 121.108 41.2091C121.017 41.1185 120.844 41.084 120.614 41.084C120.442 41.084 120.259 41.1185 120.038 41.1463C119.808 41.1737 119.596 41.2567 119.349 41.3311L119.179 40.8739C119.336 40.808 119.503 40.7479 119.676 40.6839C119.856 40.6265 120.008 40.5637 120.19 40.5006C120.386 40.4536 120.549 40.4045 120.734 40.3776C120.919 40.3438 121.108 40.3438 121.288 40.3438C121.492 40.3438 121.676 40.3438 121.833 40.3932C122 40.4365 122.142 40.5006 122.234 40.593C122.353 40.6518 122.431 40.7751 122.495 40.9294C122.552 41.0548 122.588 41.2411 122.588 41.4543V43.5183C122.588 43.9944 122.694 44.2259 122.938 44.2259Z" fill="#231F20"/>
<path fill-rule="evenodd" clip-rule="evenodd" d="M107.579 41.084C107.552 41.1185 107.523 41.1737 107.473 41.2411C107.454 41.3308 107.428 41.4211 107.394 41.5187C107.38 41.6379 107.349 41.749 107.349 41.8825C107.33 41.9966 107.317 42.1205 107.317 42.2251L108.766 42.1607C108.751 42.0244 108.738 41.8825 108.691 41.749C108.66 41.612 108.63 41.4879 108.565 41.3646C108.506 41.2411 108.442 41.1463 108.352 41.084C108.257 40.9941 108.152 40.9648 108.043 40.9648C107.961 40.9648 107.887 40.9648 107.799 40.9941C107.714 41.0081 107.659 41.0392 107.579 41.084ZM108.209 40.3438C108.442 40.3438 108.66 40.3776 108.859 40.4368C109.06 40.4813 109.246 40.5933 109.429 40.729C109.615 40.8739 109.753 41.0712 109.894 41.2988C110.019 41.5495 110.11 41.8426 110.186 42.1979V42.2537C110.14 42.3196 110.078 42.348 110.019 42.4078C109.936 42.4416 109.844 42.4737 109.753 42.5133C109.646 42.5481 109.493 42.5633 109.356 42.595C109.183 42.6249 108.985 42.6548 108.766 42.6548L107.306 42.7799V42.9647C107.306 43.1157 107.33 43.2877 107.38 43.4299C107.428 43.5811 107.487 43.7208 107.579 43.8288C107.675 43.9197 107.799 44.0133 107.951 44.0734C108.088 44.1347 108.257 44.1671 108.442 44.1671C108.593 44.1671 108.766 44.1347 108.938 44.1155C109.108 44.0734 109.261 44.0414 109.429 44.0133C109.568 43.9517 109.723 43.9197 109.844 43.8733C109.957 43.8288 110.042 43.7797 110.14 43.7516L110.25 44.0734C110.11 44.1671 109.936 44.2888 109.753 44.3836C109.602 44.4864 109.398 44.5938 109.214 44.6773C109.011 44.7655 108.799 44.8411 108.565 44.9052C108.352 44.9387 108.117 44.9644 107.887 44.9644C107.596 44.9644 107.349 44.9387 107.12 44.8713C106.873 44.7847 106.657 44.6593 106.485 44.4702C106.318 44.3226 106.176 44.0734 106.074 43.8011C105.977 43.5183 105.93 43.1831 105.93 42.7799C105.93 42.3196 105.991 41.9503 106.1 41.6379C106.208 41.3308 106.378 41.084 106.577 40.8739C106.797 40.6842 107.041 40.5637 107.306 40.4685C107.596 40.3776 107.887 40.3438 108.209 40.3438Z" fill="#231F20"/>
<path fill-rule="evenodd" clip-rule="evenodd" d="M117.692 44.8889H116.386V40.4367H117.692V44.8889ZM117.017 37.914L117.849 38.7436L117.017 39.5732L116.182 38.7436L117.017 37.914Z" fill="#231F20"/>
<path fill-rule="evenodd" clip-rule="evenodd" d="M130.252 42.0032L129.249 39.1444L128.213 42.0032H130.252ZM131.238 44.8889L130.465 42.6392L127.983 42.6889L127.187 44.8889H126.334L128.956 38.2818L130.252 38.0369L132.688 44.8889H131.238Z" fill="#231F20"/>
<path fill-rule="evenodd" clip-rule="evenodd" d="M134.476 42.7192C134.476 43.2133 134.564 43.5811 134.75 43.8288C134.922 44.0734 135.152 44.2 135.447 44.2C135.587 44.2 135.739 44.1668 135.861 44.135C136 44.0902 136.123 44.0414 136.244 43.9792V41.084C136.048 41.0392 135.843 41.0224 135.631 41.0224C135.447 41.0224 135.277 41.0224 135.152 41.0548C134.998 41.084 134.889 41.1463 134.815 41.2088C134.75 41.2832 134.661 41.4418 134.599 41.7017C134.521 41.9506 134.476 42.2839 134.476 42.7192ZM136.244 40.4368V40.2239V40.0693V39.9125V37.5719L137.56 37.3248V44.8887H136.665L136.293 44.4702H136.262C136.184 44.5346 136.089 44.5938 135.984 44.6593C135.888 44.7176 135.785 44.7847 135.693 44.8134C135.587 44.8716 135.464 44.9055 135.34 44.9387C135.232 44.9644 135.105 44.9644 134.968 44.9644C134.741 44.9644 134.49 44.9387 134.268 44.8716C134.044 44.7847 133.845 44.6593 133.674 44.4702C133.504 44.3226 133.366 44.0734 133.272 43.8011C133.162 43.5183 133.119 43.1831 133.119 42.7799C133.119 42.3956 133.145 42.0564 133.26 41.7621C133.366 41.4546 133.517 41.1932 133.705 40.9941C133.888 40.7751 134.134 40.6262 134.395 40.5005C134.661 40.3932 134.968 40.3435 135.324 40.3435C135.447 40.3435 135.596 40.3435 135.768 40.3779C135.941 40.3779 136.108 40.4045 136.244 40.4368Z" fill="#231F20"/>
<path fill-rule="evenodd" clip-rule="evenodd" d="M112.224 42.7192C112.224 43.2133 112.311 43.5811 112.498 43.8288C112.67 44.0734 112.899 44.2 113.194 44.2C113.335 44.2 113.486 44.1668 113.608 44.135C113.747 44.0902 113.87 44.0414 113.991 43.9792V41.084C113.796 41.0392 113.59 41.0224 113.378 41.0224C113.194 41.0224 113.025 41.0224 112.899 41.0548C112.745 41.084 112.636 41.1463 112.562 41.2088C112.498 41.2832 112.408 41.4418 112.346 41.7017C112.268 41.9506 112.224 42.2839 112.224 42.7192ZM113.991 40.4368V40.2239V40.0693V39.9125V37.5719L115.307 37.3248V44.8887H114.412L114.04 44.4702H114.009C113.931 44.5346 113.836 44.5938 113.731 44.6593C113.636 44.7176 113.532 44.7847 113.441 44.8134C113.335 44.8716 113.211 44.9055 113.087 44.9387C112.98 44.9644 112.853 44.9644 112.715 44.9644C112.488 44.9644 112.238 44.9387 112.015 44.8716C111.791 44.7847 111.592 44.6593 111.421 44.4702C111.251 44.3226 111.113 44.0734 111.019 43.8011C110.909 43.5183 110.866 43.1831 110.866 42.7799C110.866 42.3956 110.892 42.0564 111.008 41.7621C111.113 41.4546 111.264 41.1932 111.452 40.9941C111.635 40.7751 111.881 40.6262 112.142 40.5005C112.408 40.3932 112.715 40.3435 113.071 40.3435C113.194 40.3435 113.343 40.3435 113.516 40.3779C113.688 40.3779 113.855 40.4045 113.991 40.4368Z" fill="#231F20"/>
<path fill-rule="evenodd" clip-rule="evenodd" d="M138.25 40.4687C138.311 40.4687 138.358 40.4687 138.448 40.4538C138.544 40.437 138.639 40.437 138.732 40.4239C138.836 40.4047 138.932 40.3934 139.023 40.3934C139.116 40.3781 139.19 40.3781 139.258 40.3781C139.424 40.3781 139.543 40.3934 139.673 40.437C139.778 40.4687 139.871 40.5285 139.945 40.6264C140.038 40.7164 140.135 40.8741 140.24 41.1187C140.346 41.331 140.443 41.6122 140.55 41.9023C140.642 42.2088 140.767 42.5327 140.873 42.8557C140.964 43.1961 141.072 43.5185 141.162 43.829H141.18C141.348 43.5048 141.475 43.2379 141.583 42.9863C141.691 42.7456 141.766 42.5327 141.828 42.3198C141.891 42.1045 141.917 41.9023 141.938 41.7019C141.938 41.5189 141.951 41.299 141.951 41.0842C141.951 41.0226 141.951 40.9763 141.938 40.9189V40.7484C141.938 40.6844 141.917 40.6395 141.917 40.5935C141.902 40.5435 141.902 40.5191 141.902 40.4687L142.89 40.3437C142.921 40.4047 142.939 40.4815 142.939 40.5935C142.953 40.6844 142.968 40.7753 142.968 40.8741C142.968 41.209 142.921 41.5783 142.816 41.9166C142.707 42.2841 142.57 42.6251 142.413 42.9649C142.245 43.3053 142.058 43.6402 141.877 43.9699C141.675 44.289 141.475 44.5937 141.293 44.8889H140.211C140.069 44.4704 139.945 44.0605 139.79 43.6402C139.639 43.2379 139.518 42.8429 139.362 42.5007C139.238 42.1609 139.116 41.859 138.992 41.6122C138.868 41.3648 138.763 41.1739 138.689 41.0842C138.591 40.965 138.448 40.8979 138.329 40.8979H138.25V40.4687Z" fill="#231F20"/>
<path fill-rule="evenodd" clip-rule="evenodd" d="M145.408 41.084C145.358 41.1185 145.33 41.1737 145.295 41.2411C145.248 41.3308 145.234 41.4211 145.216 41.5187C145.19 41.6379 145.178 41.749 145.157 41.8825C145.141 41.9966 145.141 42.1205 145.141 42.2251L146.591 42.1607C146.578 42.0244 146.549 41.8825 146.516 41.749C146.482 41.612 146.442 41.4879 146.372 41.3646C146.333 41.2411 146.251 41.1463 146.164 41.084C146.085 40.9941 145.991 40.9648 145.87 40.9648C145.775 40.9648 145.698 40.9648 145.617 40.9941C145.542 41.0081 145.467 41.0392 145.408 41.084ZM146.037 40.3438C146.251 40.3438 146.467 40.3776 146.671 40.4368C146.887 40.4813 147.073 40.5933 147.24 40.729C147.426 40.8739 147.566 41.0712 147.698 41.2988C147.84 41.5495 147.931 41.8426 147.993 42.1979V42.2537C147.95 42.3196 147.889 42.348 147.827 42.4078C147.747 42.4416 147.674 42.4737 147.548 42.5133C147.442 42.5481 147.321 42.5633 147.149 42.595C146.992 42.6249 146.809 42.6548 146.578 42.6548L145.129 42.7799V42.9647C145.129 43.1157 145.141 43.2877 145.19 43.4299C145.234 43.5811 145.314 43.7208 145.408 43.8288C145.495 43.9197 145.617 44.0133 145.762 44.0734C145.916 44.1347 146.07 44.1671 146.251 44.1671C146.419 44.1671 146.578 44.1347 146.748 44.1155C146.917 44.0734 147.089 44.0414 147.24 44.0133C147.396 43.9517 147.535 43.9197 147.659 43.8733C147.779 43.8288 147.889 43.7797 147.95 43.7516L148.063 44.0734C147.919 44.1671 147.766 44.2888 147.579 44.3836C147.41 44.4864 147.24 44.5938 147.025 44.6773C146.822 44.7655 146.623 44.8411 146.393 44.9052C146.164 44.9387 145.945 44.9644 145.698 44.9644C145.437 44.9644 145.157 44.9387 144.93 44.8713C144.683 44.7847 144.479 44.6593 144.311 44.4702C144.14 44.3226 143.984 44.0734 143.893 43.8011C143.804 43.5183 143.737 43.1831 143.737 42.7799C143.737 42.3196 143.804 41.9503 143.928 41.6379C144.032 41.3308 144.188 41.084 144.399 40.8739C144.606 40.6842 144.838 40.5637 145.129 40.4685C145.408 40.3776 145.712 40.3438 146.037 40.3438Z" fill="#231F20"/>
<path fill-rule="evenodd" clip-rule="evenodd" d="M151.836 41.4213C151.741 41.3938 151.631 41.3789 151.527 41.3648C151.403 41.331 151.292 41.331 151.168 41.331H150.985C150.925 41.3648 150.848 41.3789 150.815 41.4082C150.754 41.4213 150.709 41.4881 150.648 41.5189C150.602 41.5783 150.539 41.625 150.46 41.6851V44.8889H149.154V40.4367H150.339L150.446 41.1462H150.46C150.494 41.0842 150.539 41.0223 150.587 40.9647C150.635 40.8826 150.689 40.8076 150.738 40.7481C150.815 40.6844 150.862 40.6264 150.936 40.5636C151.004 40.5008 151.046 40.4684 151.13 40.4367C151.231 40.3775 151.377 40.3586 151.527 40.3437H151.989L151.836 41.4213Z" fill="#231F20"/>
<path fill-rule="evenodd" clip-rule="evenodd" d="M152.862 41.0548L152.37 40.8827V40.6262L153.808 39.652H154.164L154.177 40.4368H155.576L155.535 40.9294C155.413 40.9294 155.291 40.9651 155.13 40.9651C154.992 40.9941 154.84 40.9941 154.705 41.0227C154.532 41.0227 154.363 41.0392 154.194 41.0548V43.5491C154.194 43.7324 154.226 43.8556 154.271 43.9697C154.333 44.0734 154.458 44.1155 154.659 44.1155C154.705 44.1155 154.779 44.1155 154.853 44.1039C154.933 44.1039 155.023 44.1039 155.118 44.0899C155.223 44.0734 155.306 44.0734 155.395 44.0603C155.488 44.0414 155.553 44.0414 155.627 44.0258V44.4144C155.521 44.4702 155.38 44.5349 155.223 44.5941C155.087 44.677 154.933 44.735 154.779 44.7847C154.61 44.8411 154.442 44.8716 154.284 44.9387C154.116 44.9644 153.944 44.9644 153.808 44.9644C153.687 44.9644 153.581 44.9644 153.455 44.9387C153.345 44.9195 153.238 44.8716 153.16 44.8134C153.066 44.7542 153.005 44.659 152.944 44.5553C152.899 44.4443 152.862 44.2888 152.862 44.1039V41.0548Z" fill="#231F20"/>
<path fill-rule="evenodd" clip-rule="evenodd" d="M157.848 44.8889H156.538V40.4367H157.848V44.8889ZM157.154 37.914L157.985 38.7436L157.154 39.5732L156.334 38.7436L157.154 37.914Z" fill="#231F20"/>
<path fill-rule="evenodd" clip-rule="evenodd" d="M162.459 43.4299C162.459 43.6764 162.413 43.8874 162.302 44.0415C162.18 44.2001 162.05 44.3504 161.917 44.47C161.825 44.5347 161.759 44.5938 161.671 44.6594C161.597 44.7177 161.499 44.7848 161.409 44.8137C161.284 44.872 161.165 44.9052 161.017 44.9388C160.895 44.9641 160.733 44.9641 160.56 44.9641C160.224 44.9641 159.932 44.9388 159.664 44.872C159.408 44.8137 159.128 44.7177 158.912 44.5673L159.237 43.7325C159.328 43.8011 159.435 43.8557 159.543 43.9195C159.664 44.0131 159.784 44.0735 159.911 44.1351C160.034 44.2001 160.176 44.226 160.314 44.2888C160.454 44.3227 160.609 44.3504 160.747 44.3504C160.837 44.3504 160.93 44.3376 161.017 44.3227C161.101 44.3068 161.165 44.2888 161.221 44.226C161.27 44.2001 161.299 44.1351 161.332 44.0604C161.348 43.9698 161.348 43.8557 161.348 43.7325C161.348 43.5815 161.299 43.4766 161.196 43.397C161.088 43.3052 160.93 43.2375 160.762 43.1832C160.609 43.1045 160.422 43.0404 160.224 42.9648C160.018 42.9148 159.836 42.8428 159.664 42.7192C159.514 42.625 159.36 42.5006 159.237 42.3197C159.128 42.1608 159.064 41.9506 159.064 41.6853C159.064 41.6121 159.082 41.5187 159.128 41.4214C159.141 41.3312 159.189 41.2412 159.237 41.1741C159.279 41.0844 159.347 41.0085 159.408 40.9295C159.485 40.8739 159.528 40.8078 159.607 40.7483C159.771 40.6058 159.932 40.5006 160.132 40.4369C160.33 40.378 160.56 40.3438 160.821 40.3438C161.017 40.3438 161.252 40.3438 161.499 40.378C161.737 40.3936 161.963 40.4237 162.18 40.4533L162.025 41.3312C161.931 41.2988 161.825 41.2689 161.701 41.2412C161.565 41.2088 161.441 41.1741 161.332 41.1463C161.21 41.1186 161.088 41.0844 160.974 41.0844C160.869 41.0545 160.762 41.0545 160.665 41.0545H160.406C160.344 41.0844 160.314 41.0844 160.266 41.1186C160.224 41.1335 160.206 41.1741 160.189 41.2412C160.176 41.2988 160.158 41.3647 160.158 41.4214C160.158 41.5782 160.224 41.6697 160.33 41.7493C160.454 41.8237 160.609 41.8829 160.762 41.9506C160.93 42.0031 161.117 42.0723 161.316 42.1495C161.515 42.209 161.701 42.284 161.853 42.3953C162.025 42.5006 162.18 42.625 162.288 42.7928C162.413 42.9504 162.459 43.1639 162.459 43.4299Z" fill="#231F20"/>
<path fill-rule="evenodd" clip-rule="evenodd" d="M164.848 44.8889H163.523V40.4367H164.848V44.8889ZM164.154 37.914L165.001 38.7436L164.154 39.5732L163.338 38.7436L164.154 37.914Z" fill="#231F20"/>
<path fill-rule="evenodd" clip-rule="evenodd" d="M169.284 44.8889V41.9023C169.284 41.6381 169.241 41.4417 169.148 41.3203C169.074 41.1739 168.918 41.1187 168.717 41.1187C168.627 41.1187 168.535 41.1333 168.455 41.1462C168.362 41.1739 168.271 41.209 168.175 41.2413C168.088 41.2688 167.993 41.3203 167.901 41.3648C167.806 41.4085 167.732 41.4548 167.639 41.5189V44.8889H166.328V40.437H167.515L167.625 40.965H167.639C167.732 40.8979 167.837 40.8366 167.978 40.7624C168.097 40.6841 168.239 40.6264 168.392 40.5639C168.535 40.5008 168.696 40.437 168.857 40.4047C169.025 40.3586 169.163 40.3437 169.319 40.3437C169.52 40.3437 169.672 40.3586 169.827 40.4239C169.979 40.4687 170.12 40.5639 170.229 40.652C170.338 40.7753 170.426 40.9186 170.519 41.0842C170.569 41.2413 170.612 41.4213 170.612 41.6381V44.8889H169.284Z" fill="#231F20"/>
<path fill-rule="evenodd" clip-rule="evenodd" d="M173.757 43.273C173.882 43.273 173.99 43.2568 174.065 43.2376C174.126 43.2135 174.219 43.1833 174.285 43.1494C174.325 43.1159 174.393 42.9954 174.422 42.8097C174.483 42.6251 174.496 42.3787 174.496 42.0865C174.496 41.9166 174.483 41.779 174.457 41.6381C174.422 41.4881 174.359 41.3648 174.312 41.2688C174.235 41.1611 174.162 41.0842 174.065 41.0226C173.97 40.965 173.861 40.9293 173.741 40.9293C173.616 40.9293 173.527 40.9293 173.454 40.965C173.384 40.9943 173.329 41.0086 173.25 41.0546C173.189 41.0995 173.124 41.209 173.094 41.3938C173.033 41.5783 173.015 41.8239 173.015 42.121C173.015 42.2698 173.033 42.4083 173.081 42.5638C173.108 42.6889 173.16 42.8097 173.218 42.9365C173.28 43.0262 173.359 43.1159 173.454 43.1833C173.527 43.2376 173.632 43.273 173.757 43.273ZM173.311 48C173.002 48 172.737 47.9701 172.525 47.9244C172.309 47.8634 172.137 47.8008 172.013 47.709C171.876 47.616 171.768 47.5242 171.727 47.4025C171.659 47.2808 171.631 47.1591 171.631 47.0346C171.631 46.9102 171.647 46.8166 171.709 46.7238C171.737 46.6339 171.801 46.5393 171.876 46.4426C171.957 46.3706 172.048 46.2923 172.156 46.2151C172.26 46.1398 172.382 46.0757 172.507 46.0156L172.816 46.0757C172.803 46.1699 172.773 46.263 172.755 46.3545C172.737 46.417 172.737 46.5091 172.737 46.5988C172.737 46.8071 172.816 46.9691 172.959 47.0758C173.108 47.2167 173.311 47.2808 173.606 47.2808C173.728 47.2808 173.851 47.2448 173.99 47.2448C174.112 47.2317 174.219 47.2167 174.359 47.1844C174.483 47.1701 174.59 47.1219 174.687 47.1106C174.792 47.0642 174.869 47.0346 174.943 47.0014C175.055 46.9373 175.114 46.8462 175.129 46.7363C175.18 46.6339 175.195 46.4771 175.195 46.3228C175.195 45.9836 174.833 45.8311 174.142 45.8311H173.42C172.898 45.818 172.507 45.7387 172.26 45.584C172.03 45.4593 171.908 45.2131 171.908 44.8718C171.908 44.7541 171.922 44.6595 171.984 44.5348C172.03 44.4317 172.094 44.3225 172.17 44.2261C172.244 44.116 172.327 44.0132 172.416 43.9364C172.525 43.8555 172.604 43.7659 172.693 43.7067C172.556 43.6402 172.432 43.5493 172.309 43.4593C172.204 43.3633 172.094 43.2376 171.997 43.1159C171.922 42.9863 171.833 42.8426 171.786 42.6889C171.727 42.5007 171.709 42.3198 171.709 42.1335C171.709 41.859 171.752 41.6122 171.848 41.3938C171.957 41.1611 172.094 40.965 172.279 40.8076C172.451 40.652 172.678 40.5285 172.925 40.4687C173.16 40.3778 173.42 40.3437 173.728 40.3437C173.959 40.3437 174.176 40.3437 174.359 40.3778C174.544 40.4044 174.713 40.437 174.917 40.4687H175.286C175.41 40.4687 175.534 40.437 175.659 40.437C175.794 40.4239 175.917 40.4044 176.024 40.3937C176.15 40.3778 176.256 40.3586 176.363 40.3437L176.269 40.9186C176.166 40.9461 176.041 40.9943 175.888 40.9943C175.733 41.0226 175.611 41.0226 175.469 41.0226C175.516 41.1187 175.589 41.2688 175.659 41.4213C175.715 41.6122 175.763 41.8239 175.763 42.1042C175.763 42.3955 175.715 42.6392 175.611 42.856C175.498 43.0863 175.362 43.2568 175.195 43.3968C175.026 43.5493 174.792 43.6762 174.544 43.7326C174.312 43.8287 174.035 43.8555 173.741 43.8555C173.654 43.8555 173.541 43.8555 173.42 43.8412C173.28 43.8287 173.189 43.8287 173.124 43.8009C173.081 43.8555 173.033 43.9196 173.002 44.0132C172.972 44.1041 172.941 44.2002 172.941 44.289C172.941 44.3841 173.002 44.4607 173.108 44.5067C173.218 44.5348 173.407 44.5552 173.664 44.5552H174.713C175.038 44.5552 175.299 44.5671 175.516 44.6293C175.715 44.6772 175.903 44.7541 176.024 44.8587C176.166 44.9642 176.256 45.0902 176.315 45.2455C176.378 45.3964 176.412 45.584 176.412 45.7975C176.412 46.0757 176.315 46.3228 176.166 46.586C176.024 46.8462 175.808 47.0947 175.516 47.2951C175.251 47.5105 174.933 47.677 174.544 47.8008C174.162 47.9244 173.757 48 173.311 48Z" fill="#231F20"/>
<path fill-rule="evenodd" clip-rule="evenodd" d="M180.649 5.06591H182.325C182.677 5.06591 182.983 5.02961 183.172 4.97807C183.382 4.88199 183.509 4.78378 183.669 4.60474C183.759 4.44949 183.817 4.25337 183.817 4.07158C183.817 3.79494 183.697 3.57198 183.48 3.39324C183.27 3.20993 182.983 3.10928 182.513 3.10928H180.649V5.06591ZM179.867 8.39722V2.45412H182.481C183.049 2.45412 183.418 2.51207 183.697 2.60662C183.979 2.70362 184.2 2.89394 184.353 3.20993C184.505 3.45333 184.603 3.7562 184.603 4.07158C184.603 4.50896 184.474 4.8521 184.2 5.12813C183.908 5.4426 183.509 5.62774 182.922 5.69484C183.142 5.8144 183.285 5.87632 183.418 5.9968C183.636 6.19475 183.857 6.47658 184.067 6.78097L185.066 8.39722H184.103L183.321 7.19243C183.078 6.80324 182.884 6.52873 182.77 6.33963C182.604 6.1554 182.455 5.9968 182.358 5.94068C182.235 5.87632 182.108 5.8144 181.987 5.8144C181.884 5.74608 181.774 5.74608 181.553 5.74608H180.649V8.39722H179.867Z" fill="#11100E"/>
<path fill-rule="evenodd" clip-rule="evenodd" d="M181.823 0.680819C179.15 0.680819 176.909 2.89396 176.909 5.62745C176.909 8.32831 179.15 10.5411 181.823 10.5411C184.603 10.5411 186.808 8.32831 186.808 5.62745C186.808 2.89396 184.603 0.680819 181.823 0.680819ZM181.823 3.91006e-05C184.969 3.91006e-05 187.499 2.51209 187.499 5.62745C187.499 8.73153 184.969 11.2268 181.823 11.2268C178.744 11.2268 176.225 8.73153 176.225 5.62745C176.225 2.51209 178.744 3.91006e-05 181.823 3.91006e-05Z" fill="#11100E"/>
<path fill-rule="evenodd" clip-rule="evenodd" d="M0.00012207 15.838V27.592C11.1692 26.1736 22.2009 22.0526 29.4462 5.31282C22.4293 12.3628 11.7372 17.7033 0.00012207 15.838Z" fill="#ED1C24"/>
<path fill-rule="evenodd" clip-rule="evenodd" d="M39.629 11.1919L29.4463 5.31961C25.0967 15.6915 23.1445 27.2955 34.033 41.9412C31.4301 32.3492 32.1508 20.4198 39.629 11.1919Z" fill="#78CA2A"/>
<path fill-rule="evenodd" clip-rule="evenodd" d="M23.843 47.8142L34.0331 41.9414C27.2169 32.9818 18.1332 25.4907 0 27.5921C9.6123 30.1337 19.5895 36.7215 23.843 47.8142Z" fill="#3D7368"/>
</svg>
