<svg width="24" height="24" viewBox="0 0 32 32" xmlns="http://www.w3.org/2000/svg">
<path d="M16 2.66699C8.63996 2.66699 2.66663 8.64033 2.66663 16.0003C2.66663 23.3603 8.63996 29.3337 16 29.3337C23.36 29.3337 29.3333 23.3603 29.3333 16.0003C29.3333 8.64033 23.36 2.66699 16 2.66699ZM21.3733 16.707L17.3733 20.707C17.1733 20.907 16.92 21.0003 16.6666 21.0003C16.4133 21.0003 16.16 20.907 15.96 20.707C15.5733 20.3203 15.5733 19.6803 15.96 19.2937L18.2533 17.0003H11.3333C10.7866 17.0003 10.3333 16.547 10.3333 16.0003C10.3333 15.4537 10.7866 15.0003 11.3333 15.0003H18.2533L15.96 12.707C15.5733 12.3203 15.5733 11.6803 15.96 11.2937C16.3466 10.907 16.9866 10.907 17.3733 11.2937L21.3733 15.2937C21.76 15.6803 21.76 16.3203 21.3733 16.707Z" />
</svg>
