<svg width="28" height="28" viewBox="0 0 28 28" fill="none" xmlns="http://www.w3.org/2000/svg">
<path d="M14.0001 0.666626C6.65341 0.666626 0.666748 6.65329 0.666748 14C0.666748 21.3466 6.65341 27.3333 14.0001 27.3333C21.3467 27.3333 27.3334 21.3466 27.3334 14C27.3334 6.65329 21.3467 0.666626 14.0001 0.666626ZM16.3867 18C16.7734 18.3866 16.7734 19.0266 16.3867 19.4133C16.1867 19.6133 15.9334 19.7066 15.6801 19.7066C15.4267 19.7066 15.1734 19.6133 14.9734 19.4133L10.2667 14.7066C9.88008 14.32 9.88008 13.68 10.2667 13.2933L14.9734 8.58663C15.3601 8.19996 16.0001 8.19996 16.3867 8.58663C16.7734 8.97329 16.7734 9.61329 16.3867 9.99996L12.3867 14L16.3867 18Z" fill="#3D7368"/>
</svg>
