<svg width="80" height="80" viewBox="0 0 80 80" fill="none" xmlns="http://www.w3.org/2000/svg">
<path d="M70.3 23.2667C67.4666 20.1334 62.7333 18.5667 55.8666 18.5667H55.0666V18.4334C55.0666 12.8334 55.0666 5.90002 42.5333 5.90002H37.4666C24.9333 5.90002 24.9333 12.8667 24.9333 18.4334V18.6H24.1333C17.2333 18.6 12.5333 20.1667 9.69996 23.3C6.39996 26.9667 6.49996 31.9 6.8333 35.2667L6.86663 35.5L7.17742 38.7633C7.19168 38.9131 7.27134 39.0476 7.39684 39.1306C7.99451 39.5257 9.80758 40.7154 10.8 41.2667C11.2666 41.5667 11.7666 41.8334 12.2666 42.1C17.9666 45.2334 24.2333 47.3334 30.6 48.3667C30.9 51.5 32.2666 55.1667 39.5666 55.1667C46.8666 55.1667 48.3 51.5334 48.5333 48.3C55.3333 47.2 61.9 44.8334 67.8333 41.3667C68.0333 41.2667 68.1666 41.1667 68.3333 41.0667C69.8028 40.2361 71.3334 39.1913 72.6906 38.1962C72.803 38.1138 72.8754 37.9879 72.8908 37.8494L73 36.8667L73.1666 35.3C73.2 35.1 73.2 34.9334 73.2333 34.7C73.5 31.3334 73.4333 26.7334 70.3 23.2667ZM43.6333 46.1C43.6333 49.6334 43.6333 50.1667 39.5333 50.1667C35.4333 50.1667 35.4333 49.5334 35.4333 46.1334V41.9334H43.6333V46.1ZM29.7 18.5667V18.4334C29.7 12.7667 29.7 10.6667 37.4666 10.6667H42.5333C50.3 10.6667 50.3 12.8 50.3 18.4334V18.6H29.7V18.5667Z" fill="#3D7368"/>
<path d="M71.4687 44.8697C71.8205 44.6978 72.2211 44.9799 72.1857 45.3699L70.8001 60.6333C70.1001 67.3 67.3667 74.1 52.7001 74.1H27.3C12.6334 74.1 9.90005 67.3 9.20005 60.6666L7.87934 46.1388C7.8443 45.7534 8.23715 45.4723 8.58824 45.6352C11.4136 46.9461 21.1343 51.3673 26.2062 52.5416C26.3716 52.58 26.5025 52.6971 26.5659 52.8546C28.4602 57.5573 32.9518 60.0666 39.5667 60.0666C46.1161 60.0666 50.6709 57.4608 52.5674 52.7548C52.631 52.5971 52.7617 52.4801 52.9273 52.4418C58.297 51.2 68.543 46.2985 71.4687 44.8697Z" fill="#3D7368"/>
</svg>
