<svg width="20" height="20" viewBox="0 0 20 20" fill="none" xmlns="http://www.w3.org/2000/svg">
<path d="M13.3333 1.66675H6.66667C3.75 1.66675 2.5 3.33341 2.5 5.83341V14.1667C2.5 16.6667 3.75 18.3334 6.66667 18.3334H13.3333C16.25 18.3334 17.5 16.6667 17.5 14.1667V5.83341C17.5 3.33341 16.25 1.66675 13.3333 1.66675ZM10.8917 12.9084C10.4667 14.2667 8.975 14.9751 8.55833 14.9751C8.15 14.9667 6.675 14.2751 6.23333 12.9084C5.95833 12.0501 6.28333 10.9917 7.175 10.7001C7.65 10.5501 8.23333 10.6751 8.55833 11.1334C8.86667 10.6584 9.475 10.5501 9.94167 10.7001C10.8417 10.9917 11.1583 12.0501 10.8917 12.9084ZM15.4167 7.70842H13.75C12.4833 7.70842 11.4583 6.68341 11.4583 5.41675V3.75008C11.4583 3.40841 11.7417 3.12508 12.0833 3.12508C12.425 3.12508 12.7083 3.40841 12.7083 3.75008V5.41675C12.7083 5.99175 13.175 6.45841 13.75 6.45841H15.4167C15.7583 6.45841 16.0417 6.74175 16.0417 7.08341C16.0417 7.42508 15.7583 7.70842 15.4167 7.70842Z" />
</svg>
