<svg width="32" height="32" viewBox="0 0 32 32" fill="none" xmlns="http://www.w3.org/2000/svg">
<path fill-rule="evenodd" clip-rule="evenodd" d="M24.9428 11.7288C24.9428 13.4033 25.3854 14.3904 26.3594 15.5278C27.0975 16.3657 27.3334 17.4414 27.3334 18.6084C27.3334 19.774 26.9504 20.8805 26.1831 21.7789C25.1787 22.8559 23.7621 23.5434 22.3163 23.663C20.2213 23.8416 18.1249 23.992 16.0007 23.992C13.8751 23.992 11.7801 23.902 9.68502 23.663C8.23796 23.5434 6.82138 22.8559 5.81824 21.7789C5.05098 20.8805 4.66669 19.774 4.66669 18.6084C4.66669 17.4414 4.90389 16.3657 5.64067 15.5278C6.64513 14.3904 7.05858 13.4033 7.05858 11.7288V11.1607C7.05858 8.91811 7.61779 7.45168 8.76935 6.01614C10.4814 3.92259 13.2258 2.66699 15.9411 2.66699H16.0603C18.8339 2.66699 21.667 3.98302 23.35 6.16654C24.4419 7.57254 24.9428 8.9772 24.9428 11.1607V11.7288ZM12.0983 26.7481C12.0983 26.0767 12.7144 25.7691 13.2843 25.6375C13.9508 25.4965 18.0124 25.4965 18.6789 25.6375C19.2488 25.7691 19.8649 26.0767 19.8649 26.7481C19.8318 27.3873 19.4568 27.954 18.9387 28.3139C18.2668 28.8376 17.4784 29.1693 16.6541 29.2888C16.1983 29.3479 15.7504 29.3493 15.3104 29.2888C14.4848 29.1693 13.6964 28.8376 13.0259 28.3126C12.5064 27.954 12.1314 27.3873 12.0983 26.7481Z" />
</svg>
