<svg width="80" height="80" viewBox="0 0 80 80" fill="none" xmlns="http://www.w3.org/2000/svg">
<path d="M40 6.66663C31.2666 6.66663 24.1666 13.7666 24.1666 22.5C24.1666 31.0666 30.8666 38 39.6 38.3C39.8666 38.2666 40.1333 38.2666 40.3333 38.3C40.4 38.3 40.4333 38.3 40.5 38.3C40.5333 38.3 40.5333 38.3 40.5666 38.3C49.1 38 55.8 31.0666 55.8333 22.5C55.8333 13.7666 48.7333 6.66663 40 6.66663Z" fill="#3D7368"/>
<path d="M56.9333 47.1666C47.6333 40.9666 32.4667 40.9666 23.1 47.1666C18.8667 49.9999 16.5333 53.8333 16.5333 57.9333C16.5333 62.0333 18.8667 65.8333 23.0667 68.6333C27.7333 71.7666 33.8667 73.3333 40 73.3333C46.1333 73.3333 52.2667 71.7666 56.9333 68.6333C61.1333 65.7999 63.4667 61.9999 63.4667 57.8666C63.4333 53.7666 61.1333 49.9666 56.9333 47.1666Z" fill="#3D7368"/>
</svg>
