<svg width="28" height="28" viewBox="0 0 28 28" fill="none" xmlns="http://www.w3.org/2000/svg">
<path d="M13.9998 0.666656C6.65317 0.666656 0.666504 6.65332 0.666504 14C0.666504 21.3467 6.65317 27.3333 13.9998 27.3333C21.3465 27.3333 27.3332 21.3467 27.3332 14C27.3332 6.65332 21.3465 0.666656 13.9998 0.666656ZM20.3732 10.9333L12.8132 18.4933C12.6265 18.68 12.3732 18.7867 12.1065 18.7867C11.8398 18.7867 11.5865 18.68 11.3998 18.4933L7.6265 14.72C7.23984 14.3333 7.23984 13.6933 7.6265 13.3067C8.01317 12.92 8.65317 12.92 9.03984 13.3067L12.1065 16.3733L18.9598 9.51999C19.3465 9.13332 19.9865 9.13332 20.3732 9.51999C20.7598 9.90666 20.7598 10.5333 20.3732 10.9333Z" fill="#b3b3b3"/>
</svg>
