<svg width="18" height="18" viewBox="0 0 18 18" fill="none" xmlns="http://www.w3.org/2000/svg">
<path d="M12.885 3.9375C11.6025 3.9375 10.0725 4.425 10.0725 6.75V11.25C10.0725 13.575 11.6025 14.0625 12.885 14.0625C14.1675 14.0625 15.6975 13.575 15.6975 11.25V6.75C15.6975 4.425 14.1675 3.9375 12.885 3.9375Z" />
<path d="M5.11499 3.9375C3.83249 3.9375 2.30249 4.425 2.30249 6.75V11.25C2.30249 13.575 3.83249 14.0625 5.11499 14.0625C6.39749 14.0625 7.92749 13.575 7.92749 11.25V6.75C7.92749 4.425 6.39749 3.9375 5.11499 3.9375Z" />
<path d="M10.0725 8.4375H7.92749V9.5625H10.0725V8.4375Z" />
<path d="M16.875 11.4375C16.5675 11.4375 16.3125 11.1825 16.3125 10.875V7.125C16.3125 6.8175 16.5675 6.5625 16.875 6.5625C17.1825 6.5625 17.4375 6.8175 17.4375 7.125V10.875C17.4375 11.1825 17.1825 11.4375 16.875 11.4375Z" />
<path d="M1.125 11.4375C0.8175 11.4375 0.5625 11.1825 0.5625 10.875V7.125C0.5625 6.8175 0.8175 6.5625 1.125 6.5625C1.4325 6.5625 1.6875 6.8175 1.6875 7.125V10.875C1.6875 11.1825 1.4325 11.4375 1.125 11.4375Z" />
</svg>
