<?xml version="1.0" standalone="no"?>
<!DOCTYPE svg PUBLIC "-//W3C//DTD SVG 1.1//EN" "http://www.w3.org/Graphics/SVG/1.1/DTD/svg11.dtd" >
<svg xmlns="http://www.w3.org/2000/svg" xmlns:xlink="http://www.w3.org/1999/xlink" version="1.1">
<metadata>
Created by FontForge 20170731 at Wed Feb  9 10:25:05 2022
 By Aleksey,,,
Copyright (c) 2009 by Manuel Eduardo Corradine. All rights reserved.
</metadata>
<defs>
<font id="Mussica" horiz-adv-x="1021" >
  <font-face 
    font-family="Mussica"
    font-weight="400"
    font-stretch="normal"
    units-per-em="2048"
    panose-1="4 0 0 0 0 0 0 0 0 0"
    ascent="1638"
    descent="-410"
    x-height="971"
    cap-height="1675"
    bbox="-111 -715 3127 2234"
    underline-thickness="102"
    underline-position="-307"
    unicode-range="U+0020-2212"
  />
<missing-glyph 
d="M836 1640h-660l2 -1605h660zM53 1675h908v-1675h-908v1675z" />
    <glyph glyph-name=".notdef" 
d="M836 1640h-660l2 -1605h660zM53 1675h908v-1675h-908v1675z" />
    <glyph glyph-name=".null" horiz-adv-x="655" 
 />
    <glyph glyph-name="nonmarkingreturn" horiz-adv-x="682" 
 />
    <glyph glyph-name="space" unicode=" " horiz-adv-x="634" 
 />
    <glyph glyph-name="exclam" unicode="!" horiz-adv-x="458" 
d="M248 16h-37q-61 1320 -61 1553q0 57 15 78.5t64 21.5q50 0 66 -21.5t16 -78.5q0 -197 -63 -1553zM229 -133q44 0 75.5 -29.5t31.5 -68.5t-31.5 -68t-75.5 -29q-43 0 -74.5 29.5t-31.5 67.5q0 39 32 68.5t74 29.5z" />
    <glyph glyph-name="quotedbl" unicode="&#x22;" horiz-adv-x="495" 
d="M156 1290h-29q-6 61 -36 184.5t-30 145.5q0 43 24.5 66.5t59.5 23.5q33 0 56.5 -24t23.5 -66q0 -19 -31 -142.5t-38 -187.5zM367 1290h-29q-5 63 -36.5 186t-31.5 144q0 43 25 66.5t59 23.5t57 -24t23 -66q0 -21 -30 -144.5t-37 -185.5z" />
    <glyph glyph-name="numbersign" unicode="#" horiz-adv-x="1273" 
d="M1212 823h-307v-575h307v-37h-307v-356l-123 -74v430h-290v-356l-123 -74v430h-308v37h308v575h-308v37h308v430h123v-430h290v430h123v-430h307v-37zM492 823v-575h290v575h-290z" />
    <glyph glyph-name="dollar" unicode="$" horiz-adv-x="1275" 
d="M575 -328h-34v129q-206 18 -343 143t-137 316q0 111 65.5 195t158.5 84q59 0 93 -30.5t34 -74.5q0 -39 -27.5 -69.5t-75.5 -30.5q-29 0 -48 13t-31 25.5t-25 12.5q-37 0 -61.5 -48.5t-24.5 -109.5q0 -91 36.5 -164.5t97.5 -119t134 -72t154 -33.5v891q-70 29 -120 54.5
t-104 62.5t-87 76.5t-54.5 94t-21.5 118.5q0 149 109.5 253.5t277.5 133.5v133h34v-129q37 6 78 6q26 0 80 -4v127h35v-131q141 -22 229 -91t88 -163q0 -62 -31.5 -93.5t-78.5 -31.5q-31 0 -53.5 21.5t-22.5 54.5q0 37 33 61q2 2 7 5.5t6.5 5t4 5.5t3.5 9.5t1 13.5
q0 61 -49 106t-137 64v-715q56 -24 97.5 -43t91.5 -46.5t85.5 -53.5t71 -61.5t57 -73t35 -85t13.5 -100.5q0 -168 -119 -309.5t-332 -185.5v-146h-35v140q-70 -13 -137 -13h-21v-127zM1112 252q0 72 -26.5 131.5t-77.5 105t-106.5 79t-133.5 67.5v-785q92 19 160.5 60.5
t107.5 97t57.5 116.5t18.5 128zM733 649q-35 16 -158 64v-877q4 0 13 -1t14 -1q63 0 131 10v805zM248 1208q0 -59 22 -109.5t64 -91t91 -71.5t116 -62v619q-129 -24 -211 -95t-82 -190zM575 858q28 -13 82.5 -35.5t75.5 -31.5v706q-37 6 -78 6q-39 0 -80 -6v-639z" />
    <glyph glyph-name="percent" unicode="%" horiz-adv-x="1347" 
d="M94 -184h-53l1210 1710h56zM387 809q-106 0 -183 82t-77 203q0 133 86.5 219t208.5 86q106 0 183 -82t77 -203q0 -133 -86.5 -219t-208.5 -86zM397 838q73 0 117.5 79t44.5 181q0 63 -12.5 121.5t-47.5 104.5t-87 46q-73 0 -117.5 -79t-44.5 -181q0 -63 12.5 -121.5
t47.5 -104.5t87 -46zM926 -57q-106 0 -183 81.5t-77 202.5q0 133 86.5 219t208.5 86q106 0 183 -81.5t77 -202.5q0 -133 -86.5 -219t-208.5 -86zM936 -29q73 0 117.5 79t44.5 181q0 46 -8 91t-24 87.5t-46.5 68.5t-69.5 26q-73 0 -117.5 -79t-44.5 -181q0 -46 8 -91
t24 -87.5t46.5 -68.5t69.5 -26z" />
    <glyph glyph-name="ampersand" unicode="&#x26;" horiz-adv-x="1370" 
d="M836 1421q0 -71 -24.5 -138.5t-74.5 -133t-96.5 -114.5t-118.5 -115q68 -119 176 -273q214 -313 342 -448q185 177 185 428q0 79 -32 128.5t-63 49.5q-9 0 -20.5 -13.5t-28.5 -27.5t-39 -14q-37 0 -63.5 26.5t-26.5 63.5q0 46 29.5 80t85.5 34q77 0 138 -85.5t61 -219.5
q0 -282 -203 -475q113 -115 188 -115q57 0 105 45l14 -16q-95 -98 -194 -98q-101 0 -213 104q-195 -129 -435 -129q-228 0 -356.5 93.5t-128.5 269.5q0 61 24 125t56 113.5t88 110t95 96.5t102 91q-164 293 -164 492q0 82 28 150.5t73 112t98.5 67.5t105.5 24
q124 0 205.5 -77.5t81.5 -211.5zM592 569q-117 176 -166 262q-53 -51 -93.5 -97.5t-79.5 -106.5t-60 -128.5t-21 -140.5q0 -156 104 -258t269 -102q208 0 393 119q-140 137 -346 452zM332 1444q0 -197 172 -494q117 110 173 217t56 226q0 135 -57 208.5t-154 73.5
q-28 0 -59.5 -14t-61.5 -41t-49.5 -73t-19.5 -103z" />
    <glyph glyph-name="quotesingle" unicode="'" horiz-adv-x="286" 
d="M156 1290h-29q-6 61 -36 184.5t-30 145.5q0 43 24.5 66.5t59.5 23.5q33 0 56.5 -24t23.5 -66q0 -19 -31 -142.5t-38 -187.5z" />
    <glyph glyph-name="parenleft" unicode="(" horiz-adv-x="614" 
d="M252 657q0 -778 260 -1189l-31 -27q-67 98 -128 216t-120.5 273t-95 345t-35.5 382q0 193 35.5 383.5t95 346t120.5 273.5t128 216l31 -27q-127 -201 -193.5 -513t-66.5 -679z" />
    <glyph glyph-name="parenright" unicode=")" horiz-adv-x="614" 
d="M362 657q0 367 -66.5 679t-193.5 513l31 27q67 -98 128 -216t120.5 -273.5t95 -346t35.5 -383.5q0 -192 -35.5 -382t-95 -345t-120.5 -273t-128 -216l-31 27q260 411 260 1189z" />
    <glyph glyph-name="asterisk" unicode="*" horiz-adv-x="708" 
d="M616 1268q-39 -19 -225 -60q21 -17 65 -52t72 -57.5t37 -31.5q17 -17 17 -39q0 -25 -21 -39q-18 -18 -39 -18q-22 0 -39 20q-27 27 -129 203q-107 -181 -129 -203q-17 -20 -39 -20q-21 0 -39 18q-20 13 -20 39q0 23 16 39q22 24 172 141q-193 42 -223 60q-31 16 -31 43
q0 21 14 42t36 21q33 0 225 -129q-33 193 -33 234q0 24 14.5 38.5t40.5 14.5q27 0 42.5 -14.5t15.5 -38.5q0 -37 -41 -232q185 127 223 127q21 0 35 -21t14 -42q0 -27 -31 -43z" />
    <glyph glyph-name="plus" unicode="+" horiz-adv-x="886" 
d="M61 442v39h314v322l137 74v-396h313v-39h-313v-374h-137v374h-314z" />
    <glyph glyph-name="comma" unicode="," horiz-adv-x="335" 
d="M215 -12q-18 -6 -41 -6q-54 0 -83.5 29t-29.5 69q0 39 28.5 68.5t76.5 29.5q47 0 77.5 -31t30.5 -84q0 -75 -55 -164.5t-133 -156.5l-16 18q57 49 99.5 118t45.5 110z" />
    <glyph glyph-name="hyphen" unicode="-" horiz-adv-x="761" 
d="M121 514h579l-59 -104h-580z" />
    <glyph glyph-name="period" unicode="." horiz-adv-x="335" 
d="M168 178q44 0 75 -29.5t31 -68.5t-31 -67.5t-75 -28.5q-43 0 -75 29t-32 67t32 68t75 30z" />
    <glyph glyph-name="slash" unicode="/" horiz-adv-x="559" 
d="M-18 -535h-43l639 2417h43z" />
    <glyph glyph-name="zero" unicode="0" horiz-adv-x="1634" 
d="M817 -190q159 0 277.5 67t188.5 187.5t104 275t34 342.5q0 136 -21.5 258t-68.5 230t-116 186t-171 123t-227 45q-128 0 -229.5 -41.5t-171 -115t-115.5 -179.5t-67 -231.5t-21 -274.5q0 -132 20.5 -254.5t67.5 -236t115.5 -197.5t171.5 -134t229 -50zM799 -225
q-170 0 -312 75t-233.5 201t-142 288t-50.5 339q0 175 56 334.5t155 281t246 193.5t318 72q172 0 313 -72t232.5 -194t141.5 -280.5t50 -334.5q0 -140 -35 -273.5t-103.5 -247t-161 -199.5t-215 -134.5t-259.5 -48.5z" />
    <glyph glyph-name="one" unicode="1" horiz-adv-x="587" 
d="M109 1208l-27 29l252 289h53v-1671h119v-39h-363v39h117v1525z" />
    <glyph glyph-name="two" unicode="2" horiz-adv-x="1312" 
d="M168 1122q0 -62 24 -113t60 -51q13 0 27.5 13t36.5 26t51 13q36 0 63 -27t27 -61q0 -51 -43.5 -84t-108.5 -33q-91 0 -143.5 81.5t-52.5 196.5q0 99 41.5 190t112 157.5t168.5 106.5t206 40q116 0 211.5 -31.5t158.5 -84t106 -122.5t62 -144.5t19 -152.5
q0 -108 -41.5 -209t-114 -185.5t-161.5 -162t-194.5 -152t-201.5 -141t-194 -143.5t-162 -145q184 90 401 90q78 0 289.5 -18.5t255.5 -18.5q69 0 103.5 34t58.5 109l39 -14q-82 -276 -299 -276q-88 0 -344 40.5t-373 40.5q-88 0 -190 -65l-25 31q54 74 141.5 155.5
t177.5 151.5t189.5 148t185 159.5t155 170.5t110 197t40.5 224q0 220 -117.5 348.5t-310.5 128.5q-108 0 -208.5 -50t-168 -148t-67.5 -220z" />
    <glyph glyph-name="three" unicode="3" horiz-adv-x="1382" 
d="M270 1159h-41v426h39q23 -67 125 -67h703v-37l-344 -488q78 -9 152.5 -34t147 -72.5t127 -111.5t88 -158t33.5 -205q0 -178 -91.5 -325.5t-255 -233.5t-363.5 -86q-227 0 -378 142.5t-151 350.5q0 111 65.5 195t158.5 84q59 0 93 -30.5t34 -74.5q0 -39 -27.5 -69.5
t-75.5 -30.5q-29 0 -48 13t-31 25.5t-25 12.5q-37 0 -60.5 -48t-23.5 -110q0 -94 39 -175t103.5 -135t147 -84t169.5 -30q138 0 248.5 49.5t179.5 133.5t105 191.5t36 228.5q0 123 -27 220.5t-71 160t-105 103.5t-125 58t-135 17h-70l-12 24l342 492h-483q-40 0 -67 -6.5
t-52.5 -26.5t-40.5 -55t-24 -93.5t-9 -140.5z" />
    <glyph glyph-name="four" unicode="4" horiz-adv-x="1284" 
d="M31 211v39l901 1276h55v-1276h246v-39h-246v-356h121v-39h-377v39h119v356h-819zM82 250h768v1081z" />
    <glyph glyph-name="five" unicode="5" horiz-adv-x="1382" 
d="M1149 403q0 120 -28.5 219t-89.5 179.5t-167.5 126t-251.5 45.5q-73 0 -192 -20t-182 -44l-23 31l133 502q13 49 56.5 72.5t105.5 23.5q40 0 206 -19.5t316 -19.5q108 0 166 68l31 -21q-106 -113 -178.5 -148.5t-178.5 -35.5t-254 16.5t-153 16.5q-54 0 -78.5 -30.5
t-52.5 -133.5l-76 -279q96 29 203.5 43.5t173.5 14.5q315 0 490 -151t175 -445q0 -178 -91.5 -326t-255 -234.5t-363.5 -86.5q-227 0 -378 142.5t-151 350.5q0 111 65.5 195t158.5 84q59 0 93 -30.5t34 -74.5q0 -39 -27.5 -69.5t-75.5 -30.5q-29 0 -48 13t-31 25.5t-25 12.5
q-37 0 -60.5 -48t-23.5 -110q0 -94 39 -175t103.5 -135t147 -84t169.5 -30q138 0 248.5 49t179.5 133t105 191t36 227z" />
    <glyph glyph-name="six" unicode="6" horiz-adv-x="1331" 
d="M340 588l-21 28q77 64 187.5 107t230.5 43q128 0 231.5 -38t168.5 -102.5t99 -145.5t34 -171q0 -101 -38 -196.5t-109 -173t-183.5 -125t-249.5 -47.5q-97 0 -185.5 30t-166 93.5t-134.5 155t-89.5 222.5t-32.5 287q0 179 40.5 339t110.5 279t161.5 206.5t197 132
t213.5 44.5q98 0 180.5 -30t133 -77.5t78.5 -102.5t28 -109q0 -71 -41 -116.5t-86 -45.5q-44 0 -72.5 26.5t-28.5 69.5q0 28 16 51t34.5 35.5t34.5 29.5t16 34q0 89 -77 145t-220 56q-88 0 -172.5 -39.5t-157.5 -119.5t-128.5 -190.5t-87.5 -262t-32 -324.5
q0 -232 56.5 -408.5t169 -277.5t266.5 -101q83 0 153 27.5t117.5 74.5t80.5 109.5t48.5 131.5t15.5 143q0 87 -26.5 166t-76 142t-129 100.5t-177.5 37.5q-68 0 -133 -15.5t-114 -40.5t-79.5 -45.5t-54.5 -41.5z" />
    <glyph glyph-name="seven" unicode="7" horiz-adv-x="1120" 
d="M102 1098h-41v483h39q0 -98 41 -98q11 0 66 23.5t106 23.5q50 0 137 -21t188.5 -42t186.5 -21q68 0 144 19.5t137 52.5l14 -37q-130 -155 -213.5 -301t-143 -336.5t-85.5 -428t-27 -560.5h121v-39h-414v39h117q7 901 553 1579q-201 -91 -395 -91q-70 0 -210 18.5
t-179 18.5q-50 0 -83.5 -45t-46 -105.5t-12.5 -131.5z" />
    <glyph glyph-name="eight" unicode="8" horiz-adv-x="1316" 
d="M61 254q0 84 28.5 161.5t73 135.5t103.5 108t115 82.5t113 55.5q-131 63 -202 146.5t-71 215.5q0 175 138.5 290.5t334.5 115.5q118 0 218 -45.5t160.5 -132t60.5 -195.5q0 -124 -94 -230.5t-224 -162.5q55 -22 96 -41t89 -46t83 -54.5t69 -64.5t55.5 -77t34.5 -92
t13 -111q0 -99 -43 -196t-120 -175t-196.5 -126.5t-260.5 -48.5q-89 0 -172 18.5t-156.5 58t-128 96t-86 137.5t-31.5 177zM1155 229q0 66 -16.5 122.5t-42 98t-68 79.5t-83 64t-98.5 53.5t-103 45t-108.5 43t-103.5 43.5q-63 -21 -121 -63.5t-107 -104t-78 -146.5t-29 -181
q0 -130 55 -238t162 -174t245 -66q120 0 217.5 37.5t156.5 99.5t90.5 136t31.5 151zM299 1229q0 -45 12.5 -85.5t30 -70.5t51.5 -60t61 -49t76.5 -43.5t79 -37.5t87.5 -36.5t85 -35.5q228 124 228 379q0 143 -92.5 242.5t-245.5 99.5q-100 0 -185.5 -39.5t-136.5 -109.5
t-51 -154z" />
    <glyph glyph-name="nine" unicode="9" horiz-adv-x="1372" 
d="M584 561q-228 0 -365 125t-137 332q0 104 39.5 200.5t112 173.5t185 123t247.5 46q286 0 445 -221t159 -611q0 -223 -56.5 -407t-154 -304t-226 -185.5t-274.5 -65.5q-98 0 -182 30t-136.5 77.5t-82 103t-29.5 108.5q0 71 41 116.5t86 45.5q44 0 72 -26t28 -70
q0 -28 -15.5 -51t-34.5 -35.5t-34.5 -29.5t-15.5 -34q0 -87 84.5 -144t228.5 -57t253 65t177 187t102 290.5t34 381.5q0 69 -5.5 139t-20.5 150.5t-38 152.5t-60.5 139t-85 115.5t-115.5 77.5t-148 29q-209 0 -325 -138t-116 -352q0 -205 108 -323.5t279 -118.5
q128 0 239 47.5t165 95.5l20 -26q-79 -64 -199.5 -108t-248.5 -44z" />
    <glyph glyph-name="colon" unicode=":" horiz-adv-x="337" 
d="M168 178q44 0 75 -29.5t31 -68.5t-31 -67.5t-75 -28.5q-43 0 -75 29t-32 67t32 68t75 30zM170 803q44 0 75 -29.5t31 -68.5t-31 -68t-75 -29q-43 0 -75 29.5t-32 67.5t32 68t75 30z" />
    <glyph glyph-name="semicolon" unicode=";" horiz-adv-x="337" 
d="M170 803q44 0 75 -29.5t31 -68.5t-31 -68t-75 -29q-43 0 -75 29.5t-32 67.5t32 68t75 30zM215 -12q-18 -6 -41 -6q-54 0 -83.5 29t-29.5 69q0 39 28.5 68.5t76.5 29.5q47 0 77.5 -31t30.5 -84q0 -75 -55 -164.5t-133 -156.5l-16 18q57 49 99.5 118t45.5 110z" />
    <glyph glyph-name="less" unicode="&#x3c;" horiz-adv-x="741" 
d="M61 426v49l603 342l16 -33l-498 -282l498 -295l-72 -111z" />
    <glyph glyph-name="equal" unicode="=" horiz-adv-x="763" 
d="M135 657h567l-61 -106h-580zM135 375h567l-61 -107h-580z" />
    <glyph glyph-name="greater" unicode="&#x3e;" horiz-adv-x="741" 
d="M680 487v-49l-602 -342l-17 33l498 283l-498 295l72 110z" />
    <glyph glyph-name="question" unicode="?" horiz-adv-x="1460" 
d="M600 16h-41q0 89 34.5 175t89.5 158t121 145t132.5 149.5t121.5 157.5t89.5 183t34.5 212q0 114 -28.5 206t-87 162.5t-156.5 109t-230 38.5q-110 0 -203.5 -31.5t-151 -81t-89 -105.5t-31.5 -108q0 -15 16.5 -27.5t35.5 -22t35.5 -33t16.5 -58.5q0 -50 -32 -77t-78 -27
q-50 0 -87.5 42t-37.5 115q0 62 25.5 124.5t79 120t127.5 102t179.5 71.5t227.5 27q159 0 284.5 -41t203 -112.5t117.5 -163.5t40 -197q0 -108 -42 -210.5t-108.5 -185t-147.5 -162t-162 -156t-147.5 -152.5t-108.5 -165.5t-42 -181.5zM578 -133q44 0 75 -29.5t31 -68.5
t-31 -68t-75 -29q-43 0 -75 29.5t-32 67.5t32 68t75 30z" />
    <glyph glyph-name="at" unicode="@" horiz-adv-x="1769" 
d="M1237 653v-262q0 -230 13.5 -304.5t74.5 -74.5q28 0 61 17.5t70.5 60t67.5 103.5t49.5 158.5t19.5 213.5q0 335 -188 536.5t-490 201.5q-216 0 -384.5 -106.5t-261.5 -298.5t-93 -437q0 -232 93.5 -413t258 -279.5t371.5 -98.5q154 0 304 44.5t249 121.5l10 -26
q-97 -74 -261.5 -123t-313.5 -49q-174 0 -326 56.5t-265.5 159.5t-179 257.5t-65.5 339.5q0 255 116.5 457.5t317 313.5t445.5 111q218 0 397.5 -95.5t285 -270t105.5 -394.5q0 -113 -26 -211t-68.5 -166t-98 -117t-114.5 -72t-117 -23q-73 0 -121.5 44.5t-62.5 161.5
q-44 -92 -134 -149t-188 -57q-169 0 -278 127.5t-109 343.5q0 137 56.5 254.5t162 189.5t236.5 72q95 0 176.5 -31.5t134.5 -73.5q69 87 125 105l13 -23q-44 -30 -56 -91t-12 -204zM866 942q-45 0 -88 -13t-87.5 -46t-78 -83.5t-54.5 -132.5t-21 -186q0 -199 79.5 -326.5
t204.5 -127.5q53 0 103.5 22.5t91 62.5t65.5 102.5t25 135.5v377q0 25 -6 51.5t-23 56.5t-43 53t-69.5 38.5t-98.5 15.5z" />
    <glyph glyph-name="A" unicode="A" horiz-adv-x="1785" 
d="M975 1743l657 -2032h113v-39h-385v39h121l-516 1606q-52 162 -88 229l-316 -930h492l14 -38h-518l-248 -736q-14 -43 -14 -67q0 -64 106 -64h35v-39h-387v39q51 0 81.5 7t58.5 30t48.5 63t44.5 111l570 1671q-15 15 -29 15q-37 0 -90 -23l-14 31z" />
    <glyph glyph-name="B" unicode="B" horiz-adv-x="1607" 
d="M307 1675h432q139 0 247 -24t175 -63t109.5 -94t59 -110.5t16.5 -119.5q0 -42 -12 -87.5t-42 -97.5t-74.5 -96t-116.5 -82.5t-161 -58.5q140 -20 248.5 -63.5t174.5 -98.5t108.5 -124.5t58.5 -135.5t16 -137q0 -294 -220 -452.5t-650 -158.5h-635v39h117v1929h-111v35
h260zM459 858h268q218 0 342.5 103.5t124.5 285.5q0 191 -116 292t-353 101h-424v-1929h369q704 0 704 565q0 72 -13 136t-41.5 126.5t-79 112t-120.5 88t-171 59.5t-226 21h-264v39z" />
    <glyph glyph-name="C" unicode="C" horiz-adv-x="1728" 
d="M1618 1233h-41q-3 90 -37 164t-89 124t-129 84.5t-154.5 50t-166.5 15.5q-168 0 -308.5 -64.5t-243 -187t-159.5 -310t-57 -423.5q0 -235 58 -427t160 -318.5t241 -194.5t301 -68q218 0 396.5 103t269.5 254l37 -23q-104 -166 -295.5 -270t-439.5 -104q-261 0 -466 130.5
t-317 359t-112 513.5q0 176 37 329.5t102.5 269t154 206t193.5 148t218 87t230 29.5q226 0 443 -111q36 -18 59 -18t39.5 19.5t23.5 48.5t10 51.5t3 40.5h39v-508z" />
    <glyph glyph-name="D" unicode="D" horiz-adv-x="1789" 
d="M301 1636v-1925h281q161 0 295.5 26t234.5 72.5t178 115t129.5 148.5t84.5 177.5t47 198.5t14 215q0 192 -33 342t-107 270.5t-190 198.5t-284 119.5t-388 41.5h-262zM41 -289h117l2 1925h-119v39h520q593 0 875 -255.5t282 -762.5q0 -170 -41.5 -317t-130 -271
t-219 -211.5t-317.5 -136.5t-416 -49h-553v39z" />
    <glyph glyph-name="E" unicode="E" horiz-adv-x="1478" 
d="M41 -328v39h117l2 1925h-119v39h1188q105 0 129 68h39v-428h-41q0 89 -10.5 149t-27 94t-48 51.5t-60.5 22t-77 4.5h-832v-778h481q90 5 90 113h43l68 -400h-39q-20 65 -33.5 104.5t-30 69t-27 43t-32.5 21.5t-38 9t-52 1h-430v-1108h889q41 0 70.5 7t57 28.5t44 58.5
t26 99t9.5 149h41v-448h-39q-23 67 -142 67h-1216z" />
    <glyph glyph-name="F" unicode="F" horiz-adv-x="1376" 
d="M901 571h-39q-36 113 -60.5 164t-49.5 67.5t-70 16.5h-381v-1108h117v-39h-377v39h117l2 1925h-119v39h1126q105 0 129 68h39v-449h-41q0 92 -10.5 155t-27.5 99.5t-47.5 56.5t-60.5 25.5t-77 5.5h-770v-778h387q103 0 103 113h43z" />
    <glyph glyph-name="G" unicode="G" horiz-adv-x="2009" 
d="M1526 578v38h381v-38h-133l-2 -940h-39q0 191 -82 258q-279 -258 -682 -258q-262 0 -458 119.5t-300.5 339.5t-104.5 513q0 231 73 434t201 350t313 231.5t399 84.5q258 0 464 -111q36 -18 60 -18q23 0 39.5 19.5t23.5 48.5t10 51.5t3 40.5h39v-508h-41q0 29 -8 65.5
t-28.5 83t-51 89t-81 83t-112.5 66.5q-127 51 -297 51q-182 0 -339 -70t-271.5 -198t-180 -320.5t-65.5 -425.5q0 -232 61.5 -419.5t167 -306.5t242.5 -182.5t293 -63.5q348 0 622 247v646h-116z" />
    <glyph glyph-name="H" unicode="H" horiz-adv-x="1771" 
d="M1358 -328v39h115v1204h-1172v-1204h115v-39h-375v39h119v1925h-119v39h375v-39h-115v-682h1172v682h-115v39h373v-39h-117v-1925h117v-39h-373z" />
    <glyph glyph-name="I" unicode="I" horiz-adv-x="534" 
d="M82 1636v39h371v-39h-119v-1925h119v-39h-371v39h117v1925h-117z" />
    <glyph glyph-name="J" unicode="J" horiz-adv-x="1124" 
d="M715 1640v35h368v-35h-114l-2 -1386q0 -298 -139.5 -457t-378.5 -159q-89 0 -167.5 31t-130 78.5t-81 103.5t-29.5 108q0 55 33.5 92t77.5 37q46 0 75 -29t29 -73q0 -24 -12 -44t-26 -30.5t-26 -24.5t-12 -28q0 -20 5.5 -42.5t23.5 -50.5t46 -50t77.5 -37t113.5 -15
q195 0 288 129t93 408l2 1439h-114z" />
    <glyph glyph-name="K" unicode="K" horiz-adv-x="1644" 
d="M41 1636v39h377v-39h-117v-1925h117v-39h-377v39h117v1925h-117zM1143 1419l-367 -559q146 -7 246 -65t172 -181.5t127 -332.5q15 -57 32 -130.5t28.5 -124t26 -107.5t28 -93.5t30 -68.5t36.5 -47t44 -15q51 0 121 67l19 -20q-104 -104 -197 -104q-22 0 -41.5 5t-45.5 19
t-50 45t-50 78t-51.5 123.5t-48.5 175.5q-26 115 -44.5 189.5t-42 155t-43.5 129t-47 98t-55.5 76t-66 48.5t-81.5 30.5t-99 8.5h-264v43h262l381 584q69 105 69 137q0 29 -26 41t-92 12h-15v39h392v-39q-47 0 -85.5 -13t-73 -43.5t-62.5 -66t-66 -94.5z" />
    <glyph glyph-name="L" unicode="L" horiz-adv-x="1263" 
d="M41 -328v39h117v1925h-117v39h377v-39h-117v-1925h674q41 0 70.5 7t57 28.5t44 58.5t26 99t9.5 149h41v-448h-39q-23 67 -127 67h-1016z" />
    <glyph glyph-name="M" unicode="M" horiz-adv-x="1974" 
d="M41 -328v39q82 0 112.5 42.5t30.5 172.5v1669q-16 13 -32 13q-38 0 -91 -23l-14 31l248 127l725 -1563l657 1495h254l2 -39h-121v-1925h119v-39h-370v39h116v1850l-688 -1561h-49l-627 1354q-53 115 -84 172v-1600q0 -130 30 -172.5t114 -42.5v-39h-332z" />
    <glyph glyph-name="N" unicode="N" horiz-adv-x="1763" 
d="M41 -328v39q62 0 90.5 18.5t40.5 71t12 164.5v1628q-18 15 -32 15q-38 0 -91 -23l-14 31l229 127l1258 -1813v1452q0 112 -12 164.5t-40.5 71t-90.5 18.5v39h331v-39q-62 0 -90.5 -18.5t-40.5 -71t-12 -164.5v-1710h-45l-1206 1737q-7 10 -44.5 62.5t-54.5 74.5v-1581
q0 -112 12.5 -164.5t41 -71t90.5 -18.5v-39h-332z" />
    <glyph glyph-name="O" unicode="O" horiz-adv-x="2050" 
d="M1030 -326q169 0 313 70t248.5 198.5t164 319.5t59.5 422q0 217 -51.5 397.5t-148.5 312.5t-247 205.5t-338 73.5q-167 0 -311.5 -68.5t-252 -194t-169 -316.5t-61.5 -424q0 -215 53 -397t152 -315.5t250.5 -208.5t338.5 -75zM1001 -362q-142 0 -276 39.5t-253 122.5
t-207.5 200.5t-140.5 284t-52 362.5q0 127 28 254t81.5 245.5t137.5 221t189.5 179t244.5 120t296 43.5q142 0 276 -40t253 -123t207.5 -201t140.5 -285t52 -363q0 -157 -38 -308.5t-118.5 -287.5t-194 -239.5t-275 -164t-351.5 -60.5z" />
    <glyph glyph-name="P" unicode="P" horiz-adv-x="1646" 
d="M41 1675h717q174 0 313.5 -34.5t232 -93t155 -140.5t89.5 -173t27 -194q0 -180 -74 -322.5t-204 -233t-300.5 -138t-369.5 -47.5h-183v39h172q178 0 322.5 41.5t251.5 124t165 213.5t58 301q0 107 -17.5 195t-62 168t-115 135t-182 87.5t-256.5 32.5h-473v-1925h117v-39
h-383v39h117v1925h-117v39z" />
    <glyph glyph-name="Q" unicode="Q" horiz-adv-x="2091" 
d="M1001 -362q-139 0 -272 39.5t-252.5 123t-209.5 200.5t-142.5 284t-52.5 362q0 120 29 243.5t84.5 243t143 223.5t197.5 183t255.5 124.5t308.5 45.5q117 0 231 -30t217.5 -87.5t191 -147t152 -201t101 -257t36.5 -309.5q0 -135 -37 -272.5t-107 -264t-181 -234
t-250 -173.5q45 -44 63.5 -61.5t58 -54t63 -52t57.5 -36t64 -28.5t60 -8q78 0 160 82l19 -22q-133 -125 -254 -125q-59 0 -117.5 20t-114.5 59.5t-99.5 78t-98.5 94.5q-136 -43 -304 -43zM1047 -326q110 0 229 33q-60 64 -91 94t-80.5 72t-91.5 60t-83 18q-119 0 -232 -92
l-20 26q154 115 311 115q58 0 115 -18.5t112 -55.5t98 -72.5t99 -89.5q205 111 323.5 344t118.5 562q0 214 -56.5 398.5t-159 318t-254 210t-332.5 76.5q-133 0 -255 -43.5t-224.5 -130t-178 -207t-117.5 -284.5t-42 -353q0 -212 59 -394t164.5 -311t257.5 -202.5t330 -73.5
z" />
    <glyph glyph-name="R" unicode="R" horiz-adv-x="1644" 
d="M47 1636v39h692q139 0 247 -24t175 -63t109.5 -94t59 -110.5t16.5 -119.5q0 -43 -12 -89t-43 -98.5t-77 -97.5t-121 -83t-169 -58q143 -38 233 -163t156 -376q15 -56 32.5 -131.5t29.5 -127t27.5 -110.5t29.5 -97.5t31.5 -72t38 -49.5t44.5 -16q51 0 121 67l19 -20
q-104 -104 -197 -104q-22 0 -41.5 5t-45.5 19t-50 45t-50 78t-51.5 123.5t-48.5 175.5q-17 73 -44 200q-16 76 -23.5 111.5t-22 94.5t-24 84t-26.5 67t-32.5 59t-38.5 43t-48 35.5t-59 21.5t-73 15.5t-88 3.5h-264v43h268q219 0 343 102t124 283q0 389 -469 389h-424v-1925
h117v-39h-377v39h117v1925h-111z" />
    <glyph glyph-name="S" unicode="S" horiz-adv-x="1505" 
d="M72 174h37q0 -149 91 -264.5t237 -174.5t319 -59q268 0 420.5 138.5t152.5 357.5q0 77 -21.5 140.5t-68.5 112t-95 83.5t-127 67.5t-137.5 52.5t-151.5 49q-90 28 -136 43t-125.5 46t-122 57t-98 69t-83.5 88.5t-48.5 109t-20.5 137.5q0 153 82.5 272t219.5 181.5
t304 62.5q94 0 189 -25.5t155 -55.5t109.5 -55.5t63.5 -25.5q23 0 39.5 19.5t23.5 49t9.5 52.5t2.5 41h39v-510h-41q0 60 -33.5 144.5t-95.5 144.5q-80 78 -205.5 131t-248.5 53q-231 0 -375 -113t-144 -299q0 -97 43 -172.5t115.5 -125.5t167 -89.5t198.5 -72t208 -66
t198.5 -79t167 -103t115.5 -145t43 -199.5q0 -92 -28 -179.5t-85.5 -164.5t-137.5 -135t-192 -91.5t-241 -33.5q-78 0 -146 8.5t-126 27.5t-87.5 30.5t-79.5 37t-53 27.5q-48 24 -73 24q-37 0 -63 -52t-26 -103h-34v536z" />
    <glyph glyph-name="T" unicode="T" horiz-adv-x="1613" 
d="M1573 1286h-41q0 92 -10.5 155t-27.5 99.5t-47.5 56.5t-60.5 25.5t-77 5.5h-432l4 -1917h120v-39h-387v39h119l6 1917h-434q-47 0 -77 -5.5t-60.5 -25.5t-47.5 -56.5t-27.5 -99.5t-10.5 -155h-41v449h39q24 -68 141 -68h1172q117 0 141 68h39v-449z" />
    <glyph glyph-name="U" unicode="U" horiz-adv-x="1771" 
d="M1358 1636v39h373v-39h-117v-1183q0 -395 -180 -605t-547 -210q-365 0 -546 210t-181 605v1183h-119v39h375v-39h-115v-1181q0 -142 16 -255t56.5 -214.5t106 -168.5t168.5 -106t239 -39t239.5 41.5t168 111t105.5 171.5t57 213t16 246v1181h-115z" />
    <glyph glyph-name="V" unicode="V" horiz-adv-x="1667" 
d="M1389 1395l-558 -1700h-43l-628 1945h-119v35h381v-35h-113l553 -1714l484 1497q28 92 28 136q0 40 -27 58.5t-94 18.5h-14v39h387v-39q-96 0 -146.5 -59t-90.5 -182z" />
    <glyph glyph-name="W" unicode="W" horiz-adv-x="2379" 
d="M2099 1395l-555 -1700h-43l-334 1032l-336 -1032h-43l-628 1945h-119v35h381v-35h-113l553 -1714l283 873l-273 841h-118v35h381v-35h-113l197 -610l127 393q28 88 28 140q0 37 -27.5 55t-93.5 18h-14v39h387v-39q-98 0 -148 -56.5t-92 -184.5l-143 -439l332 -1030
l483 1497q29 95 29 136q0 40 -27 58.5t-94 18.5h-14v39h387v-39q-51 0 -89 -16.5t-66 -51t-47 -74.5t-38 -99z" />
    <glyph glyph-name="X" unicode="X" horiz-adv-x="1652" 
d="M131 1640v35h397v-35h-118l442 -788l360 621q48 84 48 110q0 32 -26 42.5t-99 10.5h-15v39h387v-39q-96 0 -144.5 -38t-129.5 -179l-354 -612l618 -1100h115v-35h-398v35h117l-536 957l-439 -760l-12 -19q-45 -83 -45 -121q0 -32 24.5 -42.5t96.5 -10.5h14v-39h-393v39
q95 0 150.5 47t142.5 199l436 752l-522 931h-117z" />
    <glyph glyph-name="Y" unicode="Y" horiz-adv-x="1540" 
d="M1499 1675v-39q-90 0 -135.5 -36t-93.5 -134l-443 -895l4 -860h121v-39h-387v39h119l6 803l-534 1126h-115v35h387v-35h-121l492 -1022l407 828q47 92 47 131q0 32 -28.5 45.5t-98.5 13.5h-14v39h387z" />
    <glyph glyph-name="Z" unicode="Z" horiz-adv-x="1517" 
d="M59 -328l-18 35l1223 1929h-883q-48 0 -77 -4.5t-60.5 -22t-48 -51.5t-27 -94t-10.5 -149h-41v428h39q24 -68 141 -68h1122l13 -39l-1219 -1925h999q47 0 77.5 5.5t61 25.5t47.5 56.5t27.5 99.5t10.5 155h41v-448h-39q-23 67 -131 67h-1248z" />
    <glyph glyph-name="bracketleft" unicode="[" horiz-adv-x="440" 
d="M102 1882h236v-35h-111l-2 -2347h113v-35h-236v2417z" />
    <glyph glyph-name="backslash" unicode="\" horiz-adv-x="559" 
d="M621 -535h-43l-639 2417h43z" />
    <glyph glyph-name="bracketright" unicode="]" horiz-adv-x="440" 
d="M102 1882h236v-2417h-236v35h113l-2 2347h-111v35z" />
    <glyph glyph-name="asciicircum" unicode="^" horiz-adv-x="581" 
d="M268 1333h45q36 -63 92.5 -131t114.5 -117l-12 -16q-121 59 -219 154q-91 -94 -215 -154l-13 16q58 49 114.5 117t92.5 131z" />
    <glyph glyph-name="underscore" unicode="_" horiz-adv-x="788" 
d="M31 -139h727v-41h-727v41z" />
    <glyph glyph-name="grave" unicode="`" horiz-adv-x="397" 
d="M336 1087l-12 -18q-127 56 -195 114t-68 97q0 22 15 37.5t39 15.5q25 0 41.5 -18t31.5 -55q18 -44 55.5 -93.5t92.5 -79.5z" />
    <glyph glyph-name="a" unicode="a" horiz-adv-x="970" 
d="M322 764q0 -40 -35.5 -69t-79.5 -29q-42 0 -70 23.5t-28 64.5q0 84 105.5 150.5t252.5 66.5q338 0 338 -291v-459q0 -172 65 -172q31 0 86 55l15 -16q-34 -33 -56.5 -51.5t-59.5 -35.5t-73 -17q-46 0 -77 41.5t-31 134.5v385q-481 -15 -481 -320q0 -92 46 -147t123 -55
q111 0 230 92l12 -23q-134 -108 -289 -108q-119 0 -191.5 56.5t-72.5 162.5q0 72 36.5 134t109.5 112.5t195 81.5t282 36v127q0 140 -45 194t-166 54q-81 0 -147 -27t-66 -57q0 -8 11 -15.5t25 -14t25 -23.5t11 -41z" />
    <glyph glyph-name="b" unicode="b" horiz-adv-x="1075" 
d="M227 104q-55 -93 -192 -120l-8 24q37 9 56 18.5t35.5 35.5t22.5 73.5t6 126.5v1600q0 119 -12 176t-41 57q-6 0 -18 -4l-45 -18l-4 26l243 135v-1337q148 74 295 74q207 0 328 -127.5t121 -329.5q0 -141 -65.5 -262t-184.5 -194.5t-264 -73.5q-181 0 -273 120zM270 862
v-592q1 -66 16 -114t37 -75t57 -42.5t67 -20t75 -4.5q148 0 247 128.5t99 355.5q0 213 -79 326.5t-230 113.5q-145 0 -289 -76z" />
    <glyph glyph-name="c" unicode="c" horiz-adv-x="958" 
d="M207 485q0 -89 20 -170.5t60 -149.5t107 -108.5t153 -40.5q103 0 196 39.5t154 94.5l18 -27q-60 -58 -165 -98.5t-211 -40.5q-132 0 -228.5 39t-149 106.5t-76.5 146t-24 170.5q0 154 65.5 274.5t176.5 185.5t248 65q77 0 136 -21.5t92 -56.5t49 -73.5t16 -78.5
q0 -55 -32 -93t-83 -38q-43 0 -70.5 27t-27.5 65q0 30 17 51t37 30.5t37 21.5t17 26q0 40 -49 75.5t-143 35.5q-148 0 -244 -119t-96 -338z" />
    <glyph glyph-name="d" unicode="d" horiz-adv-x="1130" 
d="M815 145v715q-140 78 -266 78q-94 0 -164.5 -39.5t-110.5 -106.5t-59.5 -146.5t-19.5 -168.5q0 -217 88 -333.5t237 -116.5q83 0 160.5 35.5t134.5 82.5zM815 111q-164 -127 -360 -127q-186 0 -295 123t-109 335q0 108 33 203t94.5 168t157.5 115.5t213 42.5
q114 0 266 -78v971q0 92 -5 143.5t-14 69.5t-24 18q-24 0 -74 -22l-6 24l250 135v-2044q0 -80 11.5 -117.5t45.5 -37.5q31 0 86 55l15 -16q-37 -36 -56 -52.5t-56 -34.5t-73 -18q-90 0 -100 144z" />
    <glyph glyph-name="e" unicode="e" horiz-adv-x="978" 
d="M895 582h-580v34h357q41 0 54 21t13 61q0 98 -56.5 170t-162.5 72q-65 0 -119.5 -25t-99 -76.5t-69.5 -141.5t-25 -210q0 -92 15.5 -166.5t43.5 -124.5t63 -86.5t78 -56t85 -28.5t88 -9q166 0 309 86l18 -26q-43 -25 -76 -41t-110.5 -33.5t-167.5 -17.5
q-64 0 -126.5 12.5t-130.5 46t-118.5 85t-83.5 137t-33 194.5q0 123 40.5 223.5t107.5 162t148.5 94t168.5 32.5q86 0 153.5 -25.5t107 -65t65 -93t34.5 -103t9 -102.5z" />
    <glyph glyph-name="f" unicode="f" horiz-adv-x="544" 
d="M45 920v34h129v205q0 217 76 332t203 115q58 0 95.5 -29t37.5 -80q0 -38 -31 -67t-74 -29q-42 0 -61 25t-19 53q0 19 10.5 40.5t10.5 24.5q0 9 -8 15t-17 6q-96 0 -96 -283v-328h174v-34h-174v-885h125v-35h-381v35h129v885h-129z" />
    <glyph glyph-name="g" unicode="g" horiz-adv-x="960" 
d="M438 -700q-89 0 -167.5 31t-129.5 78.5t-80.5 103.5t-29.5 108q0 55 33 92t77 37q46 0 75.5 -29t29.5 -73q0 -24 -12 -44t-26 -30.5t-26 -24.5t-12 -28q0 -20 5.5 -42.5t23.5 -50.5t46 -50t77.5 -37t113.5 -15q94 0 169 31t120 82.5t68.5 114t23.5 129.5
q0 138 -61.5 205.5t-169.5 93.5q-31 8 -70 16t-61 12.5t-47 11t-38.5 13.5t-26 17t-17 24t-4.5 33q0 54 63 159q-64 10 -119.5 34t-101 62t-72 96t-26.5 128q0 159 113.5 266t279.5 115q1 94 15.5 165.5t36 112t52 66t57 33.5t56.5 8q48 0 79 -26.5t31 -74.5
q0 -39 -27 -68.5t-71 -29.5q-26 0 -49 15.5t-37 15.5t-25 -2.5t-27.5 -14.5t-27.5 -33.5t-19 -64t-9 -100.5q172 -3 287.5 -102t115.5 -244q0 -80 -37 -149t-98 -115t-139 -72.5t-160 -26.5q-29 0 -43 2q-60 -94 -60 -149q0 -16 4.5 -27.5t16.5 -20t24 -14t35.5 -11
t42.5 -8.5t52.5 -9t58.5 -11q55 -11 99.5 -23.5t95 -37t84.5 -56t56.5 -80.5t22.5 -110q0 -72 -37.5 -144t-102.5 -130.5t-163.5 -95.5t-210.5 -37zM197 618q0 -76 19 -135.5t48 -95.5t68 -59.5t75 -32t72 -8.5q118 0 198.5 84t80.5 233q0 167 -79 253.5t-202 86.5
q-36 0 -71.5 -8.5t-74 -31.5t-67.5 -58.5t-48 -94t-19 -133.5z" />
    <glyph glyph-name="h" unicode="h" horiz-adv-x="1064" 
d="M655 0v35h127v604q0 154 -40.5 222.5t-123.5 68.5q-85 0 -182 -51t-155 -103v-741h116v-35h-360v35h117v1829q0 92 -5 143.5t-14 69.5t-24 18q-24 0 -74 -22l-6 24l250 135v-1415q213 156 364 156q262 0 262 -332v-606h111v-35h-363z" />
    <glyph glyph-name="i" unicode="i" horiz-adv-x="458" 
d="M55 0v35h119v571q0 92 -5 143.5t-14 70t-24 18.5q-22 0 -74 -23l-6 25l250 131v-936h117v-35h-363zM227 1290q41 0 71 -28.5t30 -65.5t-30 -64.5t-71 -27.5q-40 0 -70 27.5t-30 64.5t30 65.5t70 28.5z" />
    <glyph glyph-name="j" unicode="j" horiz-adv-x="444" 
d="M174 279v321q0 122 -8 178t-37 56q-23 0 -72 -23l-6 25l250 135v-1149q0 -70 -4 -127.5t-14 -122t-30 -113.5t-49.5 -90t-75.5 -62.5t-105 -21.5q-58 0 -96 29t-38 80q0 38 31 67t74 29q42 0 61 -25t19 -53q0 -19 -10.5 -40.5t-10.5 -24.5q0 -9 8.5 -15t20.5 -6
q18 0 34 8.5t32 29.5t26 65.5t10 107.5q0 6 -5 324t-5 418zM221 1290q41 0 71 -28.5t30 -65.5t-30 -64.5t-71 -27.5q-40 0 -70 27.5t-30 64.5t30 65.5t70 28.5z" />
    <glyph glyph-name="k" unicode="k" horiz-adv-x="1026" 
d="M281 2232v-2197h116v-35h-360v35h117v1829q0 92 -5 143.5t-14 69.5t-24 18q-24 0 -74 -22l-6 24zM866 197q6 -15 16.5 -40t16 -38.5t14 -32.5t14.5 -29t14 -20t15.5 -14.5t16.5 -4.5q17 0 35 9l8 -27q-46 -16 -90 -16q-64 0 -109.5 42.5t-85.5 137.5q-18 43 -46 114.5
t-44 111.5t-45 92t-58 79.5t-74.5 48t-101.5 21.5v20q25 55 65.5 109.5t93 102.5t119.5 78t134 30q75 0 115.5 -38.5t40.5 -98.5q0 -45 -31.5 -79t-79.5 -34q-39 0 -64.5 29.5t-25.5 62.5q0 29 15.5 56t15.5 28q0 14 -37 14q-96 0 -187.5 -78t-140.5 -178q80 -10 141 -35
t119 -77t109 -136.5t102 -209.5z" />
    <glyph glyph-name="l" unicode="l" horiz-adv-x="438" 
d="M281 2232v-2197h116v-35h-360v35h117v1829q0 92 -5 143.5t-14 69.5t-24 18q-24 0 -74 -22l-6 24z" />
    <glyph glyph-name="m" unicode="m" horiz-adv-x="1611" 
d="M621 0v35h127v676q0 93 -44.5 156t-119.5 63q-103 0 -291 -156v-739h113v-35h-365v35h125v563q0 92 -5 143.5t-14 69.5t-24 18q-24 0 -74 -22l-6 24l250 132v-148q202 158 330 158q90 0 149.5 -46.5t81.5 -107.5q196 154 334 154q60 0 105.5 -14t83 -47.5t57.5 -97.5
t20 -157v-622h113v-35h-363v35h125v604q0 291 -178 291q-111 0 -279 -137v-758h113v-35h-364z" />
    <glyph glyph-name="n" unicode="n" horiz-adv-x="1085" 
d="M676 0v35h125v583q0 161 -42.5 236.5t-135.5 75.5q-79 0 -168.5 -50t-161.5 -114v-731h113v-35h-365v35h125v573q0 92 -5 143.5t-14 70t-24 18.5q-22 0 -74 -23l-6 25l250 131v-166q199 166 364 166q139 0 205 -84.5t66 -270.5v-583h110v-35h-362z" />
    <glyph glyph-name="o" unicode="o" 
d="M508 14q148 0 231.5 109t83.5 342q0 221 -81.5 348t-235.5 127q-146 0 -232 -110t-86 -341q0 -221 82 -348t238 -127zM481 -16q-81 0 -155 28t-137 83t-100.5 149.5t-37.5 216.5q0 148 52.5 261.5t162.5 181t264 67.5q80 0 154.5 -28t137.5 -83t101 -150t38 -216
q0 -227 -124.5 -368.5t-355.5 -141.5z" />
    <glyph glyph-name="p" unicode="p" horiz-adv-x="1097" 
d="M162 -698v1370q0 71 -6.5 111t-16.5 52.5t-26 12.5q-22 0 -70 -21l-6 25l250 119v-142q90 71 173 106.5t179 35.5q102 0 180 -37t124.5 -101.5t69.5 -145.5t23 -175q0 -107 -35 -202t-99 -168t-163 -115.5t-219 -42.5q-116 0 -233 47v-361q0 -121 11 -177t42 -56
q6 0 18 4l45 16l7 -24zM610 938q-80 0 -167.5 -44t-155.5 -99v-723q49 -25 116.5 -40.5t116.5 -15.5q179 0 275 133t96 351t-76 328t-205 110z" />
    <glyph glyph-name="q" unicode="q" horiz-adv-x="1083" 
d="M948 653v-981q0 -135 8 -185t37 -50q7 0 12.5 1.5t9 2.5t17 7.5t23.5 10.5l6 -24l-236 -135v753q-141 -69 -311 -69q-219 0 -336 128t-117 345q0 227 135 370.5t353 143.5q215 0 332 -127q65 104 131 127l12 -23q-45 -31 -60.5 -95.5t-15.5 -199.5zM545 942
q-48 0 -93.5 -12.5t-91.5 -46t-80 -84.5t-55.5 -134.5t-21.5 -189.5q0 -96 18 -176t57 -145t106.5 -101.5t158.5 -36.5q156 0 282 74v576q0 276 -280 276z" />
    <glyph glyph-name="r" unicode="r" horiz-adv-x="1034" 
d="M885 203q42 -126 63 -158q21 -30 43 -31q17 0 35 9l8 -27q-61 -21 -96 -21q-64 0 -104 40t-72 137q-30 88 -62 144.5t-69.5 84t-73 36.5t-86.5 9h-70v25q138 0 209 28q168 68 168 248q0 85 -44.5 147t-137.5 62q-78 0 -159 -35.5t-146 -85.5v-780h112v-35h-358v35h119
v571q0 92 -5 143.5t-14 70t-24 18.5q-22 0 -74 -23l-6 25l250 131v-123q169 123 340 123q78 0 136 -21t89 -56t45 -73.5t14 -81.5q0 -119 -88.5 -195.5t-248.5 -103.5q122 -18 195.5 -71.5t111.5 -165.5z" />
    <glyph glyph-name="s" unicode="s" horiz-adv-x="847" 
d="M727 668h-37q0 122 -81.5 197t-209.5 75q-87 0 -151 -44t-64 -118q0 -42 26.5 -77t68.5 -58.5t96 -48t110.5 -45t110.5 -49.5t96 -61.5t68 -81.5t26 -109q0 -46 -20.5 -91t-60.5 -84.5t-108.5 -64t-154.5 -24.5q-74 0 -155 25.5t-101 25.5q-27 0 -42 -24.5t-15 -69.5h-35
v403h37q0 -46 3.5 -81t17.5 -77t38 -72.5t68 -56t104 -37.5q38 -6 74 -6q119 0 181.5 50.5t62.5 132.5q0 54 -33 97.5t-85.5 72.5t-116.5 55.5t-128 54t-116.5 60t-85.5 81.5t-33 111q0 93 90 167.5t223 74.5q74 0 148.5 -24.5t91.5 -24.5q27 0 42 24.5t15 69.5h35v-348z
" />
    <glyph glyph-name="t" unicode="t" horiz-adv-x="526" 
d="M25 915v39h153l2 273l127 80v-353h178v-39h-178l2 -694q0 -172 66 -172q31 0 86 55l14 -16q-34 -33 -56 -51t-59 -35.5t-73 -17.5q-46 0 -77.5 41.5t-31.5 134.5v755h-153z" />
    <glyph glyph-name="u" unicode="u" horiz-adv-x="1067" 
d="M461 20q73 0 160.5 50t150.5 116v500q0 91 -12 126.5t-45 35.5q-13 0 -70 -25l-6 25l262 123v-697q0 -90 10.5 -141t26.5 -66.5t41 -15.5t78 53l14 -16q-57 -55 -98.5 -79.5t-81.5 -24.5q-56 0 -86 44.5t-33 118.5q-66 -68 -163 -115.5t-189 -47.5q-42 0 -76.5 6
t-73.5 26t-65.5 53t-44 93t-17.5 141v340q0 195 -41 195q-23 0 -75 -23l-7 25l254 135v-680q0 -82 14 -138t40.5 -85t58 -40.5t74.5 -11.5z" />
    <glyph glyph-name="v" unicode="v" horiz-adv-x="919" 
d="M897 954v-34q-62 0 -93 -39t-75 -152l-280 -729h-46q-27 75 -60 171t-72 209t-58 167q-47 135 -79.5 202.5t-47.5 80t-35 12.5q-16 0 -65 -21l-13 25l213 125q32 -40 123.5 -301t163.5 -496l219 574q29 78 29 106q0 34 -27 49.5t-92 16.5v34h295z" />
    <glyph glyph-name="w" unicode="w" horiz-adv-x="1447" 
d="M1458 954v-34q-64 0 -94.5 -42t-82.5 -173q-3 -8 -5 -13l-264 -678l-2 -14h-45q-28 79 -191 547q-47 128 -57 153l-266 -686l-2 -14h-46q-27 75 -60 171t-72 209t-58 167q-47 135 -79.5 202.5t-47.5 80t-35 12.5q-16 0 -65 -21l-13 25l213 125q32 -40 123 -299t164 -496
l221 574q-19 40 -35 61.5t-25.5 26t-21.5 4.5q-16 0 -65 -21l-12 25l213 125q32 -40 122 -297.5t164 -497.5l219 569q29 76 29 109q0 34 -27 49.5t-92 16.5v34h295z" />
    <glyph glyph-name="x" unicode="x" horiz-adv-x="919" 
d="M20 0v35h15q62 3 107 42.5t118 149.5l146 222l-101 188q-41 77 -72 125.5t-51.5 68t-31.5 24.5t-23 5q-24 0 -78 -33l-14 17l205 127q14 -10 31.5 -33t71 -114t144.5 -257l134 203q51 75 51 102q0 28 -24.5 38t-80.5 10v34h291v-34q-52 0 -85.5 -20t-70.5 -77l-192 -293
q1 -2 4 -7q48 -93 270 -488h90v-35h-352v35h115l-209 377l-162 -250q-39 -63 -39 -92q0 -19 11.5 -26.5t44.5 -8.5h28v-35h-291z" />
    <glyph glyph-name="y" unicode="y" horiz-adv-x="892" 
d="M909 954v-34q-57 0 -90 -37t-59 -129l-221 -770q-24 -85 -42 -142t-41.5 -127t-43.5 -116.5t-45.5 -97t-51.5 -82t-57 -58.5t-66 -39t-75 -12q-78 0 -117 37t-39 90q0 59 36 90t75 31q34 0 61 -24t27 -62q0 -29 -14.5 -53.5t-14.5 -30.5q0 -23 16 -23q44 0 84.5 31.5
t73 82t67 135t62 169.5t62.5 205l10 35l-103 -29l-217 639q-41 122 -69 165.5t-60 43.5q-16 0 -65 -21l-12 25l213 125q15 -17 43 -85.5t65 -176.5t70.5 -211t77 -236t67.5 -205l201 695q14 49 14 86q0 36 -18.5 55t-40.5 23t-58 4v34h295z" />
    <glyph glyph-name="z" unicode="z" horiz-adv-x="876" 
d="M117 668h-37v348h35q0 -35 15.5 -48.5t49.5 -13.5h613l10 -32l-623 -887h424q86 0 128 59t42 193h37v-361h-35q0 37 -20.5 55.5t-87.5 18.5h-615l-12 35l621 885h-320q-60 0 -100 -9.5t-65 -26.5t-38 -49.5t-17.5 -70t-4.5 -96.5z" />
    <glyph glyph-name="braceleft" unicode="{" horiz-adv-x="671" 
d="M520 -508h49v-27h-47q-121 0 -187.5 72t-66.5 184q0 77 15.5 304t15.5 311q0 79 -12.5 138.5t-31.5 93t-47 54t-52 27.5t-54 8v33q30 1 54 8t52 28t47 54.5t31.5 93t12.5 138.5q0 84 -15.5 310.5t-15.5 303.5q0 112 66.5 184t187.5 72h47v-27h-49q-49 0 -81 -32t-42 -71
t-10 -83q0 -66 21.5 -298.5t21.5 -330.5q0 -154 -61 -245t-162 -121q101 -30 162 -121.5t61 -245.5q0 -98 -21.5 -330.5t-21.5 -298.5q0 -44 10 -83t42 -71t81 -32z" />
    <glyph glyph-name="bar" unicode="|" horiz-adv-x="286" 
d="M123 1882h41v-2417h-41v2417z" />
    <glyph glyph-name="braceright" unicode="}" horiz-adv-x="671" 
d="M102 -508h50q49 0 81 32t42 71t10 83q0 66 -21.5 298.5t-21.5 330.5q0 155 60.5 246t162.5 121q-102 30 -162.5 120.5t-60.5 245.5q0 98 21.5 330.5t21.5 298.5q0 44 -10 83t-42 71t-81 32h-50v27h48q121 0 187 -72t66 -184q0 -77 -15 -303.5t-15 -310.5q0 -98 17.5 -165
t49 -99t61.5 -44t68 -14v-33q-30 -1 -54 -8t-51.5 -27.5t-46.5 -54t-31.5 -93t-12.5 -138.5q0 -84 15 -311t15 -304q0 -112 -66 -184t-187 -72h-48v27z" />
    <glyph glyph-name="asciitilde" unicode="~" horiz-adv-x="759" 
d="M674 522l24 -24q-22 -27 -47 -52.5t-73 -55.5t-89 -30q-43 0 -145.5 48.5t-140.5 48.5q-61 0 -117 -60l-25 25q22 26 47 51.5t73 55.5t89 30q43 0 146 -48t141 -48q62 0 117 59z" />
    <glyph glyph-name="exclamdown" unicode="&#xa1;" horiz-adv-x="458" 
d="M211 1325h37q61 -1320 61 -1552q0 -57 -15.5 -79t-64.5 -22q-50 0 -66 22t-16 79q0 174 64 1552zM229 1475q-44 0 -75 29.5t-31 68.5t31 67.5t75 28.5q43 0 75 -29t32 -67t-32 -68t-75 -30z" />
    <glyph glyph-name="cent" unicode="&#xa2;" horiz-adv-x="1144" 
d="M598 -184h-35v239q-227 15 -364.5 184t-137.5 420q0 141 41 258t111.5 195.5t159.5 127t190 65.5v223h35v-219q46 4 68 4q99 0 177.5 -24.5t122 -62t65.5 -75t22 -70.5q0 -63 -34.5 -96t-88.5 -33q-42 0 -71.5 22t-29.5 62q0 26 9.5 44.5t20.5 26.5t20.5 22.5t9.5 33.5
q0 14 -15 32.5t-42.5 38t-76 33t-106.5 13.5q-15 0 -51 -4v-1172q18 -4 61 -4q71 0 139 20.5t118.5 52.5t84 61t56.5 57l26 -23q-25 -32 -62.5 -64.5t-97 -68t-144.5 -58t-181 -22.5v-239zM205 696q0 -232 95.5 -390.5t262.5 -194.5v1161q-50 -10 -95 -29.5t-95 -63
t-85.5 -104t-59 -158.5t-23.5 -221z" />
    <glyph glyph-name="sterling" unicode="&#xa3;" horiz-adv-x="1449" 
d="M252 520v37h188q-4 20 -19.5 94.5t-21 105.5t-15.5 88.5t-13.5 101t-3.5 85.5q0 150 69 264.5t184 173t257 58.5q159 0 272 -101t113 -258q0 -69 -20.5 -126t-52.5 -93t-72.5 -61.5t-78 -36t-71.5 -10.5q-67 0 -102.5 36t-35.5 83q0 40 26 70t73 30q33 0 55.5 -16
t30.5 -41q1 -3 4.5 -14t5 -14.5t6 -11.5t9 -11t12 -6t16.5 -3q67 0 112.5 71.5t45.5 147.5q0 145 -97.5 237.5t-253.5 92.5q-162 0 -272 -112.5t-110 -301.5q0 -58 9 -131.5t17 -118.5t28.5 -144t26.5 -128h230l-21 -37h-200q32 -174 32 -289q0 -108 -45 -196
q103 -28 166.5 -43.5t165.5 -31t193 -15.5q172 0 288 139l27 -23q-184 -245 -399 -245q-42 0 -88 7.5t-79 16t-85 29t-74 30t-81.5 37.5t-74.5 35q-55 -73 -135.5 -114t-173.5 -41q-81 0 -129.5 39.5t-48.5 93.5q0 62 63.5 101.5t159.5 39.5q74 0 213 -33q15 69 15 131
q0 117 -43 332h-197zM217 -152q45 0 86 11.5t85.5 47t70.5 93.5q-133 53 -232 53q-65 0 -107 -29t-42 -75q0 -39 37 -70t102 -31z" />
    <glyph glyph-name="currency" unicode="&#xa4;" horiz-adv-x="772" 
d="M379 195q-107 0 -186 73q-5 -9 -12 -21.5t-11 -19.5t-10 -17t-9.5 -15.5t-8 -12t-8.5 -10t-8 -6.5t-8.5 -4.5t-8.5 -1.5q-18 0 -33 14.5t-15 28.5q0 11 8 23t28 27t30.5 22t36.5 24q-55 71 -55 168q0 118 61 201q-102 63 -102 96q0 14 14.5 28.5t32.5 14.5q6 0 11 -2
t11 -8t10 -11t11 -16.5t11.5 -19.5t14 -25t15.5 -27q74 74 184 74q120 0 197 -74q31 60 48 84.5t36 24.5q18 0 32.5 -14.5t14.5 -28.5q0 -33 -105 -98q56 -75 56 -174q0 -110 -60 -193q26 -17 36.5 -24t30.5 -22t28 -27t8 -23q0 -14 -15 -28.5t-33 -14.5q-19 0 -36.5 23.5
t-49.5 82.5q-77 -71 -192 -71zM377 217q30 0 59 13.5t56.5 42.5t44 83.5t16.5 128.5q0 61 -15 117.5t-53 101t-94 48.5q-76 0 -126 -77t-50 -188q0 -42 8.5 -85.5t26 -85t50.5 -69t77 -30.5z" />
    <glyph glyph-name="yen" unicode="&#xa5;" horiz-adv-x="1292" 
d="M918 1233q-88 -177 -161.5 -410.5t-82.5 -363.5h264l-20 -37h-246v-162h266l-20 -37h-246v-373h116v-34h-360v34h117v373h-234v37h234q0 116 -4 162h-230v37h226q-14 108 -54 243.5t-90 256t-100.5 223.5t-90.5 164t-55 61q-11 0 -24 -5t-20 -9t-23 -15.5t-19 -13.5
l-20 18l188 146q36 -36 90.5 -125t116.5 -216t119.5 -301.5t87.5 -348.5q25 149 97.5 366.5t162.5 390.5q55 109 112.5 171.5t127.5 62.5q46 0 77 -28t31 -77t-28.5 -76.5t-63.5 -27.5q-45 0 -65 39q-2 4 -6 18.5t-9 21.5t-14 7q-28 0 -67.5 -47.5t-79.5 -124.5z" />
    <glyph glyph-name="brokenbar" unicode="&#xa6;" horiz-adv-x="286" 
d="M123 1882h41v-1071h-41v1071zM123 537h41v-1072h-41v1072z" />
    <glyph glyph-name="section" unicode="&#xa7;" horiz-adv-x="907" 
d="M717 1571q0 53 -58.5 98t-162.5 45q-125 0 -200 -58t-75 -151q0 -44 27 -84t71 -70.5t100 -62.5t114.5 -59.5t114.5 -62.5t100 -70t71 -82.5t27 -100.5q0 -81 -62 -172t-149 -168q95 -56 148 -118t53 -144q0 -138 -122.5 -242t-295.5 -104q-160 0 -255 78.5t-95 177.5
q0 55 33.5 91t86.5 36q37 0 62.5 -21.5t25.5 -56.5q0 -26 -16 -44t-35 -24.5t-35 -16t-16 -21.5q0 -28 13 -55.5t40 -53.5t77.5 -42.5t115.5 -16.5q130 0 220.5 68.5t90.5 179.5q0 61 -37 112.5t-96 89t-130.5 72t-143 69.5t-130.5 74t-96 93t-37 118q0 84 66.5 174
t173.5 168q-180 111 -180 240q0 122 111.5 205.5t265.5 83.5q134 0 212 -60.5t78 -140.5q0 -55 -32 -93t-86 -38q-31 0 -55.5 17t-24.5 47q0 35 27 55t59 20q17 0 29 6t12 15zM164 938q0 -39 20.5 -75t51.5 -63t80.5 -57.5t92.5 -51.5t104.5 -52t100.5 -53q61 61 95 135.5
t34 142.5q0 43 -24.5 81t-73 72.5t-94.5 60.5t-116 62.5t-111 61.5q-160 -139 -160 -264z" />
    <glyph glyph-name="dieresis" unicode="&#xa8;" horiz-adv-x="548" 
d="M406 1239q33 0 57 -22.5t24 -55.5q0 -29 -24.5 -51.5t-56.5 -22.5t-56 22.5t-24 51.5q0 33 23.5 55.5t56.5 22.5zM141 1239q33 0 57.5 -22.5t24.5 -55.5q0 -29 -25 -51.5t-57 -22.5t-56 22.5t-24 51.5q0 33 23.5 55.5t56.5 22.5z" />
    <glyph glyph-name="copyright" unicode="&#xa9;" horiz-adv-x="1472" 
d="M61 657q0 137 53.5 262.5t143.5 216t215 144t262 53.5t262.5 -53.5t216 -144t144 -216t53.5 -262.5q0 -183 -90.5 -338t-246 -245t-339.5 -90t-339 90t-245 245t-90 338zM104 657q0 -174 83.5 -320.5t229.5 -232.5t320 -86q129 0 246 50.5t201 136.5t134 204t50 248
q0 173 -84 320.5t-229.5 234t-317.5 86.5q-174 0 -320 -86.5t-229.5 -233.5t-83.5 -321zM1038 844h-37q0 85 -47.5 144t-167.5 85q-32 4 -51 4q-53 0 -104 -25.5t-95 -74.5t-71 -132.5t-27 -189.5q0 -111 34 -206t108 -157.5t176 -62.5q97 0 181.5 36t143.5 89l19 -30
q-56 -54 -155 -94t-197 -40q-94 0 -170 25.5t-126.5 68t-84.5 102t-49 124.5t-15 137q0 202 115.5 331.5t312.5 129.5q92 0 180 -43q21 -6 35 -6q26 0 42 20.5t16 53.5h34v-289z" />
    <glyph glyph-name="ordfeminine" unicode="&#xaa;" horiz-adv-x="669" 
d="M158 1438q0 -13 20.5 -25t20.5 -35q0 -24 -21.5 -40.5t-50.5 -16.5q-72 0 -72 61q0 59 73 102.5t165 43.5q26 0 51 -4t57 -18.5t55 -38t39.5 -66t16.5 -98.5v-297q0 -32 6 -49.5t12.5 -21t16.5 -3.5q38 0 65 37l17 -13q-22 -27 -61.5 -50t-78.5 -23q-38 0 -63 28.5
t-25 89.5v261q-123 -4 -184 -56.5t-61 -146.5q0 -68 25 -103.5t63 -35.5q54 0 104 24l8 -18q-81 -43 -163 -43q-67 0 -106.5 44.5t-39.5 114.5q0 108 102.5 170.5t251.5 67.5v23q0 116 -24.5 160t-87.5 44q-50 0 -90.5 -21t-40.5 -48zM41 739v33h555v-33h-555z" />
    <glyph glyph-name="guillemotleft" unicode="&#xab;" horiz-adv-x="491" 
d="M41 430v62q156 133 246 272l24 -16q-64 -131 -172 -271v-33q109 -142 172 -270l-24 -16q-90 139 -246 272zM209 436v49q47 43 104 115.5t93 142.5l24 -16q-55 -135 -139 -266q84 -131 139 -266l-24 -17q-36 70 -93 142.5t-104 115.5z" />
    <glyph glyph-name="logicalnot" unicode="&#xac;" horiz-adv-x="974" 
d="M61 442v39h852v-325l-137 -88v374h-715z" />
    <glyph glyph-name="registered" unicode="&#xae;" horiz-adv-x="1601" 
d="M53 1130q0 180 126.5 307.5t303.5 127.5q180 0 307.5 -127.5t127.5 -307.5q0 -173 -123 -299q15 -41 35.5 -104t35 -108t36.5 -102t42 -97.5t50 -82t62 -67t76 -41.5t95 -16q122 0 192 60.5t70 132.5q0 40 -12 40q-3 0 -15 -2t-18 -2q-21 0 -35 12.5t-14 34.5
q0 27 19 44.5t46 17.5q35 0 57.5 -25.5t22.5 -76.5q0 -36 -17.5 -77.5t-52.5 -83.5t-101.5 -70t-151.5 -28q-61 0 -116 19.5t-97 49.5t-81 78.5t-66.5 95t-55 110.5t-44.5 113t-38 114q-106 -70 -236 -70q-177 0 -303.5 126.5t-126.5 303.5zM397 1407h107q194 0 194 -137
q0 -44 -36.5 -87t-114.5 -57q85 -14 147 -94q40 -54 86 -166q97 111 97 267q0 163 -115 279t-277 116q-161 0 -275 -116t-114 -279q0 -162 114 -278t275 -116q130 0 224 66q-53 173 -82 227q-25 45 -51 61.5t-76 16.5h-56v20h45q45 0 83 39.5t38 96.5q0 54 -30.5 87
t-116.5 33h-68v-501h47v-21h-180v21h53v501h-51v21h133z" />
    <glyph glyph-name="macron" unicode="&#xaf;" horiz-adv-x="561" 
d="M61 1212h439v-61h-439v61z" />
    <glyph glyph-name="degree" unicode="&#xb0;" horiz-adv-x="516" 
d="M61 1407q0 84 58 141.5t139 57.5q79 0 138 -58t59 -141t-58.5 -140t-138.5 -57q-81 0 -139 56.5t-58 140.5zM115 1405q0 -60 41.5 -104t99.5 -44q60 0 101.5 44t41.5 104q0 62 -41.5 106.5t-101.5 44.5q-58 0 -99.5 -44.5t-41.5 -106.5z" />
    <glyph glyph-name="plusminus" unicode="&#xb1;" horiz-adv-x="761" 
d="M80 545v41h231v217l138 74v-291h231v-41h-231v-273h-138v273h-231zM121 170h579l-59 -104h-580z" />
    <glyph glyph-name="twosuperior" unicode="&#xb2;" horiz-adv-x="692" 
d="M135 1329q0 -55 23 -55q7 0 22 12t33 12q24 0 40.5 -13t16.5 -42q0 -27 -20.5 -47t-56.5 -20q-45 0 -72 41t-27 96q0 93 72 159t176 66q125 0 191.5 -70.5t66.5 -169.5q0 -58 -25.5 -111.5t-65.5 -94t-94.5 -83t-105 -75t-105.5 -73t-89 -73.5q120 58 213 58
q39 0 108 -7.5t94 -7.5q23 0 45.5 15t30.5 43l25 -10q-16 -55 -52 -99.5t-92 -44.5q-41 0 -150.5 21.5t-156.5 21.5q-48 0 -104 -37l-15 19q31 45 89 97.5t113 97.5t107.5 97.5t84.5 117.5t32 137q0 93 -44.5 147.5t-118.5 54.5t-131.5 -49t-57.5 -131z" />
    <glyph glyph-name="threesuperior" unicode="&#xb3;" horiz-adv-x="675" 
d="M137 1358h-26v190h24q11 -28 64 -28h336v-25l-156 -215q96 -16 165.5 -81t69.5 -181q0 -123 -87.5 -207t-223.5 -84q-103 0 -172.5 66t-69.5 159q0 54 30 96t75 42q34 0 53 -18t19 -46q0 -25 -17.5 -41t-40.5 -16q-18 0 -33 11t-22 11q-23 0 -23 -55q0 -82 57.5 -131
t131.5 -49q105 0 163 75.5t58 192.5q0 58 -12.5 102.5t-30.5 69.5t-43 40.5t-45.5 20.5t-42.5 5h-51l-4 18l147 215h-207q-45 -3 -65.5 -31.5t-20.5 -105.5z" />
    <glyph glyph-name="acute" unicode="&#xb4;" horiz-adv-x="397" 
d="M74 1069l-13 18q55 30 92.5 79.5t55.5 93.5q29 73 74 73q24 0 38.5 -15.5t14.5 -37.5q0 -39 -67.5 -97t-194.5 -114z" />
    <glyph glyph-name="mu" unicode="&#xb5;" horiz-adv-x="1185" 
d="M174 279v321q0 122 -8 178t-37 56q-23 0 -72 -23l-6 25l250 135v-207q0 -124 23 -220.5t58.5 -153.5t84.5 -94t95 -50t95 -13q114 0 236 62v659h244v-34h-113v-699q0 -81 12.5 -126.5t48.5 -45.5q31 0 86 55l15 -16q-36 -35 -56 -52t-56.5 -34.5t-72.5 -17.5
q-46 0 -77 41.5t-31 134.5v96q-120 -57 -236 -57q-56 0 -107 14t-99 44t-87 83t-63 125v-643q0 -70 -4 -127.5t-14 -122t-30 -113.5t-49.5 -90t-75.5 -62.5t-105 -21.5q-58 0 -96 29t-38 80q0 38 31 67t74 29q42 0 61 -25t19 -53q0 -19 -10.5 -40.5t-10.5 -24.5
q0 -9 8.5 -15t20.5 -6q18 0 34 8.5t32 29.5t26 65.5t10 107.5q0 6 -5 324t-5 418z" />
    <glyph glyph-name="paragraph" unicode="&#xb6;" horiz-adv-x="1415" 
d="M999 1401h-20v-1546h108v-39h-249v1585h-146v-1585h-188v39q57 0 85.5 15t43 59t14.5 132v574h-117q-237 0 -353 101.5t-116 291.5q0 87 27 160t82 130t147 89.5t213 32.5h449q254 0 254 78q0 8 -11.5 15t-24.5 13.5t-24.5 25t-11.5 46.5q0 40 32.5 66t76.5 26t74 -31
t30 -80q0 -28 -9 -53.5t-35 -52.5t-66 -46.5t-108.5 -32.5t-156.5 -13z" />
    <glyph glyph-name="periodcentered" unicode="&#xb7;" horiz-adv-x="335" 
d="M168 559q44 0 75 -29.5t31 -68.5t-31 -67.5t-75 -28.5q-43 0 -75 29t-32 67t32 68t75 30z" />
    <glyph glyph-name="cedilla" unicode="&#xb8;" horiz-adv-x="360" 
d="M133 4h23q-1 -4 -6 -19t-8 -29t-3 -26q0 -25 25 -34q10 -4 31 -11t37 -13t33 -15.5t26.5 -24.5t9.5 -35q0 -39 -38 -63.5t-93 -24.5q-53 0 -109 29l13 20q35 -10 65 -10q25 0 45.5 12.5t20.5 36.5q0 8 -2 14.5t-7 13t-8.5 10.5t-12 10t-12.5 8.5t-14.5 8t-13.5 7.5
q-26 16 -26 47q0 23 24 88z" />
    <glyph glyph-name="onesuperior" unicode="&#xb9;" horiz-adv-x="456" 
d="M84 1300l-23 25l177 203h38v-760h103v-29h-303v29h102v639z" />
    <glyph glyph-name="ordmasculine" unicode="&#xba;" horiz-adv-x="647" 
d="M41 739v33h555v-33h-555zM307 881q-109 0 -186.5 84.5t-77.5 228.5q0 157 87.5 245.5t211.5 88.5q109 0 186.5 -85t77.5 -229q0 -80 -24.5 -144t-66.5 -105t-95.5 -62.5t-112.5 -21.5zM317 907q93 0 135 69.5t42 221.5t-34.5 228.5t-127.5 76.5t-134.5 -70.5
t-41.5 -222.5t34 -227.5t127 -75.5z" />
    <glyph glyph-name="guillemotright" unicode="&#xbb;" horiz-adv-x="491" 
d="M451 492v-62q-156 -133 -246 -272l-25 16q63 128 172 270v33q-108 140 -172 271l25 16q90 -139 246 -272zM283 485v-49q-47 -43 -104 -115.5t-93 -142.5l-25 17q53 131 140 266q-87 135 -140 266l25 16q36 -70 93 -142.5t104 -115.5z" />
    <glyph glyph-name="onequarter" unicode="&#xbc;" horiz-adv-x="1388" 
d="M692 -14v28l418 588h37v-588h123v-28h-123v-146h63v-28h-231v28h63v146h-350zM115 -184h-54l1211 1710h55zM731 14h311v439zM104 1300l-22 25l176 203h39v-760h102v-29h-303v29h103v639z" />
    <glyph glyph-name="onehalf" unicode="&#xbd;" horiz-adv-x="1466" 
d="M909 406q0 -56 23 -56q7 0 22 12.5t33 12.5q24 0 40.5 -13.5t16.5 -42.5q0 -27 -20.5 -47t-56.5 -20q-45 0 -72 41t-27 96q0 93 72 159t176 66q126 0 192 -70t66 -169q0 -58 -25.5 -111.5t-65.5 -94t-94.5 -83t-105 -75t-105.5 -73t-89 -73.5q117 57 213 57
q39 0 108.5 -7t94.5 -7q23 0 45 14.5t30 42.5l25 -10q-16 -55 -51.5 -99t-91.5 -44q-41 0 -151 21.5t-157 21.5q-48 0 -104 -37l-14 18q31 45 89 97.5t113 97.5t107.5 97.5t84.5 117.5t32 137q0 93 -45 148t-119 55t-131.5 -49t-57.5 -131zM115 -184h-54l1211 1710h55z
M104 1300l-22 25l176 203h39v-760h102v-29h-303v29h103v639z" />
    <glyph glyph-name="threequarters" unicode="&#xbe;" horiz-adv-x="1409" 
d="M713 -14v28l417 588h37v-588h123v-28h-123v-146h64v-28h-232v28h64v146h-350zM137 1358h-26v190h24q11 -28 64 -28h336v-25l-156 -215q96 -16 165.5 -81t69.5 -181q0 -123 -87.5 -207t-223.5 -84q-103 0 -172.5 66t-69.5 159q0 54 30 96t75 42q34 0 53 -18t19 -46
q0 -25 -17.5 -41t-40.5 -16q-18 0 -33 11t-22 11q-23 0 -23 -55q0 -82 57.5 -131t131.5 -49q105 0 163 75.5t58 192.5q0 58 -12.5 102.5t-30.5 69.5t-43 40.5t-45.5 20.5t-42.5 5h-51l-4 18l147 215h-192q-53 0 -77 -27t-24 -110zM135 -184h-53l1210 1710h56zM752 14h311
v439z" />
    <glyph glyph-name="questiondown" unicode="&#xbf;" horiz-adv-x="1460" 
d="M860 1399h41q0 -89 -34.5 -175t-89 -158t-121 -145t-133 -149.5t-121 -157.5t-89 -183t-34.5 -212q0 -114 28 -206t86.5 -162.5t156.5 -109t230 -38.5q110 0 203.5 31.5t151 81t89 105.5t31.5 108q0 15 -16.5 27.5t-35.5 22t-35.5 33t-16.5 58.5q0 50 32.5 77t78.5 27
q50 0 87 -41.5t37 -115.5q0 -62 -25.5 -124.5t-78.5 -120t-127 -102t-179.5 -71.5t-227.5 -27q-159 0 -284.5 41t-203.5 112.5t-118 163.5t-40 197q0 108 42 210.5t108.5 185t147.5 162t162 156t147.5 152.5t108.5 165.5t42 181.5zM883 1548q-44 0 -75.5 30t-31.5 69
t31.5 67.5t75.5 28.5q43 0 74.5 -29t31.5 -67q0 -39 -32 -69t-74 -30z" />
    <glyph glyph-name="Agrave" unicode="&#xc0;" horiz-adv-x="1785" 
d="M975 1743l657 -2032h113v-39h-385v39h121l-516 1606q-52 162 -88 229l-316 -930h492l14 -38h-518l-248 -736q-14 -43 -14 -67q0 -64 106 -64h35v-39h-387v39q51 0 81.5 7t58.5 30t48.5 63t44.5 111l570 1671q-15 15 -29 15q-37 0 -90 -23l-14 31zM969 1860l-13 -19
q-127 56 -194.5 114t-67.5 97q0 22 15 37.5t39 15.5q25 0 41.5 -18t31.5 -55q18 -44 55.5 -93t92.5 -79z" />
    <glyph glyph-name="Aacute" unicode="&#xc1;" horiz-adv-x="1785" 
d="M975 1743l657 -2032h113v-39h-385v39h121l-516 1606q-52 162 -88 229l-316 -930h492l14 -38h-518l-248 -736q-14 -43 -14 -67q0 -64 106 -64h35v-39h-387v39q51 0 81.5 7t58.5 30t48.5 63t44.5 111l570 1671q-15 15 -29 15q-37 0 -90 -23l-14 31zM870 1841l-12 19
q55 30 92.5 79t55.5 93q15 37 31.5 55t41.5 18q24 0 39 -15.5t15 -37.5q0 -39 -68 -97t-195 -114z" />
    <glyph glyph-name="Acircumflex" unicode="&#xc2;" horiz-adv-x="1785" 
d="M975 1743l657 -2032h113v-39h-385v39h121l-516 1606q-52 162 -88 229l-316 -930h492l14 -38h-518l-248 -736q-14 -43 -14 -67q0 -64 106 -64h35v-39h-387v39q51 0 81.5 7t58.5 30t48.5 63t44.5 111l570 1671q-15 15 -29 15q-37 0 -90 -23l-14 31zM891 2105h45
q36 -62 92.5 -130t114.5 -117l-13 -17q-121 59 -219 154q-91 -94 -215 -154l-12 17q58 49 114.5 117t92.5 130z" />
    <glyph glyph-name="Atilde" unicode="&#xc3;" horiz-adv-x="1785" 
d="M975 1743l657 -2032h113v-39h-385v39h121l-516 1606q-52 162 -88 229l-316 -930h492l14 -38h-518l-248 -736q-14 -43 -14 -67q0 -64 106 -64h35v-39h-387v39q51 0 81.5 7t58.5 30t48.5 63t44.5 111l570 1671q-15 15 -29 15q-37 0 -90 -23l-14 31zM1059 1962q20 0 48 13.5
t48 33.5l19 -18q-23 -34 -78.5 -74.5t-100.5 -40.5q-33 0 -97.5 33t-104.5 33q-20 0 -48.5 -14t-48.5 -34l-18 19q24 34 78.5 74.5t99.5 40.5q33 0 98 -33t105 -33z" />
    <glyph glyph-name="Adieresis" unicode="&#xc4;" horiz-adv-x="1785" 
d="M975 1743l657 -2032h113v-39h-385v39h121l-516 1606q-52 162 -88 229l-316 -930h492l14 -38h-518l-248 -736q-14 -43 -14 -67q0 -64 106 -64h35v-39h-387v39q51 0 81.5 7t58.5 30t48.5 63t44.5 111l570 1671q-15 15 -29 15q-37 0 -90 -23l-14 31zM1044 2011
q33 0 57.5 -22.5t24.5 -55.5q0 -29 -25 -51t-57 -22t-55.5 22t-23.5 51q0 33 23 55.5t56 22.5zM780 2011q33 0 57.5 -22.5t24.5 -55.5q0 -29 -25 -51t-57 -22t-56 22t-24 51q0 33 23.5 55.5t56.5 22.5z" />
    <glyph glyph-name="Aring" unicode="&#xc5;" horiz-adv-x="1785" 
d="M975 1743l657 -2032h113v-39h-385v39h121l-516 1606q-52 162 -88 229l-316 -930h492l14 -38h-518l-248 -736q-14 -43 -14 -67q0 -64 106 -64h35v-39h-387v39q51 0 81.5 7t58.5 30t48.5 63t44.5 111l570 1671q-15 15 -29 15q-37 0 -90 -23l-14 31zM807 1954q0 50 36 83.5
t83 33.5q48 0 81 -33.5t33 -83.5q0 -46 -33.5 -79.5t-82.5 -33.5q-51 0 -84 32t-33 81zM842 1954q0 -36 23 -60t61 -24q34 0 57 24.5t23 59.5q0 37 -23 61.5t-57 24.5q-37 0 -60.5 -24t-23.5 -62z" />
    <glyph glyph-name="AE" unicode="&#xc6;" horiz-adv-x="2281" 
d="M41 -328v39q94 0 155 54.5t128 191.5l741 1518q25 55 25 88q0 67 -89 73h-14v39h1032q118 0 142 68h39v-428h-41q0 82 -9.5 140.5t-25.5 93t-42.5 54.5t-54 26.5t-67.5 6.5h-672v-901h359q90 5 90 113h43l67 -399h-39q-27 86 -45.5 132.5t-40 73.5t-42 34t-56.5 7h-336
v-985h688q47 0 77.5 5.5t61 25.5t47.5 56.5t27.5 99.5t10.5 155h41v-448h-39q-23 67 -131 67h-1043v39h117v985h-406l-368 -757q-58 -114 -58 -160q0 -68 129 -68h15v-39h-416zM758 735h387l2 797z" />
    <glyph glyph-name="Ccedilla" unicode="&#xc7;" horiz-adv-x="1728" 
d="M1618 1233h-41q-3 90 -37 164t-89 124t-129 84.5t-154.5 50t-166.5 15.5q-168 0 -308.5 -64.5t-243 -187t-159.5 -310t-57 -423.5q0 -235 58 -427t160 -318.5t241 -194.5t301 -68q218 0 396.5 103t269.5 254l37 -23q-104 -166 -295.5 -270t-439.5 -104h-19q-8 -28 -8 -52
q0 -26 24 -35q10 -4 39.5 -13.5t47.5 -17t34.5 -25.5t16.5 -42q0 -39 -38 -63.5t-93 -24.5q-53 0 -109 29l12 20q35 -10 66 -10q25 0 45 12.5t20 36.5q0 8 -2 14.5t-7 13t-8 10.5t-12 10t-12.5 8t-14.5 8.5t-13 7.5q-27 16 -27 47q0 19 17 68q-251 10 -446 142t-301.5 356.5
t-106.5 502.5q0 176 37 329.5t102.5 269t154 206t193.5 148t218 87t230 29.5q226 0 443 -111q36 -18 59 -18t39.5 19.5t23.5 48.5t10 51.5t3 40.5h39v-508z" />
    <glyph glyph-name="Egrave" unicode="&#xc8;" horiz-adv-x="1478" 
d="M41 -328v39h117l2 1925h-119v39h1188q105 0 129 68h39v-428h-41q0 89 -10.5 149t-27 94t-48 51.5t-60.5 22t-77 4.5h-832v-778h481q90 5 90 113h43l68 -400h-39q-20 65 -33.5 104.5t-30 69t-27 43t-32.5 21.5t-38 9t-52 1h-430v-1108h889q41 0 70.5 7t57 28.5t44 58.5
t26 99t9.5 149h41v-448h-39q-23 67 -142 67h-1216zM856 1860l-12 -19q-127 56 -194.5 114t-67.5 97q0 22 14.5 37.5t38.5 15.5q45 0 74 -73q18 -44 55 -93t92 -79z" />
    <glyph glyph-name="Eacute" unicode="&#xc9;" horiz-adv-x="1478" 
d="M41 -328v39h117l2 1925h-119v39h1188q105 0 129 68h39v-428h-41q0 89 -10.5 149t-27 94t-48 51.5t-60.5 22t-77 4.5h-832v-778h481q90 5 90 113h43l68 -400h-39q-20 65 -33.5 104.5t-30 69t-27 43t-32.5 21.5t-38 9t-52 1h-430v-1108h889q41 0 70.5 7t57 28.5t44 58.5
t26 99t9.5 149h41v-448h-39q-23 67 -142 67h-1216zM696 1841l-12 19q55 30 92 79t55 93q29 73 74 73q24 0 38.5 -15.5t14.5 -37.5q0 -39 -67.5 -97t-194.5 -114z" />
    <glyph glyph-name="Ecircumflex" unicode="&#xca;" horiz-adv-x="1478" 
d="M41 -328v39h117l2 1925h-119v39h1188q105 0 129 68h39v-428h-41q0 89 -10.5 149t-27 94t-48 51.5t-60.5 22t-77 4.5h-832v-778h481q90 5 90 113h43l68 -400h-39q-20 65 -33.5 104.5t-30 69t-27 43t-32.5 21.5t-38 9t-52 1h-430v-1108h889q41 0 70.5 7t57 28.5t44 58.5
t26 99t9.5 149h41v-448h-39q-23 67 -142 67h-1216zM737 2105h45q36 -62 92.5 -130t114.5 -117l-12 -17q-121 59 -219 154q-91 -94 -215 -154l-13 17q58 49 114.5 117t92.5 130z" />
    <glyph glyph-name="Edieresis" unicode="&#xcb;" horiz-adv-x="1478" 
d="M41 -328v39h117l2 1925h-119v39h1188q105 0 129 68h39v-428h-41q0 89 -10.5 149t-27 94t-48 51.5t-60.5 22t-77 4.5h-832v-778h481q90 5 90 113h43l68 -400h-39q-20 65 -33.5 104.5t-30 69t-27 43t-32.5 21.5t-38 9t-52 1h-430v-1108h889q41 0 70.5 7t57 28.5t44 58.5
t26 99t9.5 149h41v-448h-39q-23 67 -142 67h-1216zM891 2011q33 0 57.5 -22.5t24.5 -55.5q0 -29 -25 -51t-57 -22t-56 22t-24 51q0 33 23.5 55.5t56.5 22.5zM627 2011q33 0 57.5 -22.5t24.5 -55.5q0 -29 -25 -51t-57 -22t-56 22t-24 51q0 33 23.5 55.5t56.5 22.5z" />
    <glyph glyph-name="Igrave" unicode="&#xcc;" horiz-adv-x="534" 
d="M82 1636v39h371v-39h-119v-1925h119v-39h-371v39h117v1925h-117zM367 1860l-13 -19q-127 56 -194.5 114t-67.5 97q0 22 14.5 37.5t38.5 15.5q45 0 74 -73q18 -44 55.5 -93t92.5 -79z" />
    <glyph glyph-name="Iacute" unicode="&#xcd;" horiz-adv-x="534" 
d="M82 1636v39h371v-39h-119v-1925h119v-39h-371v39h117v1925h-117zM182 1841l-12 19q55 30 92 79t55 93q29 73 74 73q24 0 38.5 -15.5t14.5 -37.5q0 -39 -67.5 -97t-194.5 -114z" />
    <glyph glyph-name="Icircumflex" unicode="&#xce;" horiz-adv-x="534" 
d="M82 1636v39h371v-39h-119v-1925h119v-39h-371v39h117v1925h-117zM246 2105h45q36 -62 92.5 -130t114.5 -117l-13 -17q-121 59 -219 154q-91 -94 -215 -154l-12 17q58 49 114.5 117t92.5 130z" />
    <glyph glyph-name="Idieresis" unicode="&#xcf;" horiz-adv-x="534" 
d="M82 1636v39h371v-39h-119v-1925h119v-39h-371v39h117v1925h-117zM399 2011q33 0 57.5 -22.5t24.5 -55.5q0 -29 -25 -51t-57 -22t-56 22t-24 51q0 33 23.5 55.5t56.5 22.5zM135 2011q33 0 57.5 -22.5t24.5 -55.5q0 -29 -25 -51t-57 -22t-56 22t-24 51q0 33 23.5 55.5
t56.5 22.5z" />
    <glyph glyph-name="Eth" unicode="&#xd0;" horiz-adv-x="1789" 
d="M301 -289h281q161 0 295.5 26t234.5 72.5t178 115t129.5 148.5t84.5 177.5t47 198.5t14 215q0 192 -33 342t-107 270.5t-190 198.5t-284 119.5t-388 41.5h-262v-1020h274v-38h-274v-867zM158 -289v867h-117v38h117l2 1020h-119v39h520q593 0 875 -255.5t282 -762.5
q0 -170 -41.5 -317t-130 -271t-219 -211.5t-317.5 -136.5t-416 -49h-553v39h117z" />
    <glyph glyph-name="Ntilde" unicode="&#xd1;" horiz-adv-x="1763" 
d="M41 -328v39q62 0 90.5 18.5t40.5 71t12 164.5v1628q-18 15 -32 15q-38 0 -91 -23l-14 31l229 127l1258 -1813v1452q0 112 -12 164.5t-40.5 71t-90.5 18.5v39h331v-39q-62 0 -90.5 -18.5t-40.5 -71t-12 -164.5v-1710h-45l-1206 1737q-7 10 -44.5 62.5t-54.5 74.5v-1581
q0 -112 12.5 -164.5t41 -71t90.5 -18.5v-39h-332zM1034 1962q20 0 48 13.5t48 33.5l19 -18q-24 -34 -78.5 -74.5t-99.5 -40.5q-33 0 -98 33t-105 33q-20 0 -48 -14t-48 -34l-19 19q24 34 78.5 74.5t99.5 40.5q33 0 98 -33t105 -33z" />
    <glyph glyph-name="Ograve" unicode="&#xd2;" horiz-adv-x="2050" 
d="M1030 -326q169 0 313 70t248.5 198.5t164 319.5t59.5 422q0 217 -51.5 397.5t-148.5 312.5t-247 205.5t-338 73.5q-167 0 -311.5 -68.5t-252 -194t-169 -316.5t-61.5 -424q0 -215 53 -397t152 -315.5t250.5 -208.5t338.5 -75zM1001 -362q-142 0 -276 39.5t-253 122.5
t-207.5 200.5t-140.5 284t-52 362.5q0 127 28 254t81.5 245.5t137.5 221t189.5 179t244.5 120t296 43.5q142 0 276 -40t253 -123t207.5 -201t140.5 -285t52 -363q0 -157 -38 -308.5t-118.5 -287.5t-194 -239.5t-275 -164t-351.5 -60.5zM1079 1860l-12 -19
q-127 56 -194.5 114t-67.5 97q0 22 14.5 37.5t38.5 15.5q45 0 74 -73q18 -44 55 -93t92 -79z" />
    <glyph glyph-name="Oacute" unicode="&#xd3;" horiz-adv-x="2050" 
d="M1030 -326q169 0 313 70t248.5 198.5t164 319.5t59.5 422q0 217 -51.5 397.5t-148.5 312.5t-247 205.5t-338 73.5q-167 0 -311.5 -68.5t-252 -194t-169 -316.5t-61.5 -424q0 -215 53 -397t152 -315.5t250.5 -208.5t338.5 -75zM1001 -362q-142 0 -276 39.5t-253 122.5
t-207.5 200.5t-140.5 284t-52 362.5q0 127 28 254t81.5 245.5t137.5 221t189.5 179t244.5 120t296 43.5q142 0 276 -40t253 -123t207.5 -201t140.5 -285t52 -363q0 -157 -38 -308.5t-118.5 -287.5t-194 -239.5t-275 -164t-351.5 -60.5zM961 1841l-13 19q55 30 92.5 79
t55.5 93q15 37 31.5 55t41.5 18q24 0 39 -15.5t15 -37.5q0 -39 -67.5 -97t-194.5 -114z" />
    <glyph glyph-name="Ocircumflex" unicode="&#xd4;" horiz-adv-x="2050" 
d="M1030 -326q169 0 313 70t248.5 198.5t164 319.5t59.5 422q0 217 -51.5 397.5t-148.5 312.5t-247 205.5t-338 73.5q-167 0 -311.5 -68.5t-252 -194t-169 -316.5t-61.5 -424q0 -215 53 -397t152 -315.5t250.5 -208.5t338.5 -75zM1001 -362q-142 0 -276 39.5t-253 122.5
t-207.5 200.5t-140.5 284t-52 362.5q0 127 28 254t81.5 245.5t137.5 221t189.5 179t244.5 120t296 43.5q142 0 276 -40t253 -123t207.5 -201t140.5 -285t52 -363q0 -157 -38 -308.5t-118.5 -287.5t-194 -239.5t-275 -164t-351.5 -60.5zM1001 2105h46q36 -63 92 -130.5
t114 -116.5l-12 -17q-121 59 -219 154q-91 -94 -215 -154l-12 17q58 49 114 116.5t92 130.5z" />
    <glyph glyph-name="Otilde" unicode="&#xd5;" horiz-adv-x="2050" 
d="M1030 -326q169 0 313 70t248.5 198.5t164 319.5t59.5 422q0 217 -51.5 397.5t-148.5 312.5t-247 205.5t-338 73.5q-167 0 -311.5 -68.5t-252 -194t-169 -316.5t-61.5 -424q0 -215 53 -397t152 -315.5t250.5 -208.5t338.5 -75zM1001 -362q-142 0 -276 39.5t-253 122.5
t-207.5 200.5t-140.5 284t-52 362.5q0 127 28 254t81.5 245.5t137.5 221t189.5 179t244.5 120t296 43.5q142 0 276 -40t253 -123t207.5 -201t140.5 -285t52 -363q0 -157 -38 -308.5t-118.5 -287.5t-194 -239.5t-275 -164t-351.5 -60.5zM1157 1962q20 0 48 13.5t48 33.5
l19 -18q-24 -34 -78.5 -74.5t-99.5 -40.5q-33 0 -98 33t-105 33q-20 0 -48 -14t-48 -34l-19 19q24 34 78.5 74.5t99.5 40.5q33 0 98 -33t105 -33z" />
    <glyph glyph-name="Odieresis" unicode="&#xd6;" horiz-adv-x="2050" 
d="M1030 -326q169 0 313 70t248.5 198.5t164 319.5t59.5 422q0 217 -51.5 397.5t-148.5 312.5t-247 205.5t-338 73.5q-167 0 -311.5 -68.5t-252 -194t-169 -316.5t-61.5 -424q0 -215 53 -397t152 -315.5t250.5 -208.5t338.5 -75zM1001 -362q-142 0 -276 39.5t-253 122.5
t-207.5 200.5t-140.5 284t-52 362.5q0 127 28 254t81.5 245.5t137.5 221t189.5 179t244.5 120t296 43.5q142 0 276 -40t253 -123t207.5 -201t140.5 -285t52 -363q0 -157 -38 -308.5t-118.5 -287.5t-194 -239.5t-275 -164t-351.5 -60.5zM1155 2011q33 0 57.5 -22.5
t24.5 -55.5q0 -29 -25 -51t-57 -22t-56 22t-24 51q0 33 23.5 55.5t56.5 22.5zM891 2011q33 0 57.5 -22.5t24.5 -55.5q0 -29 -25 -51t-57 -22t-56 22t-24 51q0 33 23.5 55.5t56.5 22.5z" />
    <glyph glyph-name="multiply" unicode="&#xd7;" horiz-adv-x="743" 
d="M98 78l-32 24l247 324l-252 330l105 75l229 -299l226 295l32 -26l-233 -303l262 -340l-100 -80l-242 315z" />
    <glyph glyph-name="Oslash" unicode="&#xd8;" horiz-adv-x="2050" 
d="M735 -535h-43l53 207q-112 31 -211 87.5t-184.5 142t-146.5 194t-96 249.5t-35 302q0 127 28 254t81.5 245.5t137.5 221t189.5 179t244.5 120t296 43.5q107 0 229 -29l53 201h43l-55 -211q138 -41 255.5 -122t208.5 -200.5t143 -286.5t52 -364q0 -157 -38 -308.5
t-118.5 -287.5t-194 -239.5t-275 -164t-351.5 -60.5q-107 0 -215 24zM236 670q0 -232 59.5 -423.5t177.5 -328.5t285 -199l508 1919q-110 35 -236 35q-167 0 -311.5 -68.5t-252 -194t-169 -316.5t-61.5 -424zM1030 -326q169 0 313 70t248.5 198.5t164 319.5t59.5 422
q0 351 -131.5 600.5t-376.5 341.5l-508 -1919q119 -33 231 -33z" />
    <glyph glyph-name="Ugrave" unicode="&#xd9;" horiz-adv-x="1771" 
d="M1358 1636v39h373v-39h-117v-1183q0 -395 -180 -605t-547 -210q-365 0 -546 210t-181 605v1183h-119v39h375v-39h-115v-1181q0 -142 16 -255t56.5 -214.5t106 -168.5t168.5 -106t239 -39t239.5 41.5t168 111t105.5 171.5t57 213t16 246v1181h-115zM981 1860l-12 -19
q-127 56 -194.5 114t-67.5 97q0 22 14.5 37.5t38.5 15.5q45 0 74 -73q18 -44 55 -93t92 -79z" />
    <glyph glyph-name="Uacute" unicode="&#xda;" horiz-adv-x="1771" 
d="M1358 1636v39h373v-39h-117v-1183q0 -395 -180 -605t-547 -210q-365 0 -546 210t-181 605v1183h-119v39h375v-39h-115v-1181q0 -142 16 -255t56.5 -214.5t106 -168.5t168.5 -106t239 -39t239.5 41.5t168 111t105.5 171.5t57 213t16 246v1181h-115zM821 1841l-12 19
q55 30 92 79t55 93q29 73 74 73q24 0 38.5 -15.5t14.5 -37.5q0 -39 -67.5 -97t-194.5 -114z" />
    <glyph glyph-name="Ucircumflex" unicode="&#xdb;" horiz-adv-x="1771" 
d="M1358 1636v39h373v-39h-117v-1183q0 -395 -180 -605t-547 -210q-365 0 -546 210t-181 605v1183h-119v39h375v-39h-115v-1181q0 -142 16 -255t56.5 -214.5t106 -168.5t168.5 -106t239 -39t239.5 41.5t168 111t105.5 171.5t57 213t16 246v1181h-115zM862 2105h45
q36 -62 92.5 -130t114.5 -117l-12 -17q-121 59 -219 154q-91 -94 -215 -154l-13 17q58 49 114.5 117t92.5 130z" />
    <glyph glyph-name="Udieresis" unicode="&#xdc;" horiz-adv-x="1771" 
d="M1358 1636v39h373v-39h-117v-1183q0 -395 -180 -605t-547 -210q-365 0 -546 210t-181 605v1183h-119v39h375v-39h-115v-1181q0 -142 16 -255t56.5 -214.5t106 -168.5t168.5 -106t239 -39t239.5 41.5t168 111t105.5 171.5t57 213t16 246v1181h-115zM1016 2011
q33 0 57.5 -22.5t24.5 -55.5q0 -29 -25 -51t-57 -22t-56 22t-24 51q0 33 23.5 55.5t56.5 22.5zM752 2011q33 0 57.5 -22.5t24.5 -55.5q0 -29 -25 -51t-57 -22t-56 22t-24 51q0 33 23.5 55.5t56.5 22.5z" />
    <glyph glyph-name="Yacute" unicode="&#xdd;" horiz-adv-x="1540" 
d="M1499 1675v-39q-90 0 -135.5 -36t-93.5 -134l-443 -895l4 -860h121v-39h-387v39h119l6 803l-534 1126h-115v35h387v-35h-121l492 -1022l407 828q47 92 47 131q0 32 -28.5 45.5t-98.5 13.5h-14v39h387zM727 1841l-12 19q55 30 92 79t55 93q29 73 74 73q24 0 38.5 -15.5
t14.5 -37.5q0 -39 -67.5 -97t-194.5 -114z" />
    <glyph glyph-name="Thorn" unicode="&#xde;" horiz-adv-x="1890" 
d="M1819 690q0 -218 -65.5 -410.5t-183.5 -334.5t-294 -224.5t-385 -82.5q-189 0 -345.5 54.5t-256.5 123.5v-140h-248v35h113v1929h-113v35h248v-147q70 42 150 78.5t207 70t245 33.5q282 0 493 -127.5t323 -358.5t112 -534zM866 1673q-156 0 -314.5 -56t-262.5 -124v-1638
q109 -76 258 -128.5t319 -52.5q243 0 422 127.5t273 357.5t94 535q0 237 -56.5 423.5t-160 308t-248.5 184.5t-324 63z" />
    <glyph glyph-name="germandbls" unicode="&#xdf;" horiz-adv-x="1089" 
d="M575 14q135 0 225.5 111.5t90.5 310.5q0 225 -108.5 354.5t-309.5 129.5h-92v34h35q159 0 244 90.5t85 245.5q0 64 -14.5 115.5t-37.5 83t-53 52.5t-58 29.5t-56 8.5q-256 0 -256 -391v-903q0 -256 -235 -301l-8 24q37 9 56 18.5t35.5 35.5t22.5 73.5t6 126.5v926
q0 89 21.5 160.5t58 118.5t86.5 79t104 46t113 14q68 0 129 -19t110.5 -56.5t78.5 -99.5t29 -141t-34 -145t-88 -107t-112.5 -64.5t-114.5 -29.5q69 0 138.5 -18t135 -58t115.5 -96t80.5 -138.5t30.5 -180.5q0 -209 -117 -339t-329 -130q-160 0 -271 108l17 23
q59 -50 116.5 -75.5t130.5 -25.5z" />
    <glyph glyph-name="agrave" unicode="&#xe0;" horiz-adv-x="970" 
d="M322 764q0 -40 -35.5 -69t-79.5 -29q-42 0 -70 23.5t-28 64.5q0 84 105.5 150.5t252.5 66.5q338 0 338 -291v-459q0 -172 65 -172q31 0 86 55l15 -16q-34 -33 -56.5 -51.5t-59.5 -35.5t-73 -17q-46 0 -77 41.5t-31 134.5v385q-481 -15 -481 -320q0 -92 46 -147t123 -55
q111 0 230 92l12 -23q-134 -108 -289 -108q-119 0 -191.5 56.5t-72.5 162.5q0 72 36.5 134t109.5 112.5t195 81.5t282 36v127q0 140 -45 194t-166 54q-81 0 -147 -27t-66 -57q0 -8 11 -15.5t25 -14t25 -23.5t11 -41zM541 1087l-13 -18q-127 56 -194.5 114t-67.5 97
q0 22 14.5 37.5t38.5 15.5q45 0 74 -73q18 -44 55.5 -93.5t92.5 -79.5z" />
    <glyph glyph-name="aacute" unicode="&#xe1;" horiz-adv-x="970" 
d="M322 764q0 -40 -35.5 -69t-79.5 -29q-42 0 -70 23.5t-28 64.5q0 84 105.5 150.5t252.5 66.5q338 0 338 -291v-459q0 -172 65 -172q31 0 86 55l15 -16q-34 -33 -56.5 -51.5t-59.5 -35.5t-73 -17q-46 0 -77 41.5t-31 134.5v385q-481 -15 -481 -320q0 -92 46 -147t123 -55
q111 0 230 92l12 -23q-134 -108 -289 -108q-119 0 -191.5 56.5t-72.5 162.5q0 72 36.5 134t109.5 112.5t195 81.5t282 36v127q0 140 -45 194t-166 54q-81 0 -147 -27t-66 -57q0 -8 11 -15.5t25 -14t25 -23.5t11 -41zM422 1069l-12 18q55 30 92 79t55 94q29 73 74 73
q24 0 38.5 -15.5t14.5 -37.5q0 -39 -67.5 -97t-194.5 -114z" />
    <glyph glyph-name="acircumflex" unicode="&#xe2;" horiz-adv-x="970" 
d="M322 764q0 -40 -35.5 -69t-79.5 -29q-42 0 -70 23.5t-28 64.5q0 84 105.5 150.5t252.5 66.5q338 0 338 -291v-459q0 -172 65 -172q31 0 86 55l15 -16q-34 -33 -56.5 -51.5t-59.5 -35.5t-73 -17q-46 0 -77 41.5t-31 134.5v385q-481 -15 -481 -320q0 -92 46 -147t123 -55
q111 0 230 92l12 -23q-134 -108 -289 -108q-119 0 -191.5 56.5t-72.5 162.5q0 72 36.5 134t109.5 112.5t195 81.5t282 36v127q0 140 -45 194t-166 54q-81 0 -147 -27t-66 -57q0 -8 11 -15.5t25 -14t25 -23.5t11 -41zM469 1333h45q36 -63 92.5 -131t114.5 -117l-12 -16
q-123 60 -220 154q-91 -94 -215 -154l-12 16q58 49 114.5 117t92.5 131z" />
    <glyph glyph-name="atilde" unicode="&#xe3;" horiz-adv-x="970" 
d="M322 764q0 -40 -35.5 -69t-79.5 -29q-42 0 -70 23.5t-28 64.5q0 84 105.5 150.5t252.5 66.5q338 0 338 -291v-459q0 -172 65 -172q31 0 86 55l15 -16q-34 -33 -56.5 -51.5t-59.5 -35.5t-73 -17q-46 0 -77 41.5t-31 134.5v385q-481 -15 -481 -320q0 -92 46 -147t123 -55
q111 0 230 92l12 -23q-134 -108 -289 -108q-119 0 -191.5 56.5t-72.5 162.5q0 72 36.5 134t109.5 112.5t195 81.5t282 36v127q0 140 -45 194t-166 54q-81 0 -147 -27t-66 -57q0 -8 11 -15.5t25 -14t25 -23.5t11 -41zM618 1190q21 0 49 13.5t48 33.5l18 -18
q-24 -34 -78.5 -74.5t-99.5 -40.5q-33 0 -98 32.5t-105 32.5q-20 0 -48 -13.5t-48 -33.5l-18 19q23 33 78 73.5t100 40.5q33 0 97.5 -32.5t104.5 -32.5z" />
    <glyph glyph-name="adieresis" unicode="&#xe4;" horiz-adv-x="970" 
d="M322 764q0 -40 -35.5 -69t-79.5 -29q-42 0 -70 23.5t-28 64.5q0 84 105.5 150.5t252.5 66.5q338 0 338 -291v-459q0 -172 65 -172q31 0 86 55l15 -16q-34 -33 -56.5 -51.5t-59.5 -35.5t-73 -17q-46 0 -77 41.5t-31 134.5v385q-481 -15 -481 -320q0 -92 46 -147t123 -55
q111 0 230 92l12 -23q-134 -108 -289 -108q-119 0 -191.5 56.5t-72.5 162.5q0 72 36.5 134t109.5 112.5t195 81.5t282 36v127q0 140 -45 194t-166 54q-81 0 -147 -27t-66 -57q0 -8 11 -15.5t25 -14t25 -23.5t11 -41zM616 1239q33 0 57.5 -22.5t24.5 -55.5q0 -29 -25 -51.5
t-57 -22.5t-55.5 22.5t-23.5 51.5q0 33 23 55.5t56 22.5zM352 1239q33 0 57.5 -22.5t24.5 -55.5q0 -29 -25 -51.5t-57 -22.5t-56 22.5t-24 51.5q0 33 23.5 55.5t56.5 22.5z" />
    <glyph glyph-name="aring" unicode="&#xe5;" horiz-adv-x="970" 
d="M322 764q0 -40 -35.5 -69t-79.5 -29q-42 0 -70 23.5t-28 64.5q0 84 105.5 150.5t252.5 66.5q338 0 338 -291v-459q0 -172 65 -172q31 0 86 55l15 -16q-34 -33 -56.5 -51.5t-59.5 -35.5t-73 -17q-46 0 -77 41.5t-31 134.5v385q-481 -15 -481 -320q0 -92 46 -147t123 -55
q111 0 230 92l12 -23q-134 -108 -289 -108q-119 0 -191.5 56.5t-72.5 162.5q0 72 36.5 134t109.5 112.5t195 81.5t282 36v127q0 140 -45 194t-166 54q-81 0 -147 -27t-66 -57q0 -8 11 -15.5t25 -14t25 -23.5t11 -41zM365 1182q0 50 35.5 83t82.5 33q48 0 81.5 -33t33.5 -83
q0 -46 -34 -79.5t-83 -33.5q-51 0 -83.5 31.5t-32.5 81.5zM399 1182q0 -36 23 -60t61 -24q34 0 57 24.5t23 59.5q0 37 -23 61.5t-57 24.5q-37 0 -60.5 -24t-23.5 -62z" />
    <glyph glyph-name="ae" unicode="&#xe6;" horiz-adv-x="1591" 
d="M1507 582h-579v34h356q41 0 54.5 21.5t13.5 60.5q0 98 -56.5 170t-162.5 72q-314 0 -314 -442q0 -90 12 -162t31.5 -121.5t49.5 -86.5t61 -58t70.5 -33.5t73.5 -16.5t75 -4q166 0 309 86l19 -26q-42 -25 -76 -41t-111 -33.5t-168 -17.5q-47 0 -89 4t-93 17t-93.5 33.5
t-83.5 57.5t-69 85t-45.5 119.5t-17.5 158.5v86q-481 -15 -481 -320q0 -97 49.5 -149.5t128.5 -52.5q164 0 291 118l20 -22q-143 -135 -356 -135q-123 0 -199 57t-76 162q0 72 36.5 134t109.5 112.5t195 81.5t282 36v127q0 140 -45 194t-166 54q-81 0 -147 -27t-66 -57
q0 -8 11 -15.5t25 -14t25 -23.5t11 -41q0 -40 -35.5 -69t-79.5 -29q-42 0 -70 23.5t-28 64.5q0 84 105.5 150.5t252.5 66.5q48 0 92 -7.5t88.5 -25.5t80 -53t54.5 -84q64 81 156 125.5t201 44.5q86 0 153 -25.5t106.5 -65t65 -93t34.5 -103t9 -102.5z" />
    <glyph glyph-name="ccedilla" unicode="&#xe7;" horiz-adv-x="958" 
d="M207 485q0 -89 20 -170.5t60 -149.5t107 -108.5t153 -40.5q103 0 196 39.5t154 94.5l18 -27q-60 -58 -165 -98.5t-211 -40.5q-24 0 -70 4q-10 -40 -10 -58q0 -25 24 -34q10 -4 31 -11t37.5 -13t33.5 -15.5t26.5 -24.5t9.5 -35q0 -39 -38.5 -63.5t-93.5 -24.5
q-52 0 -108 29l12 20q35 -10 66 -10q25 0 45 12.5t20 36.5q0 8 -2 14.5t-7 13t-8 10.5t-12 10t-12.5 8t-14.5 8.5t-13 7.5q-27 16 -27 47q0 29 18 74q-85 10 -152 40.5t-110 74t-71.5 100.5t-40 116t-11.5 125q0 154 65.5 274.5t176.5 185.5t248 65q77 0 136 -21.5t92 -56.5
t49 -73.5t16 -78.5q0 -55 -32 -93t-83 -38q-43 0 -70.5 27t-27.5 65q0 30 17 51t37 30.5t37 21.5t17 26q0 40 -49 75.5t-143 35.5q-148 0 -244 -119t-96 -338z" />
    <glyph glyph-name="egrave" unicode="&#xe8;" horiz-adv-x="978" 
d="M895 582h-580v34h357q41 0 54 21t13 61q0 98 -56.5 170t-162.5 72q-65 0 -119.5 -25t-99 -76.5t-69.5 -141.5t-25 -210q0 -92 15.5 -166.5t43.5 -124.5t63 -86.5t78 -56t85 -28.5t88 -9q166 0 309 86l18 -26q-43 -25 -76 -41t-110.5 -33.5t-167.5 -17.5
q-64 0 -126.5 12.5t-130.5 46t-118.5 85t-83.5 137t-33 194.5q0 123 40.5 223.5t107.5 162t148.5 94t168.5 32.5q86 0 153.5 -25.5t107 -65t65 -93t34.5 -103t9 -102.5zM606 1087l-12 -18q-127 56 -194.5 114t-67.5 97q0 22 14.5 37.5t38.5 15.5q45 0 74 -73q18 -45 55 -94
t92 -79z" />
    <glyph glyph-name="eacute" unicode="&#xe9;" horiz-adv-x="978" 
d="M895 582h-580v34h357q41 0 54 21t13 61q0 98 -56.5 170t-162.5 72q-65 0 -119.5 -25t-99 -76.5t-69.5 -141.5t-25 -210q0 -92 15.5 -166.5t43.5 -124.5t63 -86.5t78 -56t85 -28.5t88 -9q166 0 309 86l18 -26q-43 -25 -76 -41t-110.5 -33.5t-167.5 -17.5
q-64 0 -126.5 12.5t-130.5 46t-118.5 85t-83.5 137t-33 194.5q0 123 40.5 223.5t107.5 162t148.5 94t168.5 32.5q86 0 153.5 -25.5t107 -65t65 -93t34.5 -103t9 -102.5zM426 1069l-12 18q55 30 92 79t55 94q29 73 74 73q24 0 38.5 -15.5t14.5 -37.5q0 -39 -67.5 -97
t-194.5 -114z" />
    <glyph glyph-name="ecircumflex" unicode="&#xea;" horiz-adv-x="978" 
d="M895 582h-580v34h357q41 0 54 21t13 61q0 98 -56.5 170t-162.5 72q-65 0 -119.5 -25t-99 -76.5t-69.5 -141.5t-25 -210q0 -92 15.5 -166.5t43.5 -124.5t63 -86.5t78 -56t85 -28.5t88 -9q166 0 309 86l18 -26q-43 -25 -76 -41t-110.5 -33.5t-167.5 -17.5
q-64 0 -126.5 12.5t-130.5 46t-118.5 85t-83.5 137t-33 194.5q0 123 40.5 223.5t107.5 162t148.5 94t168.5 32.5q86 0 153.5 -25.5t107 -65t65 -93t34.5 -103t9 -102.5zM498 1333h45q36 -63 92.5 -131t114.5 -117l-13 -16q-121 59 -219 154q-91 -94 -215 -154l-12 16
q58 49 114.5 117t92.5 131z" />
    <glyph glyph-name="edieresis" unicode="&#xeb;" horiz-adv-x="978" 
d="M895 582h-580v34h357q41 0 54 21t13 61q0 98 -56.5 170t-162.5 72q-65 0 -119.5 -25t-99 -76.5t-69.5 -141.5t-25 -210q0 -92 15.5 -166.5t43.5 -124.5t63 -86.5t78 -56t85 -28.5t88 -9q166 0 309 86l18 -26q-43 -25 -76 -41t-110.5 -33.5t-167.5 -17.5
q-64 0 -126.5 12.5t-130.5 46t-118.5 85t-83.5 137t-33 194.5q0 123 40.5 223.5t107.5 162t148.5 94t168.5 32.5q86 0 153.5 -25.5t107 -65t65 -93t34.5 -103t9 -102.5zM651 1239q33 0 57.5 -22.5t24.5 -55.5q0 -29 -25 -51.5t-57 -22.5t-56 22.5t-24 51.5q0 33 23.5 55.5
t56.5 22.5zM387 1239q33 0 57.5 -22.5t24.5 -55.5q0 -29 -25 -51.5t-57 -22.5t-56 22.5t-24 51.5q0 33 23.5 55.5t56.5 22.5z" />
    <glyph glyph-name="igrave" unicode="&#xec;" horiz-adv-x="458" 
d="M322 1087l-13 -18q-127 56 -194.5 114t-67.5 97q0 22 14.5 37.5t38.5 15.5q45 0 74 -73q18 -44 55.5 -93.5t92.5 -79.5zM55 0v35h119v571q0 92 -5 143.5t-14 70t-24 18.5q-22 0 -74 -23l-6 25l250 131v-936h117v-35h-363z" />
    <glyph glyph-name="iacute" unicode="&#xed;" horiz-adv-x="458" 
d="M131 1069l-12 18q55 30 92 79t55 94q29 73 74 73q24 0 38.5 -15.5t14.5 -37.5q0 -39 -67.5 -97t-194.5 -114zM55 0v35h119v571q0 92 -5 143.5t-14 70t-24 18.5q-22 0 -74 -23l-6 25l250 131v-936h117v-35h-363z" />
    <glyph glyph-name="icircumflex" unicode="&#xee;" horiz-adv-x="458" 
d="M207 1333h45q36 -63 92.5 -131t114.5 -117l-13 -16q-121 59 -219 154q-91 -94 -215 -154l-12 16q58 49 114.5 117t92.5 131zM55 0v35h119v571q0 92 -5 143.5t-14 70t-24 18.5q-22 0 -74 -23l-6 25l250 131v-936h117v-35h-363z" />
    <glyph glyph-name="idieresis" unicode="&#xef;" horiz-adv-x="458" 
d="M360 1239q33 0 57.5 -22.5t24.5 -55.5q0 -29 -25 -51.5t-57 -22.5t-55.5 22.5t-23.5 51.5q0 33 23 55.5t56 22.5zM96 1239q33 0 57.5 -22.5t24.5 -55.5q0 -29 -25 -51.5t-57 -22.5t-56 22.5t-24 51.5q0 33 23.5 55.5t56.5 22.5zM55 0v35h119v571q0 92 -5 143.5t-14 70
t-24 18.5q-22 0 -74 -23l-6 25l250 131v-936h117v-35h-363z" />
    <glyph glyph-name="eth" unicode="&#xf0;" horiz-adv-x="1030" 
d="M268 1743l27 -17q-1 -4 -5 -13.5t-5.5 -15t-3.5 -17t-2 -23.5q0 -31 16 -65.5t56 -82.5t71 -81t98 -101l109 109l24 -23l-110 -108q47 -47 96 -99q67 -71 111.5 -122.5t89.5 -117.5t71 -126.5t42 -136.5t16 -160q0 -142 -61 -270t-172 -208.5t-244 -80.5
q-136 0 -237.5 64t-152.5 171.5t-51 241.5q0 154 65.5 271t176.5 178t248 61l-4 -29q-147 0 -247 -126t-100 -345q0 -208 83 -331.5t227 -123.5q153 0 258.5 121t105.5 324q0 249 -168 475q-68 92 -224 249l-23 23l-119 -116l-23 24l119 117q-29 29 -41 43
q-77 80 -118.5 151.5t-41.5 159.5q0 87 43 156z" />
    <glyph glyph-name="ntilde" unicode="&#xf1;" horiz-adv-x="1085" 
d="M676 0v35h125v583q0 161 -42.5 236.5t-135.5 75.5q-79 0 -168.5 -50t-161.5 -114v-731h113v-35h-365v35h125v573q0 92 -5 143.5t-14 70t-24 18.5q-22 0 -74 -23l-6 25l250 131v-166q199 166 364 166q139 0 205 -84.5t66 -270.5v-583h110v-35h-362zM676 1190q20 0 48 13.5
t48 33.5l19 -18q-23 -34 -78.5 -74.5t-100.5 -40.5q-33 0 -97.5 32.5t-104.5 32.5q-21 0 -49 -13.5t-48 -33.5l-18 19q23 33 78 73.5t100 40.5q33 0 98 -32.5t105 -32.5z" />
    <glyph glyph-name="ograve" unicode="&#xf2;" 
d="M508 14q148 0 231.5 109t83.5 342q0 221 -81.5 348t-235.5 127q-146 0 -232 -110t-86 -341q0 -221 82 -348t238 -127zM481 -16q-81 0 -155 28t-137 83t-100.5 149.5t-37.5 216.5q0 148 52.5 261.5t162.5 181t264 67.5q80 0 154.5 -28t137.5 -83t101 -150t38 -216
q0 -227 -124.5 -368.5t-355.5 -141.5zM586 1087l-13 -18q-127 56 -194.5 114t-67.5 97q0 22 15 37.5t39 15.5q25 0 41.5 -18t31.5 -55q18 -44 55.5 -93.5t92.5 -79.5z" />
    <glyph glyph-name="oacute" unicode="&#xf3;" 
d="M508 14q148 0 231.5 109t83.5 342q0 221 -81.5 348t-235.5 127q-146 0 -232 -110t-86 -341q0 -221 82 -348t238 -127zM481 -16q-81 0 -155 28t-137 83t-100.5 149.5t-37.5 216.5q0 148 52.5 261.5t162.5 181t264 67.5q80 0 154.5 -28t137.5 -83t101 -150t38 -216
q0 -227 -124.5 -368.5t-355.5 -141.5zM446 1069l-12 18q55 30 92.5 79.5t55.5 93.5q15 37 31.5 55t41.5 18q24 0 39 -15.5t15 -37.5q0 -39 -68 -97t-195 -114z" />
    <glyph glyph-name="ocircumflex" unicode="&#xf4;" 
d="M508 14q148 0 231.5 109t83.5 342q0 221 -81.5 348t-235.5 127q-146 0 -232 -110t-86 -341q0 -221 82 -348t238 -127zM481 -16q-81 0 -155 28t-137 83t-100.5 149.5t-37.5 216.5q0 148 52.5 261.5t162.5 181t264 67.5q80 0 154.5 -28t137.5 -83t101 -150t38 -216
q0 -227 -124.5 -368.5t-355.5 -141.5zM487 1333h45q36 -63 92.5 -131t114.5 -117l-12 -16q-121 59 -219 154q-91 -94 -215 -154l-12 16q57 48 113.5 116.5t92.5 131.5z" />
    <glyph glyph-name="otilde" unicode="&#xf5;" 
d="M508 14q148 0 231.5 109t83.5 342q0 221 -81.5 348t-235.5 127q-146 0 -232 -110t-86 -341q0 -221 82 -348t238 -127zM481 -16q-81 0 -155 28t-137 83t-100.5 149.5t-37.5 216.5q0 148 52.5 261.5t162.5 181t264 67.5q80 0 154.5 -28t137.5 -83t101 -150t38 -216
q0 -227 -124.5 -368.5t-355.5 -141.5zM643 1190q20 0 48 13.5t48 33.5l19 -18q-24 -34 -78.5 -74.5t-99.5 -40.5q-33 0 -98 32.5t-105 32.5q-20 0 -48 -13.5t-48 -33.5l-19 19q23 33 78 73.5t100 40.5q33 0 98 -32.5t105 -32.5z" />
    <glyph glyph-name="odieresis" unicode="&#xf6;" 
d="M508 14q148 0 231.5 109t83.5 342q0 221 -81.5 348t-235.5 127q-146 0 -232 -110t-86 -341q0 -221 82 -348t238 -127zM481 -16q-81 0 -155 28t-137 83t-100.5 149.5t-37.5 216.5q0 148 52.5 261.5t162.5 181t264 67.5q80 0 154.5 -28t137.5 -83t101 -150t38 -216
q0 -227 -124.5 -368.5t-355.5 -141.5zM641 1239q33 0 57.5 -22.5t24.5 -55.5q0 -29 -25 -51.5t-57 -22.5t-56 22.5t-24 51.5q0 33 23.5 55.5t56.5 22.5zM377 1239q33 0 57.5 -22.5t24.5 -55.5q0 -29 -25 -51.5t-57 -22.5t-56 22.5t-24 51.5q0 33 23.5 55.5t56.5 22.5z" />
    <glyph glyph-name="divide" unicode="&#xf7;" horiz-adv-x="878" 
d="M121 512h682l-60 -100h-682zM436 819q41 0 71 -28.5t30 -65.5t-30 -64.5t-71 -27.5q-40 0 -70 27.5t-30 64.5t30 65.5t70 28.5zM436 287q41 0 71 -28.5t30 -65.5t-30 -65t-71 -28q-40 0 -70 28t-30 65t30 65.5t70 28.5z" />
    <glyph glyph-name="oslash" unicode="&#xf8;" 
d="M481 -16q-41 0 -78 6l-26 -103h-43l28 113q-136 35 -223.5 151.5t-87.5 309.5q0 148 52.5 261.5t162.5 181t264 67.5q47 0 86 -8l31 112h43l-33 -123q132 -39 218 -154.5t86 -303.5q0 -227 -124.5 -368.5t-355.5 -141.5zM188 489q0 -168 47.5 -283.5t139.5 -162.5
l231 881q-50 16 -100 16q-146 0 -232 -110t-86 -341zM508 14q148 0 231.5 109t83.5 342q0 162 -45.5 275.5t-132.5 164.5l-231 -876q44 -15 94 -15z" />
    <glyph glyph-name="ugrave" unicode="&#xf9;" horiz-adv-x="1067" 
d="M461 20q73 0 160.5 50t150.5 116v500q0 91 -12 126.5t-45 35.5q-13 0 -70 -25l-6 25l262 123v-697q0 -90 10.5 -141t26.5 -66.5t41 -15.5t78 53l14 -16q-57 -55 -98.5 -79.5t-81.5 -24.5q-56 0 -86 44.5t-33 118.5q-66 -68 -163 -115.5t-189 -47.5q-42 0 -76.5 6
t-73.5 26t-65.5 53t-44 93t-17.5 141v340q0 195 -41 195q-23 0 -75 -23l-7 25l254 135v-680q0 -82 14 -138t40.5 -85t58 -40.5t74.5 -11.5zM608 1087l-12 -18q-127 56 -194.5 114t-67.5 97q0 22 14.5 37.5t38.5 15.5q45 0 74 -73q18 -45 55 -94t92 -79z" />
    <glyph glyph-name="uacute" unicode="&#xfa;" horiz-adv-x="1067" 
d="M461 20q73 0 160.5 50t150.5 116v500q0 91 -12 126.5t-45 35.5q-13 0 -70 -25l-6 25l262 123v-697q0 -90 10.5 -141t26.5 -66.5t41 -15.5t78 53l14 -16q-57 -55 -98.5 -79.5t-81.5 -24.5q-56 0 -86 44.5t-33 118.5q-66 -68 -163 -115.5t-189 -47.5q-42 0 -76.5 6
t-73.5 26t-65.5 53t-44 93t-17.5 141v340q0 195 -41 195q-23 0 -75 -23l-7 25l254 135v-680q0 -82 14 -138t40.5 -85t58 -40.5t74.5 -11.5zM489 1069l-12 18q55 30 92.5 79.5t55.5 93.5q15 37 31.5 55t41.5 18q24 0 39 -15.5t15 -37.5q0 -39 -68 -97t-195 -114z" />
    <glyph glyph-name="ucircumflex" unicode="&#xfb;" horiz-adv-x="1067" 
d="M461 20q73 0 160.5 50t150.5 116v500q0 91 -12 126.5t-45 35.5q-13 0 -70 -25l-6 25l262 123v-697q0 -90 10.5 -141t26.5 -66.5t41 -15.5t78 53l14 -16q-57 -55 -98.5 -79.5t-81.5 -24.5q-56 0 -86 44.5t-33 118.5q-66 -68 -163 -115.5t-189 -47.5q-42 0 -76.5 6
t-73.5 26t-65.5 53t-44 93t-17.5 141v340q0 195 -41 195q-23 0 -75 -23l-7 25l254 135v-680q0 -82 14 -138t40.5 -85t58 -40.5t74.5 -11.5zM530 1333h45q36 -63 92.5 -131t114.5 -117l-12 -16q-121 59 -219 154q-91 -94 -215 -154l-12 16q57 48 113.5 116.5t92.5 131.5z" />
    <glyph glyph-name="udieresis" unicode="&#xfc;" horiz-adv-x="1067" 
d="M461 20q73 0 160.5 50t150.5 116v500q0 91 -12 126.5t-45 35.5q-13 0 -70 -25l-6 25l262 123v-697q0 -90 10.5 -141t26.5 -66.5t41 -15.5t78 53l14 -16q-57 -55 -98.5 -79.5t-81.5 -24.5q-56 0 -86 44.5t-33 118.5q-66 -68 -163 -115.5t-189 -47.5q-42 0 -76.5 6
t-73.5 26t-65.5 53t-44 93t-17.5 141v340q0 195 -41 195q-23 0 -75 -23l-7 25l254 135v-680q0 -82 14 -138t40.5 -85t58 -40.5t74.5 -11.5zM684 1239q33 0 57.5 -22.5t24.5 -55.5q0 -29 -25 -51.5t-57 -22.5t-56 22.5t-24 51.5q0 33 23.5 55.5t56.5 22.5zM420 1239
q33 0 57.5 -22.5t24.5 -55.5q0 -29 -25 -51.5t-57 -22.5t-56 22.5t-24 51.5q0 33 23.5 55.5t56.5 22.5z" />
    <glyph glyph-name="yacute" unicode="&#xfd;" horiz-adv-x="892" 
d="M909 954v-34q-57 0 -90 -37t-59 -129l-221 -770q-24 -85 -42 -142t-41.5 -127t-43.5 -116.5t-45.5 -97t-51.5 -82t-57 -58.5t-66 -39t-75 -12q-78 0 -117 37t-39 90q0 59 36 90t75 31q34 0 61 -24t27 -62q0 -29 -14.5 -53.5t-14.5 -30.5q0 -23 16 -23q44 0 84.5 31.5
t73 82t67 135t62 169.5t62.5 205l10 35l-103 -29l-217 639q-41 122 -69 165.5t-60 43.5q-16 0 -65 -21l-12 25l213 125q15 -17 43 -85.5t65 -176.5t70.5 -211t77 -236t67.5 -205l201 695q14 49 14 86q0 36 -18.5 55t-40.5 23t-58 4v34h295zM403 1069l-12 18q55 30 92.5 79.5
t55.5 93.5q15 37 31.5 55t41.5 18q24 0 39 -15.5t15 -37.5q0 -39 -68 -97t-195 -114z" />
    <glyph glyph-name="thorn" unicode="&#xfe;" horiz-adv-x="1058" 
d="M248 2234l-2 -1343q164 80 313 80q92 0 167 -28.5t124.5 -75.5t83 -111t48.5 -132.5t15 -142.5q0 -219 -137.5 -358t-378.5 -139q-113 0 -235 49v-363q0 -121 11 -177t42 -56q6 0 18 4l45 16l7 -24l-246 -131l-2 2560q0 119 -12 176t-41 57q-7 0 -19 -4l-45 -18l-4 26z
M522 934q-128 0 -276 -78v-784q48 -25 117 -40.5t118 -15.5q99 1 171.5 34t115.5 94t63.5 141t20.5 180q0 219 -83 344t-247 125z" />
    <glyph glyph-name="ydieresis" unicode="&#xff;" horiz-adv-x="892" 
d="M909 954v-34q-57 0 -90 -37t-59 -129l-221 -770q-24 -85 -42 -142t-41.5 -127t-43.5 -116.5t-45.5 -97t-51.5 -82t-57 -58.5t-66 -39t-75 -12q-78 0 -117 37t-39 90q0 59 36 90t75 31q34 0 61 -24t27 -62q0 -29 -14.5 -53.5t-14.5 -30.5q0 -23 16 -23q44 0 84.5 31.5
t73 82t67 135t62 169.5t62.5 205l10 35l-103 -29l-217 639q-41 122 -69 165.5t-60 43.5q-16 0 -65 -21l-12 25l213 125q15 -17 43 -85.5t65 -176.5t70.5 -211t77 -236t67.5 -205l201 695q14 49 14 86q0 36 -18.5 55t-40.5 23t-58 4v34h295zM598 1239q33 0 57.5 -22.5
t24.5 -55.5q0 -29 -25 -51.5t-57 -22.5t-56 22.5t-24 51.5q0 33 23.5 55.5t56.5 22.5zM334 1239q33 0 57.5 -22.5t24.5 -55.5q0 -29 -25 -51.5t-57 -22.5t-56 22.5t-24 51.5q0 33 23.5 55.5t56.5 22.5z" />
    <glyph glyph-name="dotlessi" unicode="&#x131;" horiz-adv-x="458" 
d="M55 0v35h119v571q0 92 -5 143.5t-14 70t-24 18.5q-22 0 -74 -23l-6 25l250 131v-936h117v-35h-363z" />
    <glyph glyph-name="Lslash" unicode="&#x141;" horiz-adv-x="1263" 
d="M39 356v50l119 67v1163h-117v39h377v-39h-117v-1081l96 55v-49l-96 -55v-795h674q41 0 70.5 7t57 28.5t44 58.5t26 99t9.5 149h41v-448h-39q-23 67 -127 67h-1016v39h117v713z" />
    <glyph glyph-name="lslash" unicode="&#x142;" horiz-adv-x="438" 
d="M281 2232v-1689l116 67v-49l-116 -67v-459h116v-35h-360v35h117v385l-117 -66v49l117 66v1395q0 92 -5 143.5t-14 69.5t-24 18q-24 0 -74 -22l-6 24z" />
    <glyph glyph-name="OE" unicode="&#x152;" horiz-adv-x="3168" 
d="M1731 -328v39h116v436q-121 -232 -335.5 -370.5t-510.5 -138.5q-142 0 -276 39.5t-253 122.5t-207.5 200.5t-140.5 284t-52 362.5q0 127 28 254t81.5 245.5t137.5 221t189.5 179t244.5 120t296 43.5q245 0 459.5 -120t338.5 -345l2 391h-118v39h1187q105 0 129 68h39
v-428h-41q0 89 -10.5 149t-27 94t-48 51.5t-60.5 22t-77 4.5h-831v-778h481q90 5 90 113h43l68 -400h-39q-20 65 -33.5 104.5t-30 69t-27 43t-32.5 21.5t-38 9t-52 1h-430v-1108h888q41 0 70.5 7t57 28.5t44 58.5t26 99t9.5 149h41v-448h-39q-23 67 -141 67h-1216z
M1030 -326q169 0 313 70t248.5 198.5t164 319.5t59.5 422q0 217 -51.5 397.5t-148.5 312.5t-247 205.5t-338 73.5q-167 0 -311.5 -68.5t-252 -194t-169 -316.5t-61.5 -424q0 -215 53 -397t152 -315.5t250.5 -208.5t338.5 -75z" />
    <glyph glyph-name="oe" unicode="&#x153;" horiz-adv-x="1742" 
d="M481 -16q-81 0 -155 28t-137 83t-100.5 149.5t-37.5 216.5q0 148 52.5 261.5t162.5 181t264 67.5q112 0 213 -54.5t158 -162.5q64 105 169 161t220 56q86 0 153.5 -25.5t107 -65t65 -93t34.5 -103t9 -102.5h-580v34h357q41 0 54 21t13 61q0 98 -56.5 170t-162.5 72
q-65 0 -119.5 -25t-99 -76.5t-69.5 -141.5t-25 -210q0 -109 22.5 -194t58.5 -136t86 -84t99.5 -45t105.5 -12q167 0 310 86l18 -26q-43 -25 -76 -41t-110.5 -33.5t-167.5 -17.5q-56 0 -112.5 10.5t-116 34t-112 67.5t-87.5 103q-123 -215 -408 -215zM508 14q148 0 231.5 109
t83.5 342q0 221 -81.5 348t-235.5 127q-146 0 -232 -110t-86 -341q0 -221 82 -348t238 -127z" />
    <glyph glyph-name="Scaron" unicode="&#x160;" horiz-adv-x="1474" 
d="M51 174h37q0 -149 91 -264.5t237 -174.5t319 -59q268 0 421 138.5t153 357.5q0 77 -21.5 140.5t-68.5 112t-95 83.5t-127 67.5t-137.5 52.5t-151.5 49q-90 28 -136 43t-125.5 46t-122 57t-98 69t-83.5 88.5t-48.5 109t-20.5 137.5q0 153 82.5 272t219.5 181.5t304 62.5
q94 0 188.5 -25.5t154.5 -55.5t109.5 -55.5t63.5 -25.5q23 0 39.5 19.5t23.5 49t10 52.5t3 41h39v-510h-41q0 60 -33.5 144.5t-95.5 144.5q-80 78 -206 131t-249 53q-230 0 -374 -113t-144 -299q0 -97 43 -172.5t115.5 -125.5t166.5 -89.5t198.5 -72t208.5 -66t198 -79
t166.5 -103t115.5 -145t43 -199.5q0 -92 -28 -179.5t-85.5 -164.5t-137.5 -135t-192 -91.5t-241 -33.5q-78 0 -146 8.5t-125.5 27.5t-87.5 30.5t-79 37t-53 27.5q-48 24 -74 24q-37 0 -62.5 -51.5t-25.5 -103.5h-35v536zM760 1841h-45q-36 63 -92.5 131t-114.5 117l12 16
q124 -60 219 -153q90 92 215 153l13 -16q-58 -49 -114.5 -117t-92.5 -131z" />
    <glyph glyph-name="scaron" unicode="&#x161;" horiz-adv-x="847" 
d="M727 668h-37q0 122 -81.5 197t-209.5 75q-87 0 -151 -44t-64 -118q0 -42 26.5 -77t68.5 -58.5t96 -48t110.5 -45t110.5 -49.5t96 -61.5t68 -81.5t26 -109q0 -46 -20.5 -91t-60.5 -84.5t-108.5 -64t-154.5 -24.5q-74 0 -155 25.5t-101 25.5q-27 0 -42 -24.5t-15 -69.5h-35
v403h37q0 -46 3.5 -81t17.5 -77t38 -72.5t68 -56t104 -37.5q38 -6 74 -6q119 0 181.5 50.5t62.5 132.5q0 54 -33 97.5t-85.5 72.5t-116.5 55.5t-128 54t-116.5 60t-85.5 81.5t-33 111q0 93 90 167.5t223 74.5q74 0 148.5 -24.5t91.5 -24.5q27 0 42 24.5t15 69.5h35v-348z
M446 1069h-45q-36 63 -92.5 131.5t-113.5 116.5l12 16q124 -60 219 -153q90 92 215 153l12 -16q-58 -49 -114.5 -117t-92.5 -131z" />
    <glyph glyph-name="Ydieresis" unicode="&#x178;" horiz-adv-x="1540" 
d="M1499 1675v-39q-90 0 -135.5 -36t-93.5 -134l-443 -895l4 -860h121v-39h-387v39h119l6 803l-534 1126h-115v35h387v-35h-121l492 -1022l407 828q47 92 47 131q0 32 -28.5 45.5t-98.5 13.5h-14v39h387zM901 2011q33 0 57.5 -22.5t24.5 -55.5q0 -29 -25 -51t-57 -22t-56 22
t-24 51q0 33 23.5 55.5t56.5 22.5zM637 2011q33 0 57.5 -22.5t24.5 -55.5q0 -29 -25 -51t-57 -22t-56 22t-24 51q0 33 23.5 55.5t56.5 22.5z" />
    <glyph glyph-name="Zcaron" unicode="&#x17d;" horiz-adv-x="1517" 
d="M59 -328l-18 35l1223 1929h-883q-48 0 -77 -4.5t-60.5 -22t-48 -51.5t-27 -94t-10.5 -149h-41v428h39q24 -68 141 -68h1122l13 -39l-1219 -1925h999q47 0 77.5 5.5t61 25.5t47.5 56.5t27.5 99.5t10.5 155h41v-448h-39q-23 67 -131 67h-1248zM780 1841h-45
q-36 63 -92.5 131t-114.5 117l13 16q124 -60 219 -153q90 92 215 153l12 -16q-58 -49 -114.5 -117t-92.5 -131z" />
    <glyph glyph-name="zcaron" unicode="&#x17e;" horiz-adv-x="876" 
d="M117 668h-37v348h35q0 -35 15.5 -48.5t49.5 -13.5h613l10 -32l-623 -887h424q86 0 128 59t42 193h37v-361h-35q0 37 -20.5 55.5t-87.5 18.5h-615l-12 35l621 885h-320q-60 0 -100 -9.5t-65 -26.5t-38 -49.5t-17.5 -70t-4.5 -96.5zM461 1069h-45q-36 63 -92.5 131
t-114.5 117l12 16q124 -60 219 -153q90 92 215 153l13 -16q-58 -49 -114.5 -117t-92.5 -131z" />
    <glyph glyph-name="florin" unicode="&#x192;" horiz-adv-x="1593" 
d="M825 936v35h181l41 178q44 190 133 276t200 86q86 0 134.5 -54.5t48.5 -133.5q0 -71 -37 -116.5t-90 -45.5q-43 0 -62.5 22t-19.5 54q0 28 21.5 49t49.5 21q15 0 31 -6.5t23 -6.5q9 0 20.5 17.5t11.5 42.5q0 54 -32.5 91.5t-94.5 37.5q-80 0 -130.5 -70.5t-82.5 -212.5
l-51 -229h201l-21 -35h-188l-133 -602q-27 -122 -75.5 -217.5t-105 -154t-125 -96.5t-131 -52.5t-126.5 -14.5q-167 0 -281.5 117t-114.5 283q0 93 33.5 170.5t87.5 125.5t119 74.5t131 26.5q70 0 104.5 -31.5t34.5 -77.5q0 -39 -28.5 -68.5t-75.5 -29.5q-59 0 -80 57
q-1 2 -4 12t-4.5 12.5t-5 10t-7 10t-9 6.5t-13 5.5t-16.5 1.5q-90 0 -160 -88.5t-70 -212.5q0 -160 105 -264.5t254 -104.5q43 0 81 6.5t92.5 34t98.5 73.5t88 134.5t72 208.5l149 645h-172z" />
    <glyph glyph-name="circumflex" unicode="&#x2c6;" horiz-adv-x="581" 
d="M268 1333h45q36 -63 92.5 -131t114.5 -117l-12 -16q-121 59 -219 154q-91 -94 -215 -154l-13 16q58 49 114.5 117t92.5 131z" />
    <glyph glyph-name="caron" unicode="&#x2c7;" horiz-adv-x="581" 
d="M313 1069h-45q-36 63 -92.5 131t-114.5 117l13 16q124 -60 219 -153q90 92 215 153l12 -16q-58 -49 -114.5 -117t-92.5 -131z" />
    <glyph glyph-name="breve" unicode="&#x2d8;" horiz-adv-x="512" 
d="M256 1081q-84 0 -139.5 61.5t-55.5 186.5h27q0 -73 46.5 -117.5t121.5 -44.5t121.5 44.5t46.5 117.5h27q0 -125 -55.5 -186.5t-139.5 -61.5z" />
    <glyph glyph-name="dotaccent" unicode="&#x2d9;" horiz-adv-x="323" 
d="M162 1290q41 0 70.5 -28.5t29.5 -65.5t-29.5 -64.5t-70.5 -27.5q-40 0 -70.5 27.5t-30.5 64.5t30.5 65.5t70.5 28.5z" />
    <glyph glyph-name="ring" unicode="&#x2da;" horiz-adv-x="356" 
d="M61 1182q0 50 36 83t83 33q48 0 81.5 -33t33.5 -83q0 -46 -34 -79.5t-83 -33.5q-51 0 -84 32t-33 81zM96 1182q0 -36 23 -60t61 -24q34 0 57 24.5t23 59.5q0 37 -23 61.5t-57 24.5q-37 0 -60.5 -24t-23.5 -62z" />
    <glyph glyph-name="ogonek" unicode="&#x2db;" horiz-adv-x="335" 
d="M166 4h22q-51 -100 -51 -186q0 -54 56 -54q22 0 73 17l8 -12q-22 -22 -62.5 -41t-76.5 -19t-55 19t-19 49q0 69 105 227z" />
    <glyph glyph-name="tilde" unicode="&#x2dc;" horiz-adv-x="618" 
d="M442 1190q21 0 49 13.5t48 33.5l18 -18q-24 -34 -78.5 -74.5t-99.5 -40.5q-33 0 -98 32.5t-105 32.5q-20 0 -48 -13.5t-48 -33.5l-19 19q23 33 78.5 73.5t100.5 40.5q33 0 97.5 -32.5t104.5 -32.5z" />
    <glyph glyph-name="hungarumlaut" unicode="&#x2dd;" horiz-adv-x="534" 
d="M74 1069l-13 18q51 30 79 78t36 92q13 76 62 76q24 0 37.5 -15t13.5 -38q0 -41 -65 -108t-150 -103zM211 1069l-12 18q55 30 92 79t55 94q29 73 74 73q24 0 38.5 -15.5t14.5 -37.5q0 -39 -67.5 -97t-194.5 -114z" />
    <glyph glyph-name="endash" unicode="&#x2013;" horiz-adv-x="765" 
d="M705 451v-41h-644v41h644z" />
    <glyph glyph-name="emdash" unicode="&#x2014;" horiz-adv-x="1073" 
d="M1012 451v-41h-951v41h951z" />
    <glyph glyph-name="quoteleft" unicode="&#x2018;" horiz-adv-x="335" 
d="M121 1481q18 6 41 6q54 0 83 -29t29 -69t-28 -69.5t-76 -29.5q-47 0 -78 31t-31 84q0 74 55.5 164t133.5 157l16 -18q-57 -49 -99.5 -117.5t-45.5 -109.5z" />
    <glyph glyph-name="quoteright" unicode="&#x2019;" horiz-adv-x="335" 
d="M215 1520q-21 -7 -41 -7q-54 0 -83.5 29.5t-29.5 69.5q0 39 28.5 68.5t76.5 29.5q47 0 77.5 -31t30.5 -84q0 -75 -55 -164.5t-133 -156.5l-16 18q57 49 99.5 118t45.5 110z" />
    <glyph glyph-name="quotesinglbase" unicode="&#x201a;" horiz-adv-x="335" 
d="M215 -12q-18 -6 -41 -6q-54 0 -83.5 29t-29.5 69q0 39 28.5 68.5t76.5 29.5q47 0 77.5 -31t30.5 -84q0 -75 -55 -164.5t-133 -156.5l-16 18q57 49 99.5 118t45.5 110z" />
    <glyph glyph-name="quotedblleft" unicode="&#x201c;" horiz-adv-x="616" 
d="M401 1481q18 6 41 6q54 0 83.5 -29t29.5 -69t-28 -69.5t-76 -29.5q-47 0 -78 31t-31 84q0 75 55 164.5t133 156.5l17 -18q-57 -50 -100 -118t-46 -109zM121 1481q18 6 41 6q54 0 83 -29t29 -69t-28 -69.5t-76 -29.5q-47 0 -78 31t-31 84q0 74 55.5 164t133.5 157l16 -18
q-57 -49 -99.5 -117.5t-45.5 -109.5z" />
    <glyph glyph-name="quotedblright" unicode="&#x201d;" horiz-adv-x="616" 
d="M215 1520q-21 -7 -41 -7q-54 0 -83.5 29.5t-29.5 69.5q0 39 28.5 68.5t76.5 29.5q47 0 77.5 -31t30.5 -84q0 -75 -55 -164.5t-133 -156.5l-16 18q57 49 99.5 118t45.5 110zM496 1520q-21 -7 -41 -7q-54 0 -83.5 29.5t-29.5 69.5t28 69t76 29q47 0 78 -31t31 -84
q0 -75 -55 -164.5t-133 -156.5l-17 18q57 50 100 118.5t46 109.5z" />
    <glyph glyph-name="quotedblbase" unicode="&#x201e;" horiz-adv-x="616" 
d="M215 -12q-18 -6 -41 -6q-54 0 -83.5 29t-29.5 69q0 39 28.5 68.5t76.5 29.5q47 0 77.5 -31t30.5 -84q0 -75 -55 -164.5t-133 -156.5l-16 18q57 49 99.5 118t45.5 110zM496 -12q-18 -6 -41 -6q-54 0 -83.5 29t-29.5 69t28 69t76 29q47 0 78 -31t31 -84q0 -75 -55 -164.5
t-133 -156.5l-17 18q57 50 100 118.5t46 109.5z" />
    <glyph glyph-name="dagger" unicode="&#x2020;" horiz-adv-x="862" 
d="M102 1255v35h258v385h142v-385h258v-35h-258v-1546l-142 -61v1607h-258z" />
    <glyph glyph-name="daggerdbl" unicode="&#x2021;" horiz-adv-x="862" 
d="M102 1255v35h258v385h142v-385h258v-35h-258v-301h258v-34h-258v-1211l-142 -61v1272h-258v34h258v301h-258z" />
    <glyph glyph-name="bullet" unicode="&#x2022;" horiz-adv-x="481" 
d="M240 627q74 0 127 -50t53 -116t-52.5 -114t-127.5 -48q-72 0 -125.5 48t-53.5 114q0 65 54 115.5t125 50.5z" />
    <glyph glyph-name="ellipsis" unicode="&#x2026;" horiz-adv-x="1007" 
d="M168 178q44 0 75 -29.5t31 -68.5t-31 -67.5t-75 -28.5q-43 0 -75 29t-32 67t32 68t75 30zM504 178q44 0 75 -29.5t31 -68.5t-31 -67.5t-75 -28.5q-43 0 -75 29t-32 67t32 68t75 30zM840 178q44 0 75 -29.5t31 -68.5t-31 -67.5t-75 -28.5q-43 0 -75 29t-32 67t32 68t75 30
z" />
    <glyph glyph-name="perthousand" unicode="&#x2030;" horiz-adv-x="1892" 
d="M94 -184h-53l1210 1710h56zM387 809q-106 0 -183 82t-77 203q0 133 86.5 219t208.5 86q106 0 183 -82t77 -203q0 -133 -86.5 -219t-208.5 -86zM397 838q73 0 117.5 79t44.5 181q0 63 -12.5 121.5t-47.5 104.5t-87 46q-73 0 -117.5 -79t-44.5 -181q0 -63 12.5 -121.5
t47.5 -104.5t87 -46zM926 -57q-106 0 -183 81.5t-77 202.5q0 133 86.5 219t208.5 86q106 0 183 -81.5t77 -202.5q0 -133 -86.5 -219t-208.5 -86zM936 -29q73 0 117.5 79t44.5 181q0 46 -8 91t-24 87.5t-46.5 68.5t-69.5 26q-73 0 -117.5 -79t-44.5 -181q0 -46 8 -91
t24 -87.5t46.5 -68.5t69.5 -26zM1556 -57q-106 0 -183 81.5t-77 202.5q0 133 86.5 219t208.5 86q106 0 183 -81.5t77 -202.5q0 -133 -86.5 -219t-208.5 -86zM1567 -29q73 0 117.5 79t44.5 181q0 46 -8 91t-24 87.5t-46.5 68.5t-69.5 26q-73 0 -117.5 -79t-44.5 -181
q0 -46 8 -91t24 -87.5t46.5 -68.5t69.5 -26z" />
    <glyph glyph-name="guilsinglleft" unicode="&#x2039;" horiz-adv-x="372" 
d="M41 430v62q156 133 246 272l24 -16q-75 -153 -178 -287q103 -134 178 -287l-24 -16q-90 139 -246 272z" />
    <glyph glyph-name="guilsinglright" unicode="&#x203a;" horiz-adv-x="372" 
d="M332 492v-62q-156 -133 -246 -272l-25 16q73 150 179 287q-106 137 -179 287l25 16q90 -139 246 -272z" />
    <glyph glyph-name="fraction" unicode="&#x2044;" horiz-adv-x="555" 
d="M74 -186l-43 2l450 1710l43 -2z" />
    <glyph glyph-name="Euro" unicode="&#x20ac;" horiz-adv-x="1275" 
d="M774 1421q-240 0 -384 -147.5t-171 -454.5h557l-20 -37h-539q-2 -33 -2 -100q0 -84 6 -158h555l-20 -37h-531q16 -133 57 -234.5t93.5 -162.5t121.5 -99.5t135.5 -52.5t141.5 -14q225 0 414 133l16 -30q-80 -60 -200 -103t-269 -43q-323 0 -498.5 194.5t-175.5 561.5
q0 200 57 358t155.5 256t225.5 148.5t273 50.5q185 0 308.5 -74t123.5 -188q0 -62 -31.5 -93.5t-78.5 -31.5q-31 0 -53.5 21.5t-22.5 54.5q0 37 33 61q2 2 7 5.5t6.5 5t4 5.5t3.5 9.5t1 13.5q0 80 -80.5 131t-218.5 51z" />
    <glyph glyph-name="trademark" unicode="&#x2122;" horiz-adv-x="1402" 
d="M678 877v26q59 0 73.5 30.5t14.5 147.5v404l-53 -17l-11 23l132 74l190 -400l162 363h155v-27h-63v-598h63v-26h-215v26h68v572l-182 -410h-31l-184 391v-428q0 -79 16.5 -102t71.5 -23v-26h-207zM612 1327h-26q0 57 -10 93t-31 53.5t-45 23.5t-62 6h-59v-600h74v-26
h-234v26h76v600h-59q-38 0 -62 -6t-45 -23.5t-31 -53.5t-10 -93h-27v242h25q18 -41 94 -41h328q62 0 80 41h24v-242z" />
    <glyph glyph-name="minus" unicode="&#x2212;" horiz-adv-x="761" 
d="M121 514h579l-59 -104h-580z" />
    <glyph glyph-name="CR" horiz-adv-x="868" 
 />
    </font>
</defs>
</svg>
